<?xml version="1.0" encoding="UTF-8"?> <svg xmlns="http://www.w3.org/2000/svg" width="64" height="64" viewBox="0 0 64 64" fill="none"><path d="M59.9995 0H3.99996C1.79086 0 0 1.79086 0 3.99996V49.3329C0 51.542 1.79086 53.3329 3.99996 53.3329H35.9997V50.6663H3.99996C3.2636 50.6663 2.6666 50.0693 2.6666 49.3329V3.99996C2.6666 3.2636 3.2636 2.6666 3.99996 2.6666H59.9995C60.7358 2.6666 61.3328 3.2636 61.3328 3.99996V49.3329C61.3328 50.0693 60.7358 50.6663 59.9995 50.6663H57.3329V53.3329H59.9995C62.2086 53.3329 63.9994 51.542 63.9994 49.3329V3.99996C63.9994 1.79086 62.2086 0 59.9995 0Z" fill="#003BFF"></path><path d="M55.999 13.3332C53.0535 13.3332 50.6656 10.9453 50.6656 7.99987C50.6656 7.2635 50.0686 6.6665 49.3323 6.6665H14.6661C13.9297 6.6665 13.3327 7.2635 13.3327 7.99987C13.3327 10.9453 10.9449 13.3332 7.99938 13.3332C7.26301 13.3332 6.66602 13.9302 6.66602 14.6666V38.6663C6.66602 39.4027 7.26301 39.9997 7.99938 39.9997C10.9449 39.9997 13.3327 42.3876 13.3327 45.333C13.3327 46.0694 13.9297 46.6664 14.6661 46.6664H31.9993V43.9995H15.8887C15.3152 40.6448 12.6875 38.0171 9.33274 37.4436V15.8892C12.6875 15.3157 15.3152 12.688 15.8887 9.33323H48.1098C48.6833 12.688 51.311 15.3157 54.6657 15.8892V26.6665H57.3323V14.6666C57.3323 13.9301 56.7353 13.3332 55.999 13.3332Z" fill="#003BFF"></path><path d="M46.6659 27.9998C40.0386 27.9998 34.666 33.3723 34.666 39.9997C34.666 46.627 40.0386 51.9995 46.6659 51.9995C53.29 51.9914 58.6577 46.6237 58.6658 39.9997C58.6658 33.3723 53.2932 27.9998 46.6659 27.9998ZM46.6659 49.3329C41.5113 49.3329 37.3326 45.1544 37.3326 39.9997C37.3326 34.8451 41.5112 30.6664 46.6659 30.6664C51.8181 30.6722 55.9933 34.8474 55.9992 39.9997C55.9991 45.1542 51.8205 49.3329 46.6659 49.3329Z" fill="#003BFF"></path><path d="M51.9992 47.9995V59.8914L47.4992 56.2914C47.0121 55.9014 46.3197 55.9014 45.8326 56.2914L41.3326 59.8914V47.9995H38.666V62.666C38.6659 62.9691 38.769 63.2633 38.9585 63.4999C39.4188 64.0747 40.2579 64.1676 40.8326 63.7074L46.6659 59.0408L52.4993 63.7074C52.7358 63.8965 53.0298 63.9995 53.3326 63.9994C54.069 63.9994 54.666 63.4024 54.666 62.666V47.9995H51.9992Z" fill="#003BFF"></path><path d="M45.3337 13.3333H18.6673C17.931 13.3333 17.334 13.9302 17.334 14.6666V19.9998C17.334 20.7362 17.931 21.3332 18.6673 21.3332H45.3337C46.0701 21.3332 46.6671 20.7362 46.6671 19.9998V14.6665C46.6671 13.9301 46.0701 13.3333 45.3337 13.3333ZM44.0004 18.6665H20.0006V15.9999H44.0004V18.6665Z" fill="#003BFF"></path><path d="M31.9999 30.6663H16V33.3329H31.9999V30.6663Z" fill="#003BFF"></path><path d="M46.6666 33.333C42.9848 33.333 40 36.3178 40 39.9996C40 43.6815 42.9848 46.6663 46.6666 46.6663C50.3468 46.6619 53.3289 43.6796 53.3333 39.9996C53.3333 36.3178 50.3485 33.333 46.6666 33.333ZM46.6666 43.9996C44.4575 43.9996 42.6666 42.2088 42.6666 39.9996C42.6666 37.7905 44.4575 35.9996 46.6666 35.9996C48.8758 35.9996 50.6666 37.7905 50.6666 39.9996C50.6666 42.2088 48.8758 43.9996 46.6666 43.9996Z" fill="#003BFF"></path></svg> 