<?xml version="1.0" encoding="UTF-8"?> <svg xmlns="http://www.w3.org/2000/svg" width="65" height="66" viewBox="0 0 65 66" fill="none"><path d="M26.5 4L27.155 2.7627C26.7453 2.54577 26.2547 2.54577 25.845 2.7627L26.5 4ZM1.5 13V11.6C1.1287 11.6 0.772601 11.7475 0.510051 12.0101C0.2475 12.2726 0.1 12.6287 0.1 13H1.5ZM51.5 13H52.9C52.9 12.6287 52.7525 12.2726 52.4899 12.0101C52.2274 11.7475 51.8713 11.6 51.5 11.6V13ZM25.845 2.7627C23.0487 4.24307 18.4458 6.47025 13.7602 8.32309C9.00699 10.2027 4.40182 11.6 1.5 11.6V14.4C4.99818 14.4 10.0597 12.7973 14.7898 10.9269C19.5875 9.02975 24.2846 6.75693 27.155 5.2373L25.845 2.7627ZM0.1 13C0.1 29.7832 5.0604 42.7947 10.761 51.6338C13.6083 56.0487 16.6501 59.438 19.3687 61.7402C20.7268 62.8904 22.0243 63.7861 23.1956 64.4015C24.3356 65.0004 25.4804 65.4 26.5 65.4V62.6C26.1446 62.6 25.4769 62.4371 24.4978 61.9227C23.55 61.4248 22.4216 60.6565 21.1782 59.6035C18.6937 57.4995 15.8292 54.3263 13.114 50.1162C7.6896 41.7053 2.9 29.2168 2.9 13H0.1ZM25.845 5.2373C28.7154 6.75693 33.4125 9.02975 38.2102 10.9269C42.9403 12.7973 48.0018 14.4 51.5 14.4V11.6C48.5982 11.6 43.993 10.2027 39.2398 8.32309C34.5542 6.47025 29.9513 4.24307 27.155 2.7627L25.845 5.2373ZM50.1 13C50.1 29.2168 45.3104 41.7053 39.886 50.1162C37.1708 54.3263 34.3063 57.4995 31.8218 59.6035C30.5784 60.6565 29.45 61.4248 28.5022 61.9227C27.5231 62.4371 26.8554 62.6 26.5 62.6V65.4C27.5196 65.4 28.6644 65.0004 29.8044 64.4015C30.9757 63.7861 32.2732 62.8904 33.6313 61.7402C36.3499 59.438 39.3918 56.0487 42.239 51.6338C47.9396 42.7947 52.9 29.7832 52.9 13H50.1Z" fill="#003BFF"></path><path d="M40.4 32C40.4 31.2268 39.7732 30.6 39 30.6C38.2268 30.6 37.6 31.2268 37.6 32H40.4ZM27 21.4C27.7732 21.4 28.4 20.7732 28.4 20C28.4 19.2268 27.7732 18.6 27 18.6V21.4ZM37.6 32C37.6 37.8542 32.8542 42.6 27 42.6V45.4C34.4006 45.4 40.4 39.4006 40.4 32H37.6ZM27 42.6C21.1458 42.6 16.4 37.8542 16.4 32H13.6C13.6 39.4006 19.5994 45.4 27 45.4V42.6ZM16.4 32C16.4 26.1458 21.1458 21.4 27 21.4V18.6C19.5994 18.6 13.6 24.5994 13.6 32H16.4Z" fill="#003BFF"></path><path d="M24.1051 30.1405C23.6304 29.5302 22.7508 29.4202 22.1405 29.8949C21.5302 30.3696 21.4202 31.2492 21.8949 31.8595L24.1051 30.1405ZM26.5 35.5L25.3949 36.3595C25.6601 36.7005 26.068 36.9 26.5 36.9C26.932 36.9 27.3399 36.7005 27.6051 36.3595L26.5 35.5ZM38.1051 22.8595C38.5798 22.2492 38.4698 21.3696 37.8595 20.8949C37.2492 20.4202 36.3696 20.5302 35.8949 21.1405L38.1051 22.8595ZM21.8949 31.8595L25.3949 36.3595L27.6051 34.6405L24.1051 30.1405L21.8949 31.8595ZM27.6051 36.3595L38.1051 22.8595L35.8949 21.1405L25.3949 34.6405L27.6051 36.3595Z" fill="#003BFF"></path></svg> 