<?xml version="1.0" encoding="UTF-8"?> <svg xmlns="http://www.w3.org/2000/svg" width="66" height="66" viewBox="0 0 66 66" fill="none"><path d="M2.0669 64.9988H53.2668C53.8561 64.9988 54.3337 64.5213 54.3337 63.9324V54.3323H61.8C62.3893 54.3323 62.8669 53.8547 62.8669 53.2659V42.5988C62.8669 42.01 62.3893 41.5324 61.8 41.5324H54.3337V31.9323C54.3337 31.3429 53.8561 30.8654 53.2668 30.8654H51.3092C51.4596 30.1681 51.3004 29.4396 50.8732 28.8683L46.0534 22.4435L48.2789 20.7741C49.2677 20.0338 49.82 18.8473 49.7501 17.6139L49.6432 15.693C49.6139 15.172 49.8473 14.671 50.2648 14.358L52.4899 12.6891L53.4264 13.9371C53.5959 14.1632 53.8483 14.3131 54.1286 14.3532C54.1784 14.36 54.2287 14.3639 54.2795 14.3634C54.5104 14.3639 54.735 14.2887 54.9196 14.15L63.7204 7.54795C65.1335 6.48789 65.4201 4.48252 64.3601 3.06894L63.7673 2.27792C62.7057 0.866294 60.7014 0.580648 59.2873 1.63924L50.4875 8.24083C50.0163 8.59434 49.9206 9.26329 50.2741 9.73448L51.2101 10.9825L48.985 12.652C47.9962 13.3922 47.4435 14.5782 47.5138 15.8117L47.6203 17.7326C47.65 18.2536 47.4166 18.755 46.9992 19.0675L44.7741 20.737L39.9537 14.3121C39.4493 13.629 38.63 13.2526 37.7828 13.3146C36.9747 13.3732 36.2525 13.8419 35.8692 14.5563L27.1046 30.8654H2.0669C1.47754 30.8654 1 31.3429 1 31.9323V42.5988C1 43.1882 1.47754 43.6657 2.0669 43.6657H9.53323V52.199H2.0669C1.47754 52.199 1 52.6765 1 53.2659V63.9324C1 64.5213 1.47754 64.9988 2.0669 64.9988ZM60.5676 3.3453C61.0383 2.99179 61.7067 3.087 62.0607 3.5582L62.6535 4.34921C63.0065 4.82041 62.9108 5.48838 62.4401 5.84189L54.4923 11.8043L52.6198 9.30724L60.5676 3.3453ZM20.2003 54.3323H35.1334V62.8655H20.2003V54.3323ZM28.7335 43.6657H43.6666V52.199H28.7335V43.6657ZM52.2003 62.8655H37.2667V54.3323H52.2003V62.8655ZM60.7336 52.199H45.7999V43.6657H60.7336V52.199ZM52.2003 41.5324H37.2667V35.321L48.1847 32.9987H52.2003V41.5324ZM37.7491 15.567C37.7853 15.4923 37.8605 15.4445 37.9435 15.442L37.9645 15.441C38.0777 15.443 38.1827 15.4991 38.2472 15.5919L43.0665 22.0167L38.6661 25.318C38.1949 25.6715 38.0992 26.34 38.4527 26.8117C38.8063 27.2829 39.4747 27.3781 39.9464 27.0251L44.3468 23.7238L49.1666 30.1486C49.2433 30.2424 49.2658 30.3688 49.2252 30.4826C49.1999 30.5617 49.133 30.6198 49.0509 30.6344L27.8892 35.1345C27.7579 35.155 27.6261 35.0988 27.5504 34.9894C27.4654 34.8869 27.4483 34.7443 27.5064 34.6242L37.7491 15.567ZM25.8443 36.2697C26.4127 37.0515 27.3883 37.424 28.3331 37.2209L35.1334 35.7746V41.5324H20.2003V32.9987H25.9576L25.627 33.6139C25.17 34.465 25.2554 35.5046 25.8443 36.2697ZM3.13331 37.2658H5.26661C5.85597 37.2658 6.33351 36.7883 6.33351 36.1989C6.33351 35.6101 5.85597 35.1325 5.26661 35.1325H3.13331V32.9987H18.0669V41.5324H3.13331V37.2658ZM11.6665 43.6657H26.6002V52.199H11.6665V43.6657ZM3.13331 54.3323H18.0669V62.8655H3.13331V54.3323Z" fill="#003BFF" stroke="#003BFF" stroke-width="0.2"></path><path d="M3.23047 34H10.0002V39H3.23047V34Z" fill="white"></path></svg> 