<?xml version="1.0" encoding="UTF-8"?> <svg xmlns="http://www.w3.org/2000/svg" width="64" height="64" viewBox="0 0 64 64" fill="none"><path fill-rule="evenodd" clip-rule="evenodd" d="M46.25 30.75C46.9399 30.75 47.5 31.3101 47.5 32C47.5 32.6899 46.9399 33.25 46.25 33.25C45.5601 33.25 45 32.6899 45 32C45 31.3101 45.5601 30.75 46.25 30.75ZM33.75 8.25C34.4404 8.25 35 8.80957 35 9.5V22C35 22.6904 34.4404 23.25 33.75 23.25H8.75C8.05957 23.25 7.5 22.6904 7.5 22V9.5C7.5 8.80957 8.05957 8.25 8.75 8.25H33.75ZM32.5 20.75V10.75H10V20.75H32.5ZM28.75 18.25C28.0596 18.25 27.5 17.6904 27.5 17V14.5C27.5 13.8096 28.0596 13.25 28.75 13.25C29.4404 13.25 30 13.8096 30 14.5V17C30 17.6904 29.4404 18.25 28.75 18.25ZM23.75 18.25C23.0596 18.25 22.5 17.6904 22.5 17V14.5C22.5 13.8096 23.0596 13.25 23.75 13.25C24.4404 13.25 25 13.8096 25 14.5V17C25 17.6904 24.4404 18.25 23.75 18.25ZM60.25 8.25C62.3179 8.25 64 9.93213 64 12V37C64 39.0679 62.3179 40.75 60.25 40.75H42.5V57.75C42.5 61.1963 39.6963 64 36.25 64H6.25C2.80371 64 0 61.1963 0 57.75V6.25C0 2.80371 2.80371 0 6.25 0H36.25C39.6963 0 42.5 2.80371 42.5 6.25V8.25H60.25ZM42.5 18.25V23.25H61.5V18.25H42.5ZM61.5 12C61.5 11.3105 60.9395 10.75 60.25 10.75H42.5V15.75H61.5V12ZM40 57.75V6.25C40 4.18213 38.3179 2.5 36.25 2.5H6.25C4.18213 2.5 2.5 4.18213 2.5 6.25V57.75C2.5 59.8179 4.18213 61.5 6.25 61.5H36.25C38.3179 61.5 40 59.8179 40 57.75ZM60.25 38.25C60.9395 38.25 61.5 37.6895 61.5 37V25.75H42.5V38.25H60.25ZM57.75 30.75C58.4404 30.75 59 31.3096 59 32C59 32.6904 58.4404 33.25 57.75 33.25H51.25C50.5596 33.25 50 32.6904 50 32C50 31.3096 50.5596 30.75 51.25 30.75H57.75ZM13.75 28.25C14.4404 28.25 15 28.8096 15 29.5V34.5C15 35.1904 14.4404 35.75 13.75 35.75H8.75C8.05957 35.75 7.5 35.1904 7.5 34.5V29.5C7.5 28.8096 8.05957 28.25 8.75 28.25H13.75ZM12.5 33.25V30.75H10V33.25H12.5ZM13.75 38.25C14.4404 38.25 15 38.8096 15 39.5V44.5C15 45.1904 14.4404 45.75 13.75 45.75H8.75C8.05957 45.75 7.5 45.1904 7.5 44.5V39.5C7.5 38.8096 8.05957 38.25 8.75 38.25H13.75ZM12.5 43.25V40.75H10V43.25H12.5ZM13.75 48.25C14.4404 48.25 15 48.8096 15 49.5V54.5C15 55.1904 14.4404 55.75 13.75 55.75H8.75C8.05957 55.75 7.5 55.1904 7.5 54.5V49.5C7.5 48.8096 8.05957 48.25 8.75 48.25H13.75ZM12.5 53.25V50.75H10V53.25H12.5ZM23.75 28.25C24.4404 28.25 25 28.8096 25 29.5V34.5C25 35.1904 24.4404 35.75 23.75 35.75H18.75C18.0596 35.75 17.5 35.1904 17.5 34.5V29.5C17.5 28.8096 18.0596 28.25 18.75 28.25H23.75ZM22.5 33.25V30.75H20V33.25H22.5ZM23.75 38.25C24.4404 38.25 25 38.8096 25 39.5V44.5C25 45.1904 24.4404 45.75 23.75 45.75H18.75C18.0596 45.75 17.5 45.1904 17.5 44.5V39.5C17.5 38.8096 18.0596 38.25 18.75 38.25H23.75ZM22.5 43.25V40.75H20V43.25H22.5ZM23.75 48.25C24.4404 48.25 25 48.8096 25 49.5V54.5C25 55.1904 24.4404 55.75 23.75 55.75H18.75C18.0596 55.75 17.5 55.1904 17.5 54.5V49.5C17.5 48.8096 18.0596 48.25 18.75 48.25H23.75ZM22.5 53.25V50.75H20V53.25H22.5ZM33.75 28.25C34.4404 28.25 35 28.8096 35 29.5V34.5C35 35.1904 34.4404 35.75 33.75 35.75H28.75C28.0596 35.75 27.5 35.1904 27.5 34.5V29.5C27.5 28.8096 28.0596 28.25 28.75 28.25H33.75ZM32.5 33.25V30.75H30V33.25H32.5ZM33.75 38.25C34.4404 38.25 35 38.8096 35 39.5V44.5C35 45.1904 34.4404 45.75 33.75 45.75H28.75C28.0596 45.75 27.5 45.1904 27.5 44.5V39.5C27.5 38.8096 28.0596 38.25 28.75 38.25H33.75ZM32.5 43.25V40.75H30V43.25H32.5ZM33.75 48.25C34.4404 48.25 35 48.8096 35 49.5V54.5C35 55.1904 34.4404 55.75 33.75 55.75H28.75C28.0596 55.75 27.5 55.1904 27.5 54.5V49.5C27.5 48.8096 28.0596 48.25 28.75 48.25H33.75ZM32.5 53.25V50.75H30V53.25H32.5Z" fill="#0041F1"></path></svg> 