<?xml version="1.0" encoding="UTF-8"?> <svg xmlns="http://www.w3.org/2000/svg" width="56" height="64" viewBox="0 0 56 64" fill="none"><path fill-rule="evenodd" clip-rule="evenodd" d="M34.3487 22.5C33.6464 22.5 33.0791 21.9399 33.0791 21.25C33.0791 20.5601 33.6464 20 34.3487 20C35.0494 20 35.6182 20.5601 35.6182 21.25C35.6182 21.9399 35.0494 22.5 34.3487 22.5ZM21.6528 22.5C20.9506 22.5 20.3832 21.9399 20.3832 21.25C20.3832 20.5601 20.9506 20 21.6528 20C22.3536 20 22.9224 20.5601 22.9224 21.25C22.9224 21.9399 22.3536 22.5 21.6528 22.5ZM24.6066 31.0918C23.9723 30.7974 23.7005 30.0527 23.9996 29.4282C24.2981 28.8037 25.0549 28.5361 25.6892 28.8306C26.4138 29.167 27.1914 29.3374 28.0002 29.3374C28.7913 29.3374 29.5545 29.1733 30.2681 28.8506C30.9054 28.562 31.6592 28.8369 31.9523 29.4639C32.2449 30.0913 31.9662 30.8335 31.3289 31.1221C30.28 31.5967 29.1602 31.8374 28.0002 31.8374C26.8145 31.8374 25.6723 31.5864 24.6066 31.0918ZM56 50.7212V62.75C56 63.4404 55.4317 64 54.7304 64H1.26958C0.568336 64 0 63.4404 0 62.75V50.7212C0 43.8335 7.96564 38.4565 14.7658 38.2017L18.2691 35.1025C14.0894 32.0659 11.5532 27.1865 11.5532 22V13.75C11.5532 6.14648 17.7593 0 25.474 0H30.5523C38.2774 0 44.5624 6.16846 44.5624 13.75V22C44.5624 27.1953 41.9919 32.084 37.7572 35.126L41.2342 38.2017C48.0492 38.457 56 43.8477 56 50.7212ZM25.1878 55.75L23.8181 61.5H32.1363L30.8052 55.75H25.1878ZM30.9143 53.25L31.9508 50.3037L28.0007 48.3584L24.1335 50.2622L25.1075 53.25H30.9143ZM28.0002 44.6025L32.4051 37.6641C30.9798 38.0498 29.5019 38.2495 28.0131 38.2495C26.51 38.2495 25.0212 38.0459 23.5884 37.6538L28.0002 44.6025ZM29.8173 46.458L35.0172 49.0186L39.2003 39.7632L35.9128 36.855L29.8173 46.458ZM25.474 2.5C19.198 2.5 14.0924 7.54639 14.0924 13.75V14.6758L16.3548 11.4116C16.569 11.1021 16.9132 10.9038 17.2921 10.8711C17.6705 10.8384 18.0449 10.9741 18.3108 11.2422C20.8936 13.8408 23.882 15 28.0007 15C32.1199 15 35.1079 13.8408 37.6888 11.2422C37.9536 10.9756 38.3245 10.8394 38.7024 10.8706C39.0798 10.9019 39.4235 11.0972 39.6392 11.4033L42.0232 14.7832V13.75C42.0232 7.54639 36.8774 2.5 30.5523 2.5H25.474ZM14.0924 22C14.0924 29.5054 20.2429 35.75 28.0131 35.75C35.8087 35.75 42.0232 29.4858 42.0232 22V19.1665L38.3905 14.0161C35.5652 16.3867 32.2246 17.5 28.0007 17.5C23.7814 17.5 20.4433 16.3892 17.6184 14.0234L14.0924 19.1108V22ZM20.0872 36.8555L16.7997 39.7632L20.9828 49.0186L26.1837 46.458L20.0872 36.8555ZM2.53917 50.7212V61.5H21.21L22.8654 54.5518L21.8353 51.3936L20.9308 51.8394C20.6203 51.9917 20.2608 52.0132 19.9344 51.8979C19.6081 51.7827 19.3438 51.541 19.2029 51.2295L14.4529 40.7212C8.897 41.1255 2.53917 45.5718 2.53917 50.7212ZM53.4608 61.5V50.7212C53.4608 45.5718 47.103 41.126 41.5471 40.7212L36.7971 51.2295C36.6562 51.541 36.3919 51.7827 36.0656 51.8979C35.7422 52.0122 35.3817 51.9932 35.0692 51.8394L34.241 51.4312L33.1366 54.5708L34.7404 61.5H53.4608ZM44.5053 55.75C45.2066 55.75 45.7749 56.3096 45.7749 57C45.7749 57.6904 45.2066 58.25 44.5053 58.25H39.427C38.7257 58.25 38.1574 57.6904 38.1574 57C38.1574 56.3096 38.7257 55.75 39.427 55.75H44.5053ZM49.5137 55.75C50.2145 55.75 50.7833 56.3101 50.7833 57C50.7833 57.6899 50.2145 58.25 49.5137 58.25C48.813 58.25 48.2441 57.6899 48.2441 57C48.2441 56.3101 48.813 55.75 49.5137 55.75Z" fill="#0041F1"></path></svg> 