<?xml version="1.0" encoding="UTF-8"?> <svg xmlns="http://www.w3.org/2000/svg" width="64" height="58" viewBox="0 0 64 58" fill="none"><path fill-rule="evenodd" clip-rule="evenodd" d="M47 15.1303C46.3101 15.1303 45.75 14.5654 45.75 13.8695C45.75 13.1735 46.3101 12.6086 47 12.6086C47.6899 12.6086 48.25 13.1735 48.25 13.8695C48.25 14.5654 47.6899 15.1303 47 15.1303ZM62.75 0C63.4404 0 64 0.564433 64 1.26086V3.78259C64 7.25882 61.1963 10.0869 57.75 10.0869H57.6006L38.25 34.4856V49.1736C38.25 49.9173 36.7817 52.9601 34.1777 55.0745C32.4121 56.5063 30.2988 57.4618 28.0654 57.8376L27.2061 57.9824C26.4453 58.111 25.75 57.5189 25.75 56.7388V34.4856L6.39941 10.0869H5.72852C2.56982 10.0869 0 7.49474 0 4.3086V1.26086C0 0.564433 0.55957 0 1.25 0H62.75ZM32.6104 53.1099C33.9795 51.9982 35.0615 50.5546 35.75 48.9239V35.3041H28.25V55.2321C29.8403 54.8697 31.3369 54.1427 32.6104 53.1099ZM36.3989 32.7824L54.3989 10.0869H9.60059L27.6006 32.7824H36.3989ZM61.5 3.78259V2.52172H2.5V4.3086C2.5 6.10434 3.94824 7.56517 5.72852 7.56517H57.75C59.8179 7.56517 61.5 5.86842 61.5 3.78259ZM33.8149 29.9844C33.2764 29.549 33.189 28.7555 33.6201 28.2118L42.6626 16.8123C43.0942 16.2686 43.8809 16.1809 44.4199 16.6158C44.959 17.0507 45.0459 17.8441 44.6147 18.3879L35.5723 29.7874C35.1396 30.3326 34.353 30.4183 33.8149 29.9844Z" fill="#0041F1"></path></svg> 