<?xml version="1.0" encoding="UTF-8"?> <svg xmlns="http://www.w3.org/2000/svg" width="64" height="64" viewBox="0 0 64 64" fill="none"><path fill-rule="evenodd" clip-rule="evenodd" d="M38.25 57.75C38.25 57.0601 38.8101 56.5 39.5 56.5C40.1899 56.5 40.75 57.0601 40.75 57.75C40.75 58.4399 40.1899 59 39.5 59C38.8101 59 38.25 58.4399 38.25 57.75ZM34.5 56.5C35.1904 56.5 35.75 57.0596 35.75 57.75C35.75 58.4404 35.1904 59 34.5 59H24.5C23.8096 59 23.25 58.4404 23.25 57.75C23.25 57.0596 23.8096 56.5 24.5 56.5H34.5ZM63.9956 36.167C63.9971 36.1841 63.998 36.2007 63.9985 36.2178C63.9985 36.2285 64 36.2393 64 36.25C64 39.2534 62.8301 42.0791 60.7056 44.2051C58.5786 46.3301 55.7539 47.5 52.75 47.5C46.5469 47.5 41.5 42.4531 41.5 36.25C41.5 36.2393 41.5015 36.2285 41.5015 36.2178C41.502 36.2007 41.5029 36.1836 41.5044 36.167C41.5063 36.1338 41.5098 36.1011 41.5146 36.0688C41.5166 36.0542 41.5186 36.04 41.521 36.0259C41.5288 35.9829 41.5386 35.9414 41.5503 35.9004C41.5518 35.896 41.5527 35.8921 41.5537 35.8877C41.5684 35.8403 41.5854 35.7939 41.6055 35.7485C41.6064 35.7466 41.6069 35.7441 41.6079 35.7422L51.0605 14.4736L37.3027 9.55566C36.895 10.2085 36.3682 10.7842 35.75 11.249V44.8447C36.6514 45.2739 37.4824 45.8569 38.1875 46.5625C39.5562 47.9321 40.4136 49.6753 40.6685 51.5605C46.3247 52.147 50.75 56.9414 50.75 62.75C50.75 63.4404 50.1904 64 49.5 64H14.5C13.8096 64 13.25 63.4404 13.25 62.75C13.25 56.9414 17.6753 52.147 23.3315 51.5605C23.5864 49.6753 24.4438 47.9326 25.812 46.563C26.5176 45.8574 27.3491 45.2739 28.25 44.8447V11.2485C27.6313 10.7837 27.105 10.208 26.6973 9.55566L12.9395 14.4736L22.3921 35.7422C22.3931 35.7441 22.3936 35.7466 22.3945 35.7485C22.4146 35.7939 22.4316 35.8403 22.4463 35.8877C22.4473 35.8921 22.4482 35.896 22.4497 35.9004C22.4614 35.9414 22.4712 35.9829 22.479 36.0259C22.4814 36.04 22.4834 36.0542 22.4854 36.0688C22.4902 36.1011 22.4937 36.1338 22.4956 36.167C22.4971 36.1841 22.498 36.2007 22.4985 36.2178C22.4985 36.2285 22.5 36.2393 22.5 36.25C22.5 39.2534 21.3301 42.0791 19.2056 44.2051C17.0786 46.3301 14.2539 47.5 11.25 47.5C5.04688 47.5 0 42.4531 0 36.25C0 36.2393 0.00146484 36.2285 0.00146484 36.2178C0.00195284 36.2007 0.00292953 36.1836 0.00439453 36.1665C0.00634753 36.1333 0.00976544 36.1011 0.0146484 36.0684C0.0166014 36.0542 0.0185551 36.04 0.0209961 36.0254C0.0288091 35.9829 0.038574 35.9409 0.050293 35.8999C0.051758 35.896 0.0527339 35.8921 0.0537109 35.8877C0.0683589 35.8398 0.0854487 35.7935 0.105469 35.7485C0.106445 35.7466 0.106934 35.7441 0.10791 35.7422L9.75879 14.0269L5.36621 9.63379C4.87793 9.14551 4.87793 8.35449 5.36621 7.86621C5.85449 7.37793 6.64551 7.37793 7.13379 7.86621L11.5742 12.3066L25.8252 7.2124C25.7764 6.89551 25.75 6.57422 25.75 6.25C25.75 2.80371 28.5537 0 32 0C35.4463 0 38.25 2.80371 38.25 6.25C38.25 6.57422 38.2236 6.89551 38.1748 7.2124L52.4258 12.3066L56.8662 7.86621C57.3545 7.37793 58.1455 7.37793 58.6338 7.86621C59.1221 8.35449 59.1221 9.14551 58.6338 9.63379L54.2407 14.0269L63.8921 35.7422C63.8931 35.7441 63.8936 35.7466 63.8945 35.7485C63.9146 35.7939 63.9316 35.8403 63.9463 35.8877C63.9473 35.8921 63.9482 35.896 63.9497 35.9004C63.9614 35.9414 63.9712 35.9829 63.979 36.0259C63.9814 36.04 63.9834 36.0542 63.9854 36.0688C63.9902 36.1011 63.9937 36.1338 63.9956 36.167ZM32 44C32.4209 44 32.8379 44.0312 33.25 44.0903V12.373C32.8398 12.4565 32.4214 12.5 32 12.5C31.5786 12.5 31.1602 12.4565 30.75 12.373V44.0903C31.1621 44.0312 31.5791 44 32 44ZM32 2.5C29.9321 2.5 28.25 4.18213 28.25 6.25C28.25 6.70361 28.3301 7.14648 28.4878 7.56689V7.56738C28.7915 8.37744 29.3735 9.06348 30.1265 9.49951C30.6934 9.82666 31.3413 10 32 10C32.6587 10 33.3066 9.82666 33.8755 9.49854C34.6265 9.06348 35.2085 8.37744 35.5122 7.56738C35.6699 7.14648 35.75 6.70361 35.75 6.25C35.75 4.18213 34.0679 2.5 32 2.5ZM17.4375 42.437C18.7915 41.0825 19.646 39.3623 19.9106 37.5H2.59082C3.19922 41.7344 6.84961 45 11.25 45C13.5864 45 15.7837 44.0898 17.4375 42.437ZM12.5 35H19.3267L11.25 16.8276L3.17334 35H10V31.25C10 30.5596 10.5596 30 11.25 30C11.9404 30 12.5 30.5596 12.5 31.25V35ZM48.1611 61.5C47.5527 57.2651 43.9004 54 39.5 54H24.5C20.0996 54 16.4473 57.2651 15.8389 61.5H48.1611ZM38.1255 51.5C37.8843 50.3076 37.2993 49.2104 36.4194 48.3301C35.7637 47.6738 34.9556 47.1636 34.083 46.8545C33.417 46.6191 32.7158 46.5 32 46.5C31.2847 46.5 30.5835 46.6191 29.916 46.855C29.0449 47.1636 28.2368 47.6738 27.5801 48.3301C26.7007 49.2109 26.1157 50.3076 25.875 51.5H38.1255ZM52.75 16.8276L44.6733 35H51.5V31.25C51.5 30.5596 52.0596 30 52.75 30C53.4404 30 54 30.5596 54 31.25V35H60.8267L52.75 16.8276ZM58.9375 42.437C60.2915 41.0825 61.146 39.3623 61.4106 37.5H44.0908C44.6992 41.7344 48.3496 45 52.75 45C55.0864 45 57.2837 44.0898 58.9375 42.437Z" fill="#0041F1"></path></svg> 