<?xml version="1.0" encoding="UTF-8"?> <svg xmlns="http://www.w3.org/2000/svg" width="53" height="64" viewBox="0 0 53 64" fill="none"><path d="M46.728 21.3252C50.458 25.9712 52.5 31.7583 52.5 37.75C52.5 52.2241 40.7241 64 26.25 64C11.7759 64 0 52.2241 0 37.75C0 31.7583 2.04199 25.9712 5.77197 21.3252L3.08105 18.6338C1.61914 17.1719 1.61914 14.793 3.08105 13.3311C4.54346 11.8691 6.92236 11.8691 8.38379 13.3311L11.2568 16.2041C14.2539 14.1167 17.6709 12.6714 21.25 11.9785V8.25H18.75C18.0596 8.25 17.5 7.69043 17.5 7V3.75C17.5 1.68213 19.1821 0 21.25 0H31.25C33.3179 0 35 1.68213 35 3.75V7C35 7.69043 34.4404 8.25 33.75 8.25H31.25V11.9785C34.8296 12.6719 38.2461 14.1167 41.2432 16.2041L44.1162 13.3311C45.5781 11.8691 47.957 11.8691 49.4189 13.3311C50.8809 14.7935 50.8809 17.1724 49.4189 18.6338L46.728 21.3252ZM45.8838 15.0986L43.2412 17.7417C43.876 18.2812 44.4863 18.8511 45.0684 19.4487L47.6514 16.8662C48.1382 16.3789 48.1382 15.5859 47.6514 15.0986C47.1641 14.6118 46.3716 14.6113 45.8838 15.0986ZM20 3.75V5.75H32.5V3.75C32.5 3.06055 31.9395 2.5 31.25 2.5H21.25C20.5605 2.5 20 3.06055 20 3.75ZM28.75 8.25H23.75V11.6182C25.4072 11.4629 27.0933 11.4629 28.75 11.6182V8.25ZM4.84863 15.0986C4.36182 15.5859 4.36182 16.3789 4.84863 16.8662L7.43164 19.4487C8.01367 18.8511 8.62402 18.2812 9.25879 17.7417L6.61621 15.0986C6.12891 14.6113 5.33594 14.6118 4.84863 15.0986ZM26.25 61.5C39.3457 61.5 50 50.8457 50 37.75C50 31.9731 47.9028 26.4072 44.0952 22.0767C43.0464 20.8838 41.876 19.7939 40.6172 18.8359C37.4609 16.4346 33.7256 14.854 29.814 14.2646C28.644 14.0894 27.4448 14 26.25 14C25.0552 14 23.856 14.0894 22.6855 14.2646C18.7744 14.854 15.0391 16.4346 11.8833 18.8359C10.624 19.7939 9.45361 20.8838 8.40479 22.0767C4.59717 26.4072 2.5 31.9731 2.5 37.75C2.5 50.8457 13.1543 61.5 26.25 61.5ZM26.25 41.5C24.1821 41.5 22.5 39.8179 22.5 37.75C22.5 36.1206 23.5449 34.731 25 34.2148V25.25C25 24.5596 25.5596 24 26.25 24C26.9404 24 27.5 24.5596 27.5 25.25V34.2148C28.9551 34.731 30 36.1206 30 37.75C30 39.8179 28.3179 41.5 26.25 41.5ZM26.25 36.5C25.5605 36.5 25 37.0605 25 37.75C25 38.4395 25.5605 39 26.25 39C26.9395 39 27.5 38.4395 27.5 37.75C27.5 37.0605 26.9395 36.5 26.25 36.5ZM39.5659 24.5625C43.0703 28.1001 45 32.7793 45 37.75C45 42.7212 43.0703 47.4009 39.5649 50.939C39.5454 50.9609 39.5264 50.9839 39.5049 51.0049C39.4834 51.0269 39.4604 51.0464 39.4375 51.0664C35.8999 54.5708 31.2207 56.5 26.25 56.5C21.2788 56.5 16.5996 54.5703 13.0615 51.0654C13.0391 51.0459 13.0166 51.0269 12.9951 51.0049C12.9731 50.9834 12.9536 50.9604 12.9341 50.9375C9.42969 47.3999 7.5 42.7207 7.5 37.75C7.5 32.7788 9.42969 28.0991 12.9351 24.561C12.9546 24.5386 12.9736 24.5161 12.9951 24.4946C13.019 24.4707 13.0444 24.4482 13.0703 24.4263C15.2729 22.2476 17.9937 20.6353 20.9468 19.7637C21.6099 19.5688 22.3042 19.9463 22.4995 20.6084C22.6948 21.2705 22.3169 21.9658 21.6548 22.1611C19.4663 22.8076 17.4248 23.9243 15.6846 25.4165L16.5278 26.2598C17.0156 26.748 17.0156 27.5396 16.5278 28.0278C16.2837 28.272 15.9639 28.394 15.6436 28.394C15.3237 28.394 15.0039 28.272 14.7598 28.0278L13.9146 27.1826C11.6528 29.8125 10.3096 33.0498 10.0479 36.5H11.25C11.9404 36.5 12.5 37.0596 12.5 37.75C12.5 38.4404 11.9404 39 11.25 39H10.0479C10.3096 42.4502 11.6528 45.6875 13.9146 48.3174L14.7598 47.4722C15.248 46.9844 16.0396 46.9844 16.5278 47.4722C17.0161 47.9604 17.0161 48.752 16.5278 49.2402L15.6826 50.0854C18.3125 52.3472 21.5498 53.6904 25 53.9521V52.75C25 52.0596 25.5596 51.5 26.25 51.5C26.9404 51.5 27.5 52.0596 27.5 52.75V53.9526C30.9502 53.6904 34.1875 52.3472 36.8174 50.0854L35.9722 49.2402C35.4839 48.752 35.4839 47.9604 35.9722 47.4722C36.4604 46.9844 37.252 46.9844 37.7402 47.4722L38.5854 48.3174C40.8472 45.6875 42.1904 42.4507 42.4521 39H41.25C40.5596 39 40 38.4404 40 37.75C40 37.0601 40.5596 36.5 41.25 36.5H42.4521C42.1904 33.0498 40.8472 29.8125 38.5854 27.1826L37.7402 28.0278C37.4961 28.272 37.1763 28.394 36.8564 28.394C36.5361 28.394 36.2163 28.272 35.9722 28.0278C35.4844 27.5396 35.4844 26.748 35.9722 26.2598L36.8154 25.4165C35.0752 23.9248 33.0337 22.8076 30.8452 22.1611C30.1831 21.9658 29.8052 21.2705 30.0005 20.6084C30.1958 19.9463 30.8906 19.5684 31.5532 19.7637C34.5068 20.6357 37.2285 22.2485 39.4316 24.4282C39.4565 24.4497 39.4814 24.4712 39.5049 24.4951C39.5269 24.5166 39.5464 24.5396 39.5659 24.5625ZM26.25 21.5C25.5601 21.5 25 20.9399 25 20.25C25 19.5601 25.5601 19 26.25 19C26.9399 19 27.5 19.5601 27.5 20.25C27.5 20.9399 26.9399 21.5 26.25 21.5Z" fill="#0041F1"></path></svg> 