<?xml version="1.0" encoding="UTF-8"?> <svg xmlns="http://www.w3.org/2000/svg" width="64" height="55" viewBox="0 0 64 55" fill="none"><path fill-rule="evenodd" clip-rule="evenodd" d="M31.9996 47.4996C32.69 47.4996 33.2496 48.0596 33.2496 48.7496C33.2496 49.4395 32.69 49.9996 31.9996 49.9996C31.3097 49.9996 30.7496 49.4395 30.7496 48.7496C30.7496 48.0596 31.3097 47.4996 31.9996 47.4996ZM58.8629 3.84229C62.4025 4.40967 64.0631 7.61378 63.9982 10.9111C63.8243 19.7344 60.2804 27.3086 55.2042 32.4751C55.1095 34.2398 54.2701 49.8814 54.1642 51.4952C54.1637 51.502 54.1632 51.5093 54.1627 51.5162C54.0275 53.4044 52.2003 54.9996 50.1725 54.9996H13.5777C11.6202 54.9996 9.9771 53.4693 9.83696 51.5162C9.83647 51.5093 9.83599 51.5025 9.83599 51.4952L8.72954 31.2632C3.91069 26.0064 0.101597 18.5962 0.0459329 11.4038C-0.0365871 10.9707 0.00784713 10.252 0.0566751 9.813C0.432164 6.45802 2.30229 4.29639 5.13726 3.8418C5.66167 1.6416 7.64214 0 10 0H53.9996C56.358 0 58.339 1.64209 58.8629 3.84229ZM10 2.5C8.71245 2.5 7.64995 3.47852 7.51519 4.73096C7.5562 4.91749 7.55327 5.09327 7.51567 5.26661C7.6519 6.54884 8.73247 7.50001 10 7.50001H17.0001C19.0679 7.50001 20.7501 9.18214 20.7501 11.25V18.75C20.7501 19.439 21.3106 20 22.0001 20C22.689 20 23.2501 19.439 23.2501 18.75V16.25C23.2501 14.1821 24.9322 12.5 27.0001 12.5C29.0675 12.5 30.7496 14.1821 30.7496 16.25V23.75C30.7496 24.439 31.3106 25 31.9996 25C32.689 25 33.2496 24.439 33.2496 23.75V18.75C33.2496 16.6822 34.9322 15 36.9996 15C39.0675 15 40.7496 16.6822 40.7496 18.75V21.25C40.7496 21.939 41.3106 22.5 41.9996 22.5C42.6891 22.5 43.2496 21.939 43.2496 21.25V11.25C43.2496 9.18214 44.9317 7.50001 46.9996 7.50001H53.9996C55.2911 7.50001 56.3575 6.51466 56.4864 5.25587C56.4503 5.0835 56.4513 4.91065 56.486 4.74219C56.3566 3.48389 55.2906 2.5 53.9996 2.5H10ZM42.546 36.7632C46.2521 36.0533 49.7613 34.2022 52.7609 31.3721L53.9293 10H46.9996C46.3106 10 45.7496 10.5606 45.7496 11.25V21.2495C45.7496 23.3174 44.0675 24.9995 41.9996 24.9995C39.9322 24.9995 38.2501 23.3174 38.2501 21.2495V18.7495C38.2501 18.0606 37.6891 17.4995 37.0001 17.4995C36.3106 17.4995 35.7501 18.0606 35.7501 18.7495V23.7495C35.7501 25.8174 34.0675 27.4995 32.0001 27.4995C29.9322 27.4995 28.2501 25.8174 28.2501 23.7495V16.2495C28.2501 15.5606 27.689 14.9995 27.0001 14.9995C26.3106 14.9995 25.7501 15.5606 25.7501 16.2495V18.7495C25.7501 20.8174 24.0679 22.4995 22.0001 22.4995C19.9322 22.4995 18.2501 20.8174 18.2501 18.7495V11.25C18.2501 10.5606 17.6895 10 17.0001 10H10.0704L11.1758 30.2168C14.438 33.586 18.0562 35.8663 21.4835 36.7222C22.3926 35.502 23.9932 34.9224 25.5572 35.3628C27.648 35.9512 29.8155 36.2496 32.0001 36.2496C34.1847 36.2496 36.3521 35.9512 38.4425 35.3628C40.0235 34.9161 41.6461 35.5167 42.546 36.7632ZM23.314 38.5503C23.0987 39.1866 23.4332 39.9556 24.0919 40.1441C26.6519 40.8775 29.3126 41.2496 31.9996 41.2496C34.6871 41.2496 37.3477 40.8775 39.9078 40.1441C40.4034 40.002 40.7496 39.5113 40.7496 38.9507C40.7496 38.0992 39.9381 37.5376 39.1212 37.7686C36.8087 38.42 34.4132 38.7496 31.9996 38.7496C29.586 38.7496 27.1905 38.42 24.8799 37.7691C24.1788 37.5718 23.5157 37.9473 23.314 38.5503ZM2.50199 10.9238C2.62748 11.3877 2.04936 18.5 8.50054 27.0806L7.5313 9.34962C6.38774 8.70265 5.55083 7.63038 5.19292 6.37599C4.55669 6.5337 4.03862 6.84181 3.62651 7.3086C2.58452 8.48829 2.47953 10.3945 2.50199 10.9238ZM50.172 52.4996C50.8824 52.4996 51.6202 51.9293 51.6686 51.3458L51.7423 49.9996H36.9996C36.3092 49.9996 35.7496 49.44 35.7496 48.7496C35.7496 48.0596 36.3092 47.4996 36.9996 47.4996H51.8785L52.5719 34.8208C49.7364 37.0171 46.5665 38.4991 43.2408 39.1734C43.1485 40.751 42.0885 42.1202 40.5963 42.5474C37.8121 43.3453 34.92 43.7496 31.9996 43.7496C29.0797 43.7496 26.1876 43.3453 23.4034 42.5474C21.8931 42.1148 20.8262 40.7173 20.7569 39.1163C17.6202 38.3052 14.3863 36.4869 11.3746 33.8536L12.1207 47.4996H27.3311C28.0216 47.4996 28.5811 48.0591 28.5811 48.7496C28.5811 49.44 28.0216 49.9996 27.3311 49.9996H12.2574L12.3311 51.3463C12.3819 51.9937 12.9278 52.4996 13.5777 52.4996H50.172ZM61.4977 10.9238C61.5201 10.3945 61.4147 8.48829 60.3732 7.3086C59.9611 6.84132 59.4425 6.53272 58.8058 6.3755C58.442 7.64259 57.5909 8.70558 56.4689 9.3462L55.4254 28.4283C61.9196 20.0611 61.3825 11.3496 61.4977 10.9238Z" fill="#0041F1"></path></svg> 