<?xml version="1.0" encoding="UTF-8"?> <svg xmlns="http://www.w3.org/2000/svg" width="64" height="64" viewBox="0 0 64 64" fill="none"><path fill-rule="evenodd" clip-rule="evenodd" d="M29.4115 43.4082C28.9232 43.8955 28.1322 43.8955 27.6434 43.4082C27.1561 42.9194 27.1561 42.1284 27.6434 41.6396C28.1322 41.1523 28.9232 41.1523 29.4115 41.6396C29.8993 42.1284 29.8993 42.9194 29.4115 43.4082ZM23.4935 13.7461C23.4935 6.1665 29.66 0 37.2396 0C44.8192 0 50.9857 6.1665 50.9857 13.7461C50.9857 21.3257 44.8192 27.4927 37.2396 27.4927C29.66 27.4927 23.4935 21.3257 23.4935 13.7461ZM48.4867 13.7461C48.4867 7.54492 43.4413 2.49951 37.2396 2.49951C31.038 2.49951 25.9926 7.54492 25.9926 13.7461C25.9926 19.9478 31.038 24.9932 37.2396 24.9932C43.4413 24.9932 48.4867 19.9478 48.4867 13.7461ZM14.3939 63.6304L0.362672 49.4922C-0.121703 49.0039 -0.120727 48.2163 0.364625 47.7295L6.30945 41.7671C7.21082 40.8657 8.46375 40.5063 9.65173 40.7314C12.4716 35.5205 17.726 32.7412 23.7435 32.7412C25.9144 32.7412 28.0184 33.1611 30.0013 33.9907H43.9364C45.4706 33.9907 46.8905 34.7051 47.8217 35.8511L55.1957 28.272C56.9794 26.2036 60.1151 25.9502 62.2084 27.7144C64.3148 29.4951 64.5809 32.6553 62.8021 34.7598C50.809 49.0938 51.5555 48.2144 51.4686 48.2988C49.3568 50.354 46.5712 51.4858 43.6239 51.4858H27.0111C26.0345 51.4858 25.1107 51.8594 24.4091 52.5371L23.1058 53.7939C23.5585 55.1187 23.2455 56.6426 22.2162 57.6719L16.1576 63.6406C15.6669 64.124 14.8783 64.1187 14.3939 63.6304ZM23.743 35.2402C18.4027 35.2402 14.1093 37.6816 11.8212 41.9741L21.6112 51.7637L22.6732 50.7388C23.8422 49.6094 25.3832 48.9868 27.0111 48.9868H43.6239C45.8954 48.9868 48.0443 48.1221 49.681 46.5508L60.8895 33.1514C61.7826 32.0942 61.6493 30.5142 60.5966 29.624C59.5448 28.7373 57.9637 28.8706 57.0731 29.9219C57.0302 29.9731 56.0243 31.0034 48.891 38.3359C48.9193 38.5518 48.9349 38.7695 48.9349 38.9893C48.9349 41.7456 46.6927 43.9878 43.9364 43.9878H33.7406C33.0507 43.9878 32.4911 43.4287 32.4911 42.7383C32.4911 42.0483 33.0507 41.4888 33.7406 41.4888H43.9364C45.3148 41.4888 46.4359 40.3677 46.4359 38.9893C46.4359 37.5952 45.2914 36.4902 43.9364 36.4902H29.7455C29.5731 36.4902 29.4027 36.4546 29.2445 36.3853C27.5077 35.6255 25.6571 35.2402 23.743 35.2402ZM8.078 43.5332L3.01209 48.6138L15.2909 60.9863L20.4559 55.8979C20.9218 55.4321 20.9486 54.6362 20.4491 54.1367C9.22058 42.9238 9.84168 43.4893 9.62537 43.3574C9.12293 43.0469 8.49011 43.1211 8.078 43.5332ZM35.7401 6.24854C35.7401 5.55811 36.2997 4.99854 36.9896 4.99854C37.6796 4.99854 38.2391 5.55811 38.2391 6.24854V7.7041C38.8104 7.89355 39.4452 8.24072 40.0795 8.85449C40.5751 9.33447 40.5883 10.1255 40.1083 10.6216C39.6283 11.1172 38.8373 11.1304 38.3412 10.6504C37.8998 10.2231 37.4325 9.99707 36.9896 9.99707C36.3007 9.99707 35.7401 10.5581 35.7401 11.2471C35.7401 11.936 36.3007 12.4966 36.9896 12.4966C39.057 12.4966 40.7386 14.1782 40.7386 16.2456C40.7386 17.8745 39.6937 19.2637 38.2391 19.7798V21.2441C38.2391 21.9346 37.6796 22.4937 36.9896 22.4937C36.2997 22.4937 35.7401 21.9346 35.7401 21.2441V19.7856C34.9076 19.5063 34.1219 18.9526 33.454 18.1582C33.0096 17.6299 33.078 16.8418 33.6063 16.3975C34.1346 15.9536 34.9227 16.0215 35.3671 16.5498C35.8793 17.1597 36.4559 17.4951 36.9896 17.4951C37.6786 17.4951 38.2391 16.9346 38.2391 16.2456C38.2391 15.5566 37.6786 14.9961 36.9896 14.9961C34.9222 14.9961 33.2406 13.314 33.2406 11.2471C33.2406 9.61768 34.2855 8.22852 35.7401 7.71289V6.24854Z" fill="#0041F1"></path></svg> 