<?xml version="1.0" encoding="UTF-8"?> <svg xmlns="http://www.w3.org/2000/svg" width="68" height="64" viewBox="0 0 68 64" fill="none"><path fill-rule="evenodd" clip-rule="evenodd" d="M46.2588 45.4697C46.9842 45.4697 47.573 46.0585 47.573 46.7839C47.573 47.5092 46.9842 48.098 46.2588 48.098C45.5329 48.098 44.9446 47.5092 44.9446 46.7839C44.9446 46.0585 45.5329 45.4697 46.2588 45.4697ZM34.9569 22.3409C34.9569 23.0662 34.3681 23.655 33.6428 23.655C32.9174 23.655 32.3286 23.0662 32.3286 22.3409C32.3286 21.615 32.9174 21.0267 33.6428 21.0267C34.3681 21.0267 34.9569 21.615 34.9569 22.3409ZM21.0268 48.098C20.3014 48.098 19.7126 47.5092 19.7126 46.7839C19.7126 46.0585 20.3014 45.4697 21.0268 45.4697C21.7521 45.4697 22.3409 46.0585 22.3409 46.7839C22.3409 47.5092 21.7521 48.098 21.0268 48.098ZM66.5047 54.3429C67.1679 54.6381 67.4667 55.4143 67.1721 56.0775C66.8805 56.7341 66.1079 57.0426 65.4374 56.7449L58.0776 53.4748L34.1623 63.7608C33.8266 63.905 33.44 63.8968 33.1238 63.7608L9.20798 53.4748L1.84812 56.7449C1.18025 57.0416 0.406122 56.7367 0.113514 56.0775C-0.181147 55.4143 0.117629 54.6381 0.780873 54.3429L7.88559 51.1863V22.3409C7.88559 21.7988 8.22286 21.3229 8.69257 21.1278L32.3286 10.962V1.31417C32.3286 0.588296 32.9169 0 33.6428 0C34.3681 0 34.9569 0.588296 34.9569 1.31417V10.962L58.593 21.1278C59.0884 21.3383 59.4 21.8203 59.4 22.3409V51.1863L66.5047 54.3429ZM32.3286 13.8234L12.5257 22.3409L33.6428 31.4235L54.7598 22.3409L34.9569 13.8234V17.0842C34.9569 17.8095 34.3681 18.3984 33.6428 18.3984C32.9169 18.3984 32.3286 17.8095 32.3286 17.0842V13.8234ZM17.4246 48.3855C17.7193 49.0488 17.4205 49.8255 16.7573 50.1206L12.48 52.021L32.3286 60.558V33.7192L10.5134 24.3362V50.0185L15.69 47.7182C16.3527 47.424 17.1294 47.7223 17.4246 48.3855ZM34.9569 60.558L54.8055 52.021L50.5283 50.1206C49.8651 49.8255 49.5663 49.0493 49.861 48.386C50.1556 47.7223 50.9318 47.424 51.5956 47.7187L56.7716 50.0185V24.3362L34.9569 33.7192V60.558Z" fill="#0041F1"></path></svg> 