<?xml version="1.0" encoding="UTF-8"?> <svg xmlns="http://www.w3.org/2000/svg" width="64" height="64" viewBox="0 0 64 64" fill="none"><path fill-rule="evenodd" clip-rule="evenodd" d="M7.8425 61.8662C8.075 62.0987 8.20875 62.4212 8.20875 62.75C8.20875 63.0788 8.07487 63.4012 7.8425 63.6336C7.61 63.8662 7.2875 64 6.95875 64C6.62887 64 6.3075 63.8661 6.075 63.6336C5.84125 63.4012 5.70875 63.0788 5.70875 62.75C5.70875 62.4212 5.84125 62.0987 6.075 61.8662C6.3075 61.6336 6.62875 61.5 6.95875 61.5C7.2875 61.5 7.61 61.6336 7.8425 61.8662ZM46.6336 53.0325C46.8662 53.265 47 53.5875 47 53.9162C47 54.2461 46.8661 54.5675 46.6336 54.7999C46.4012 55.0325 46.0788 55.1662 45.75 55.1662C45.4212 55.1662 45.0987 55.0324 44.8662 54.7999C44.6336 54.5675 44.5 54.2463 44.5 53.9162C44.5 53.5875 44.6338 53.2651 44.8662 53.0325C45.0987 52.7999 45.4212 52.6662 45.75 52.6662C46.0788 52.6662 46.4012 52.7999 46.6336 53.0325ZM59.9684 20.2025C62.3689 21.5209 64 24.0732 64 27V39.5V41.0209C64 44.9381 60.8131 48.125 56.8959 48.125H47V48.875C47 49.5653 46.4403 50.125 45.75 50.125C45.0597 50.125 44.5 49.5653 44.5 48.875V46.875C44.5 46.1847 45.0597 45.625 45.75 45.625H56.8959C59.4346 45.625 61.5 43.5596 61.5 41.0209V40.75H50.75H49.75H45.1562C43.2091 40.75 41.625 42.3341 41.625 44.2812V60.0625C41.625 60.8551 42.2699 61.5 43.0625 61.5C43.8551 61.5 44.5 60.8551 44.5 60.0625V58.625C44.5 57.9347 45.0597 57.375 45.75 57.375C46.4403 57.375 47 57.9347 47 58.625V60.0625C47 60.5698 46.9025 61.0544 46.7271 61.5H57.0416C57.7319 61.5 58.2916 62.0597 58.2916 62.75C58.2916 63.4403 57.7319 64 57.0416 64H12.3334C11.6431 64 11.0834 63.4403 11.0834 62.75C11.0834 62.0597 11.6431 61.5 12.3334 61.5H17.2729C17.0975 61.0544 17 60.5698 17 60.0625V48.125H7.10413C3.18688 48.125 0 44.9381 0 41.0209V39.5V27C0 24.0732 1.63112 21.5209 4.03162 20.2025C3.08575 19.2525 2.5 17.9434 2.5 16.5V15.5C2.5 12.6051 4.85512 10.25 7.75 10.25C10.6449 10.25 13 12.6051 13 15.5V16.5C13 17.9436 12.4141 19.2528 11.468 20.2029C13.5196 21.3295 15.0096 23.3571 15.3993 25.75H21.125C23.1927 25.75 24.875 27.4323 24.875 29.5C24.875 29.9382 24.7987 30.3587 24.66 30.75H39.34C39.2013 30.3587 39.125 29.9382 39.125 29.5C39.125 27.4323 40.8073 25.75 42.875 25.75H48.6007C48.9904 23.3571 50.4804 21.3296 52.532 20.2029C51.5859 19.2528 51 17.9436 51 16.5V15.5C51 12.6051 53.3551 10.25 56.25 10.25C59.1449 10.25 61.5 12.6051 61.5 15.5V16.5C61.5 17.9434 60.9142 19.2525 59.9684 20.2025ZM53.5 15.5V16.5C53.5 18.0164 54.7336 19.25 56.25 19.25C57.7664 19.25 59 18.0164 59 16.5V15.5C59 13.9836 57.7664 12.75 56.25 12.75C54.7336 12.75 53.5 13.9836 53.5 15.5ZM5 15.5V16.5C5 18.0164 6.23362 19.25 7.75 19.25C9.26637 19.25 10.5 18.0164 10.5 16.5V15.5C10.5 13.9836 9.26637 12.75 7.75 12.75C6.23362 12.75 5 13.9836 5 15.5ZM2.5 27V38.25H13V33.625C13 33.4804 13.0246 33.3413 13.0699 33.212C10.4681 32.9565 8.14962 31.4261 6.89825 29.0903C6.57225 28.4816 6.80125 27.724 7.40975 27.3981C8.01825 27.072 8.776 27.3011 9.10188 27.9096C10.0405 29.6616 11.8581 30.75 13.8456 30.75H21.125C21.8143 30.75 22.375 30.1893 22.375 29.5C22.375 28.8107 21.8143 28.25 21.125 28.25H14.25C13.5597 28.25 13 27.6903 13 27C13 24.1051 10.6449 21.75 7.75 21.75C4.85512 21.75 2.5 24.1051 2.5 27ZM17.9228 38.25C17.4958 37.514 17.25 36.6604 17.25 35.75C17.25 34.8396 17.4959 33.986 17.9228 33.25H15.4427C15.48 33.3684 15.5 33.4944 15.5 33.625V38.25H17.9228ZM22.375 60.0625V44.2812C22.375 42.3341 20.7909 40.75 18.8438 40.75H14.25H13.25H2.5V41.0209C2.5 43.5596 4.56538 45.625 7.10413 45.625H18.25C18.9403 45.625 19.5 46.1847 19.5 46.875V60.0625C19.5 60.8551 20.1449 61.5 20.9375 61.5C21.7301 61.5 22.375 60.8551 22.375 60.0625ZM28.25 61.5V40.75H23.7286C24.4489 41.7435 24.875 42.9632 24.875 44.2812V60.0625C24.875 60.5698 24.7776 61.0544 24.6021 61.5H28.25ZM33.25 61.5V40.75H30.75V61.5H33.25ZM39.3979 61.5C39.2225 61.0544 39.125 60.5698 39.125 60.0625V44.2812C39.125 42.9632 39.5513 41.7435 40.2714 40.75H35.75V61.5H39.3979ZM41.75 38.25C43.1285 38.25 44.25 37.1285 44.25 35.75C44.25 34.3715 43.1285 33.25 41.75 33.25H22.25C20.8715 33.25 19.75 34.3715 19.75 35.75C19.75 37.1285 20.8715 38.25 22.25 38.25H41.75ZM48.5 33.625C48.5 33.4944 48.52 33.3684 48.5573 33.25H46.0773C46.5042 33.986 46.75 34.8396 46.75 35.75C46.75 36.6604 46.5041 37.514 46.0773 38.25H48.5V33.625ZM61.5 38.25V27C61.5 24.1051 59.1449 21.75 56.25 21.75C53.3551 21.75 51 24.1051 51 27C51 27.6903 50.4403 28.25 49.75 28.25H42.875C42.1857 28.25 41.625 28.8107 41.625 29.5C41.625 30.1893 42.1857 30.75 42.875 30.75H50.1544C52.1419 30.75 53.9595 29.6616 54.8981 27.9096C55.2241 27.3014 55.9815 27.0721 56.5902 27.3981C57.1987 27.724 57.4277 28.4816 57.1017 29.0903C55.8504 31.4261 53.5319 32.9565 50.9301 33.212C50.9754 33.3413 51 33.4804 51 33.625V38.25H61.5ZM41 0C43.0677 0 44.75 1.68225 44.75 3.75V16C44.75 18.0677 43.0677 19.75 41 19.75H36.6429L32.8839 23.5089C32.6398 23.7529 32.32 23.875 32 23.875C31.68 23.875 31.3602 23.7529 31.116 23.5089L27.3571 19.75H23C20.9323 19.75 19.25 18.0677 19.25 16V3.75C19.25 1.68225 20.9323 0 23 0H41ZM42.25 16V3.75C42.25 3.06075 41.6893 2.5 41 2.5H23C22.3107 2.5 21.75 3.06075 21.75 3.75V16C21.75 16.6893 22.3107 17.25 23 17.25H27.875C28.2065 17.25 28.5244 17.3818 28.7589 17.616L32 20.8571L35.2411 17.6161C35.4756 17.3818 35.7935 17.25 36.125 17.25H41C41.6893 17.25 42.25 16.6893 42.25 16ZM27.0086 8.5125C27.2412 8.745 27.375 9.0675 27.375 9.39625C27.375 9.725 27.2411 10.0475 27.0086 10.28C26.7763 10.5125 26.4538 10.6462 26.125 10.6462C25.7962 10.6462 25.4737 10.5125 25.2412 10.28C25.0086 10.0475 24.875 9.725 24.875 9.39625C24.875 9.0675 25.0087 8.745 25.2412 8.5125C25.4737 8.27875 25.7962 8.14625 26.125 8.14625C26.4538 8.14625 26.7763 8.27875 27.0086 8.5125ZM32.8836 8.5125C33.1162 8.745 33.25 9.0675 33.25 9.39625C33.25 9.725 33.1161 10.0475 32.8836 10.28C32.6512 10.5125 32.3288 10.6462 32 10.6462C31.6712 10.6462 31.3487 10.5125 31.1162 10.28C30.8836 10.0475 30.75 9.725 30.75 9.39625C30.75 9.0675 30.8837 8.745 31.1162 8.5125C31.3487 8.28 31.6712 8.14625 32 8.14625C32.3288 8.14625 32.6512 8.28012 32.8836 8.5125ZM38.7586 8.5125C38.9912 8.745 39.125 9.0675 39.125 9.39625C39.125 9.725 38.9911 10.0475 38.7586 10.28C38.5262 10.5125 38.2038 10.6462 37.875 10.6462C37.5462 10.6462 37.2237 10.5125 36.9912 10.28C36.7586 10.0475 36.625 9.725 36.625 9.39625C36.625 9.0675 36.7588 8.745 36.9912 8.5125C37.2237 8.27875 37.5462 8.14625 37.875 8.14625C38.2038 8.14625 38.5262 8.27875 38.7586 8.5125Z" fill="#0041F1"></path></svg> 