<?xml version="1.0" encoding="UTF-8"?> <svg xmlns="http://www.w3.org/2000/svg" width="64" height="64" viewBox="0 0 64 64" fill="none"><path d="M57.1681 51.0045C61.0373 51.6369 64 55.0018 64 59.0469V62.75C64 63.4404 63.4403 64 62.75 64H1.25C0.55975 64 0 63.4404 0 62.75V59.0469C0 55.0018 2.96275 51.6369 6.83187 51.0045C6.14587 50.0565 5.74 48.8932 5.74 47.6362V43.5585C5.74 40.976 7.841 38.875 10.4235 38.875H16.01C16.7003 38.875 17.26 39.4346 17.26 40.125V47.6362C17.26 48.8925 16.8544 50.0552 16.1691 51.003C17.0233 51.1416 17.8455 51.4156 18.6125 51.8162C20.3491 49.2244 23.1946 47.4369 26.4648 47.1354C26.4775 47.1319 26.4905 47.1291 26.5034 47.126C25.3335 45.8196 24.6204 44.0961 24.6204 42.2086V36.6665C24.6204 33.4041 27.2745 30.75 30.5369 30.75H38.1296C38.8199 30.75 39.3796 31.3096 39.3796 32V42.2088C39.3796 44.0963 38.6665 45.8198 37.4966 47.1261C37.5095 47.1292 37.5225 47.1319 37.5353 47.1355C40.805 47.437 43.6504 49.2243 45.3871 51.8158C46.1539 51.415 46.976 51.1413 47.8305 51.0026C47.1454 50.0549 46.74 48.8924 46.74 47.6362V43.5585C46.74 40.976 48.841 38.875 51.4235 38.875H57.01C57.7002 38.875 58.26 39.4346 58.26 40.125V47.6362C58.26 48.8931 57.8541 50.0565 57.1681 51.0045ZM8.24 43.5585V44.2511H13.4064C14.1528 44.2511 14.76 43.6439 14.76 42.8974V41.375H10.4235C9.2195 41.375 8.24 42.3545 8.24 43.5585ZM8.24 46.751V47.6362C8.24 49.4338 9.70238 50.8963 11.5 50.8963C13.2976 50.8963 14.76 49.4338 14.76 47.6362V46.5049C14.3386 46.6636 13.8826 46.751 13.4064 46.751H8.24ZM12.3059 53.3963H10.6941L11.5 54.2021L12.3059 53.3963ZM16.819 57.717C16.819 56.4259 17.051 55.188 17.4745 54.0423C16.939 53.7605 16.3644 53.5679 15.7669 53.4706L12.3839 56.8537C12.1494 57.0881 11.8315 57.2199 11.5 57.2199C11.1685 57.2199 10.8506 57.0881 10.6161 56.8537L7.23413 53.4717C4.55288 53.911 2.5 56.2432 2.5 59.0469V61.5H16.819V57.717ZM32.0001 47.0884C34.6908 47.0884 36.8797 44.8994 36.8797 42.2088V39.9733C36.1994 40.345 35.4194 40.5566 34.591 40.5566H27.1205V42.2088C27.1205 44.8994 29.3095 47.0884 32.0001 47.0884ZM34.179 49.5882H29.821L32 51.7673L34.179 49.5882ZM27.1203 36.6665V38.0568H34.5909C35.8529 38.0568 36.8796 37.03 36.8796 35.768V33.25H30.5369C28.653 33.25 27.1204 34.7826 27.1204 36.6665H27.1203ZM44.6809 61.5V57.717C44.6809 53.6037 41.6091 50.1966 37.6396 49.6631L32.8839 54.4189C32.6398 54.663 32.3199 54.785 32 54.785C31.6801 54.785 31.3603 54.663 31.1161 54.4189L26.3604 49.6631C22.79 50.143 19.9462 52.9474 19.4105 56.5H27.4584C28.1486 56.5 28.7084 57.0596 28.7084 57.75C28.7084 58.4404 28.1486 59 27.4584 59H19.3191V61.5H21.75H42.25H44.6809ZM49.24 43.5585V44.2511H54.4064C55.1528 44.2511 55.76 43.6439 55.76 42.8974V41.375H51.4235C50.2195 41.375 49.24 42.3545 49.24 43.5585ZM49.24 46.751V47.6362C49.24 49.4338 50.7024 50.8963 52.5 50.8963C54.2976 50.8963 55.76 49.4338 55.76 47.6362V46.5049C55.3386 46.6636 54.8826 46.751 54.4064 46.751H49.24ZM53.3059 53.3963H51.6941L52.5 54.2021L53.3059 53.3963ZM47.1809 61.5H61.4999V59.0469C61.4999 56.2432 59.447 53.9111 56.7658 53.4717L53.3838 56.8537C53.1493 57.0881 52.8314 57.2199 52.4999 57.2199C52.1684 57.2199 51.8505 57.0881 51.616 56.8537L48.2326 53.4704C47.635 53.5675 47.0605 53.76 46.5252 54.042C46.9489 55.1879 47.1809 56.4258 47.1809 57.717V61.5ZM38.1605 8.16725C38.6486 8.65537 38.6486 9.44688 38.1605 9.935L31.1427 16.9527C30.9082 17.1871 30.5904 17.3189 30.2589 17.3189C29.9274 17.3189 29.6095 17.1871 29.375 16.9527L25.8395 13.4172C25.3514 12.929 25.3514 12.1375 25.8395 11.6494C26.3278 11.1613 27.119 11.1613 27.6073 11.6495L30.2589 14.3011L36.3926 8.16725C36.881 7.67912 37.6722 7.67912 38.1605 8.16725ZM37.111 1.084C41.636 3.102 44.5599 7.60663 44.5599 12.56C44.5599 19.4855 38.9255 25.1199 32 25.1199C25.0745 25.1199 19.4401 19.4855 19.4403 12.5599C19.4403 7.63212 22.343 3.137 26.8353 1.108C27.4639 0.823875 28.2048 1.1035 28.4889 1.73275C28.7731 2.36188 28.4934 3.10237 27.8643 3.3865C24.2655 5.01188 21.9401 8.61275 21.9401 12.56C21.9401 18.107 26.453 22.6199 32 22.6199C37.547 22.6199 42.0599 18.107 42.0599 12.56C42.0599 8.59225 39.7176 4.98387 36.0928 3.36725C35.4622 3.08612 35.179 2.347 35.4603 1.7165C35.7415 1.086 36.4806 0.802875 37.111 1.084ZM32.0448 0C32.7351 0.00325 33.2921 0.5655 33.2889 1.25587C33.2856 1.94425 32.7266 2.5 32.039 2.5C32.0369 2.5 32.035 2.5 32.033 2.5H32C31.3097 2.5 30.75 1.94037 30.75 1.25C30.75 0.559625 31.3097 0 32 0H32.0448ZM32.8836 56.8662C33.1162 57.0987 33.25 57.4212 33.25 57.75C33.25 58.0788 33.1161 58.4013 32.8836 58.6338C32.6512 58.8662 32.3288 59 32 59C31.6712 59 31.3489 58.8662 31.1162 58.6338C30.8836 58.4013 30.75 58.0788 30.75 57.75C30.75 57.4212 30.8837 57.0987 31.1162 56.8662C31.3487 56.6338 31.6712 56.5 32 56.5C32.3288 56.5 32.6512 56.6338 32.8836 56.8662Z" fill="#0041F1"></path></svg> 