<?xml version="1.0" encoding="UTF-8"?> <svg xmlns="http://www.w3.org/2000/svg" width="64" height="64" viewBox="0 0 64 64" fill="none"><path fill-rule="evenodd" clip-rule="evenodd" d="M9.87737 43.6237C10.11 43.8574 10.2437 44.1799 10.2437 44.5086C10.2437 44.8375 10.1099 45.1586 9.87737 45.3924C9.645 45.625 9.3225 45.7586 8.99375 45.7586C8.66488 45.7586 8.3425 45.625 8.11 45.3924C7.87737 45.1586 7.74375 44.8375 7.74375 44.5086C7.74375 44.1786 7.8775 43.8574 8.11 43.6237C8.3425 43.3913 8.66488 43.2586 8.99375 43.2586C9.3225 43.2586 9.645 43.3913 9.87737 43.6237ZM48.8355 29.8135C49.4086 30.1981 49.5614 30.9748 49.1766 31.548C48.7919 32.1213 48.0152 32.2739 47.4421 31.8891C45.513 30.5944 43.3174 29.8027 41.0201 29.5618L32.8836 37.6981C32.6395 37.9421 32.3196 38.0643 31.9998 38.0643C31.6799 38.0643 31.36 37.9421 31.1159 37.6981L22.9804 29.5626C16.9786 30.185 12.0036 34.4989 10.6129 40.4834C10.4788 41.0606 9.96475 41.4506 9.3965 41.4506C9.30275 41.4506 9.20775 41.44 9.1125 41.4179C8.44013 41.2616 8.02175 40.5899 8.178 39.9175C9.01938 36.2967 11.0869 33.0126 13.9995 30.6704C16.957 28.2919 20.6798 26.982 24.4823 26.982H25.1493C22.8541 25.0406 21.3931 22.1423 21.3931 18.9079V12.6178C20.6954 11.7218 20.2782 10.597 20.2782 9.37588V7.31488C20.2782 3.28137 23.5596 0 27.5931 0H42.1387C42.829 0 43.3887 0.55975 43.3887 1.25V7.5225C43.3887 8.739 43.0822 9.88488 42.5436 10.8884V18.908C42.5436 22.1425 41.0825 25.0407 38.7875 26.9821H39.5175C42.8538 26.9821 46.0759 27.9613 48.8355 29.8135ZM22.7784 9.37588C22.7784 10.913 24.0289 12.1635 25.5659 12.1635H36.2481C38.8071 12.1635 40.889 10.0816 40.889 7.52262V2.5H27.5933C24.9382 2.5 22.7784 4.66 22.7784 7.31488V9.37588ZM32 35.0464L37.5645 29.4819H32.0166C32.0005 29.482 31.9846 29.4831 31.9685 29.4831C31.9524 29.4831 31.9365 29.482 31.9204 29.4819H26.4356L32 35.0464ZM32.0166 26.982C36.4473 26.9559 40.0439 23.3445 40.0439 18.9079V13.5667C38.9435 14.2604 37.6423 14.6635 36.2481 14.6635H25.5659C24.9814 14.6635 24.4193 14.5667 23.8932 14.3907V18.9079C23.8932 23.3445 27.4897 26.9557 31.9204 26.982H32.0166ZM34.5 46.2774C36.8435 46.2774 38.75 48.1838 38.75 50.5272C38.75 52.8707 36.8435 54.7772 34.5 54.7772C32.5914 54.7772 30.9729 53.5126 30.4379 51.7772H17.527C16.992 53.5126 15.3735 54.7772 13.4649 54.7772C12.7473 54.7772 12.071 54.5979 11.4775 54.2825L8.00525 57.7549C8.3205 58.3484 8.5 59.0246 8.5 59.7422C8.5 62.0857 6.5935 63.9922 4.25 63.9922C1.9065 63.9922 0 62.0857 0 59.7422C0 57.3988 1.9065 55.4922 4.25 55.4922C4.96763 55.4922 5.64387 55.6716 6.23737 55.987L9.70963 52.5148C9.39437 51.9213 9.21488 51.245 9.21488 50.5274C9.21488 48.1839 11.1214 46.2774 13.4649 46.2774C15.3735 46.2774 16.992 47.542 17.527 49.2774H30.4379C30.9729 47.542 32.5914 46.2774 34.5 46.2774ZM4.25 61.4922C5.215 61.4922 6 60.7072 6 59.7422C6 58.7772 5.215 57.9922 4.25 57.9922C3.285 57.9922 2.5 58.7772 2.5 59.7422C2.5 60.7072 3.285 61.4922 4.25 61.4922ZM13.4649 52.2774C14.4298 52.2774 15.2149 51.4924 15.2149 50.5274C15.2149 49.5624 14.4299 48.7774 13.4649 48.7774C12.4999 48.7774 11.7149 49.5624 11.7149 50.5274C11.7149 51.4924 12.4999 52.2774 13.4649 52.2774ZM34.5 52.2774C35.465 52.2774 36.25 51.4924 36.25 50.5274C36.25 49.5624 35.465 48.7774 34.5 48.7774C33.535 48.7774 32.75 49.5624 32.75 50.5274C32.75 51.4924 33.535 52.2774 34.5 52.2774ZM41.0112 44.5163C41.2437 44.75 41.3763 45.0711 41.3763 45.4C41.3763 45.7288 41.2437 46.0513 41.0112 46.2836C40.7775 46.5174 40.4562 46.65 40.1275 46.65C39.7975 46.65 39.475 46.5174 39.2425 46.2836C39.01 46.0513 38.8763 45.7288 38.8763 45.4C38.8763 45.0711 39.0101 44.7487 39.2425 44.5163C39.475 44.2836 39.7975 44.15 40.1275 44.15C40.4561 44.15 40.7786 44.2838 41.0112 44.5163ZM62.75 21.5063C63.4403 21.5063 64 22.0659 64 22.7563V27.2425C64 27.9328 63.4403 28.4925 62.75 28.4925C62.0597 28.4925 61.5 27.9328 61.5 27.2425V25.7951L44.4287 42.8664C44.1846 43.1104 43.8647 43.2325 43.5449 43.2325C43.225 43.2325 42.9051 43.1104 42.661 42.8664C42.1729 42.3781 42.1729 41.5866 42.661 41.0985L59.7533 24.0063H58.2636C57.5734 24.0063 57.0136 23.4465 57.0136 22.7563C57.0136 22.066 57.5734 21.5063 58.2636 21.5063H62.75ZM29.4275 17.7625C29.6599 17.995 29.7938 18.3175 29.7938 18.6475C29.7938 18.9762 29.6599 19.2975 29.4275 19.5312C29.195 19.7636 28.8725 19.8962 28.5438 19.8962C28.2139 19.8962 27.8925 19.7636 27.66 19.5312C27.4264 19.2975 27.2938 18.9762 27.2938 18.6475C27.2938 18.3175 27.4264 17.995 27.66 17.7625C27.8925 17.53 28.2138 17.3962 28.5438 17.3962C28.8725 17.3962 29.195 17.5301 29.4275 17.7625ZM36.3049 17.7625C36.5375 17.995 36.6712 18.3175 36.6712 18.6475C36.6712 18.9762 36.5374 19.2987 36.3049 19.5312C36.0725 19.7636 35.75 19.8962 35.4212 19.8962C35.0925 19.8962 34.77 19.7636 34.5375 19.5312C34.3049 19.2987 34.1712 18.9762 34.1712 18.6475C34.1712 18.3175 34.305 17.995 34.5375 17.7625C34.77 17.53 35.0925 17.3962 35.4212 17.3962C35.75 17.3962 36.0725 17.5301 36.3049 17.7625ZM53 42C59.0654 42 64 46.9346 64 53C64 59.0654 59.0654 64 53 64C46.9346 64 42 59.0654 42 53C42 46.9346 46.9346 42 53 42ZM53 61.5C57.6869 61.5 61.5 57.6869 61.5 53C61.5 48.3131 57.6869 44.5 53 44.5C48.3131 44.5 44.5 48.3131 44.5 53C44.5 57.6869 48.3131 61.5 53 61.5ZM53.0003 51.8291C54.9661 51.8291 56.5656 53.3326 56.5656 55.1805C56.5656 56.6196 55.5954 57.8495 54.2376 58.3234C54.1555 58.9342 53.6335 59.4059 53.0001 59.4059C52.3668 59.4059 51.8448 58.9342 51.7626 58.3234C50.4049 57.8495 49.4346 56.6196 49.4346 55.1805C49.4346 54.4902 49.9944 53.9305 50.6846 53.9305C51.3749 53.9305 51.9346 54.4902 51.9346 55.1805C51.9346 55.642 52.4225 56.0319 53 56.0319C53.5775 56.0319 54.0654 55.642 54.0654 55.1805C54.0654 54.719 53.5775 54.3291 53 54.3291C51.0341 54.3291 49.4346 52.8256 49.4346 50.9776C49.4346 49.5415 50.4009 48.3139 51.7542 47.8379C51.7976 47.1869 52.338 46.6717 53 46.6717C53.662 46.6717 54.2024 47.1869 54.2458 47.8379C55.5991 48.3139 56.5654 49.5415 56.5654 50.9776C56.5654 51.6679 56.0056 52.2276 55.3154 52.2276C54.6251 52.2276 54.0654 51.6679 54.0654 50.9776C54.0654 50.5161 53.5775 50.1263 53 50.1263C52.4225 50.1263 51.9346 50.5161 51.9349 50.9776C51.9349 51.4393 52.4228 51.8291 53.0003 51.8291Z" fill="#0041F1"></path></svg> 