<?xml version="1.0" encoding="UTF-8"?> <svg xmlns="http://www.w3.org/2000/svg" width="65" height="66" viewBox="0 0 65 66" fill="none"><path d="M3.52417 49.418H6.09883C7.41471 51.9506 9.45472 54.2658 12.0431 56.1627V62.4897C12.0439 63.1552 12.3101 63.7933 12.7833 64.2638C13.2565 64.7344 13.8981 64.9991 14.5673 64.9999H20.8777C21.5469 64.9992 22.1885 64.7345 22.6617 64.2639C23.1349 63.7933 23.4011 63.1552 23.4019 62.4897V61.0009C23.4025 60.4186 23.6354 59.8603 24.0495 59.4485C24.4635 59.0367 25.025 58.8051 25.6105 58.8045H34.7244C35.31 58.8051 35.8714 59.0367 36.2854 59.4485C36.6995 59.8603 36.9324 60.4186 36.933 61.0009V62.4897C36.9338 63.1552 37.2 63.7933 37.6732 64.2638C38.1464 64.7344 38.788 64.9991 39.4572 64.9999H45.7676C46.4369 64.9992 47.0784 64.7345 47.5517 64.2639C48.0249 63.7933 48.291 63.1552 48.2918 62.4897V55.069C52.0202 51.8694 54.2105 47.8383 54.5549 43.5762H55.2333C55.5043 43.5765 55.7642 43.6837 55.9559 43.8743C56.1476 44.0649 56.2554 44.3233 56.2557 44.5928V45.5602C56.2565 46.3289 56.5639 47.0659 57.1105 47.6094C57.6571 48.153 58.3982 48.4588 59.1711 48.4596H62.0534C62.3045 48.4596 62.5452 48.3604 62.7228 48.1839C62.9003 48.0074 63 47.7679 63 47.5183C63 47.2686 62.9003 47.0292 62.7228 46.8527C62.5452 46.6761 62.3045 46.577 62.0534 46.577H59.1711C58.9001 46.5766 58.6402 46.4694 58.4486 46.2788C58.2569 46.0882 58.1491 45.8297 58.1489 45.5602V44.5938C58.148 43.8251 57.8406 43.0881 57.294 42.5446C56.7474 42.001 56.0063 41.6953 55.2333 41.6945H54.5795C54.0846 31.4557 45.5529 23.278 35.1415 23.278C34.5377 23.2749 29.9284 23.2516 28.188 23.2673C27.1174 21.4682 25.5967 19.9753 23.7738 18.9341C21.9509 17.8928 19.8879 17.3386 17.7857 17.3254C17.6344 17.3254 17.4853 17.3615 17.3509 17.4307C17.2165 17.4998 17.1007 17.6 17.0133 17.7228C16.9258 17.8457 16.8693 17.9875 16.8483 18.1366C16.8274 18.2856 16.8427 18.4375 16.893 18.5794L17.1097 19.1913C17.8663 21.3225 17.8454 23.6503 17.0507 25.7678C13.1383 27.4606 9.91364 29.9039 7.67675 32.8677H3.52417C2.85496 32.8684 2.21339 33.1332 1.74019 33.6037C1.26699 34.0743 1.00079 34.7123 1 35.3778V46.9074C1.00067 47.5729 1.26681 48.2111 1.74002 48.6818C2.21324 49.1524 2.85488 49.4172 3.52417 49.418ZM2.89313 35.3783C2.89313 35.2119 2.95961 35.0522 3.07796 34.9346C3.1963 34.8169 3.35681 34.7508 3.52417 34.7508H8.15761C8.30872 34.7508 8.45763 34.7148 8.5919 34.6458C8.72616 34.5769 8.84188 34.477 8.92937 34.3545C11.0355 31.405 14.2243 28.9821 18.1511 27.3481C18.3808 27.2525 18.5634 27.0708 18.6593 26.8423C19.665 24.4507 19.8297 21.7916 19.1267 19.2953C21.3236 19.5832 23.3627 20.5865 24.9255 22.1486C25.6761 22.8766 26.3046 23.7194 26.7871 24.6451C26.8704 24.8087 27.0001 24.9445 27.1601 25.0357C27.32 25.127 27.5034 25.1697 27.6875 25.1586C28.1117 25.1333 32.3715 25.1457 35.1361 25.1603C39.772 25.1653 44.2186 26.9899 47.5091 30.2373C50.7997 33.4848 52.6683 37.8926 52.7086 42.5026C52.6716 46.7188 50.5557 50.765 46.7413 53.9082C46.6341 53.9966 46.5478 54.1073 46.4886 54.2326C46.4294 54.3579 46.3987 54.4946 46.3987 54.633V62.4899C46.3987 62.6563 46.3322 62.8159 46.2138 62.9336C46.0955 63.0513 45.935 63.1174 45.7676 63.1174H39.4572C39.2898 63.1174 39.1293 63.0513 39.011 62.9336C38.8926 62.8159 38.8262 62.6563 38.8262 62.4899V61.001C38.8249 59.9196 38.3923 58.8828 37.6234 58.1181C36.8544 57.3534 35.8118 56.9233 34.7244 56.922H25.6107C24.5232 56.9233 23.4806 57.3534 22.7117 58.1181C21.9427 58.8828 21.5102 59.9196 21.5089 61.001V62.4899C21.5089 62.6563 21.4424 62.8159 21.3241 62.9336C21.2057 63.0513 21.0452 63.1174 20.8779 63.1174H14.5674C14.4001 63.1174 14.2396 63.0513 14.1212 62.9336C14.0029 62.8159 13.9364 62.6563 13.9364 62.4899V55.681C13.9363 55.5303 13.8998 55.3818 13.83 55.2481C13.7602 55.1143 13.6591 54.9991 13.5352 54.9123C10.8365 53.0206 8.76467 50.6568 7.54376 48.0766C7.46727 47.915 7.34613 47.7784 7.19447 47.6827C7.04281 47.587 6.86689 47.5362 6.68728 47.5362H3.52417C3.35681 47.5362 3.1963 47.47 3.07796 47.3524C2.95961 47.2347 2.89313 47.0751 2.89313 46.9086V35.3783Z" fill="#003BFF" stroke="#003BFF" stroke-width="0.6"></path><path d="M15.1021 41.1039C16.0641 41.1028 16.9864 40.7223 17.6667 40.0458C18.3469 39.3694 18.7295 38.4522 18.7306 37.4955C18.7306 37.2459 18.6309 37.0064 18.4534 36.8299C18.2759 36.6534 18.0351 36.5542 17.7841 36.5542C17.533 36.5542 17.2923 36.6534 17.1147 36.8299C16.9372 37.0064 16.8375 37.2459 16.8375 37.4955C16.8375 37.9532 16.6547 38.3922 16.3292 38.7158C16.0038 39.0394 15.5624 39.2213 15.1021 39.2213C14.6419 39.2213 14.2005 39.0394 13.875 38.7158C13.5496 38.3922 13.3668 37.9532 13.3668 37.4955C13.3668 37.2459 13.267 37.0064 13.0895 36.8299C12.912 36.6534 12.6712 36.5542 12.4202 36.5542C12.1692 36.5542 11.9284 36.6534 11.7509 36.8299C11.5734 37.0064 11.4736 37.2459 11.4736 37.4955C11.4747 38.4522 11.8574 39.3694 12.5376 40.0458C13.2178 40.7223 14.1401 41.1028 15.1021 41.1039Z" fill="#003BFF" stroke="#003BFF" stroke-width="0.6"></path><path d="M30.4222 31.2405H38.8381C39.0891 31.2405 39.3299 31.1414 39.5074 30.9648C39.6849 30.7883 39.7846 30.5489 39.7846 30.2992C39.7846 30.0496 39.6849 29.8101 39.5074 29.6336C39.3299 29.4571 39.0891 29.3579 38.8381 29.3579H30.4222C30.1711 29.3579 29.9303 29.4571 29.7528 29.6336C29.5753 29.8101 29.4756 30.0496 29.4756 30.2992C29.4756 30.5489 29.5753 30.7883 29.7528 30.9648C29.9303 31.1414 30.1711 31.2405 30.4222 31.2405Z" fill="#003BFF" stroke="#003BFF" stroke-width="0.6"></path><path d="M35.1554 21.7089C37.2147 21.7089 39.2278 21.1017 40.9401 19.9639C42.6524 18.8261 43.9869 17.209 44.775 15.317C45.5631 13.4249 45.7693 11.343 45.3675 9.33441C44.9658 7.32584 43.9741 5.48086 42.5179 4.03276C41.0617 2.58466 39.2065 1.59849 37.1867 1.19896C35.1669 0.799433 33.0734 1.00449 31.1708 1.78819C29.2682 2.5719 27.642 3.89905 26.4979 5.60184C25.3538 7.30462 24.7432 9.30655 24.7432 11.3545C24.7463 14.0997 25.8443 16.7316 27.7963 18.6727C29.7483 20.6139 32.3948 21.7058 35.1554 21.7089ZM35.1554 2.88263C36.8403 2.88263 38.4874 3.3795 39.8883 4.3104C41.2893 5.24129 42.3812 6.56441 43.026 8.11244C43.6708 9.66047 43.8395 11.3639 43.5108 13.0072C43.1821 14.6506 42.3707 16.1602 41.1793 17.345C39.9879 18.5298 38.4699 19.3366 36.8174 19.6635C35.1648 19.9904 33.4519 19.8226 31.8953 19.1814C30.3386 18.5402 29.0081 17.4544 28.072 16.0612C27.1359 14.668 26.6363 13.03 26.6363 11.3545C26.6388 9.10838 27.5372 6.955 29.1343 5.36678C30.7314 3.77855 32.8968 2.88517 35.1554 2.88263Z" fill="#003BFF" stroke="#003BFF" stroke-width="0.6"></path><path d="M31.7157 12.5003C31.6448 12.7354 31.6094 12.9816 31.6094 13.2389C31.6094 14.1437 31.9141 14.8312 32.5235 15.3014C33.1329 15.7671 34.0044 16 35.1382 16C36.3711 16 37.4317 15.796 38.3198 15.3879V13.6713C37.238 14.0883 36.2223 14.2967 35.2728 14.2967C34.7673 14.2967 34.3894 14.2036 34.1391 14.0173C33.8887 13.831 33.7635 13.5715 33.7635 13.2389C33.7635 12.9461 33.8556 12.6999 34.0399 12.5003C34.4137 12.2949 35.3281 11.8063 35.9956 11.4957C36.3074 11.367 36.605 11.2273 36.8884 11.0765C37.1766 10.9257 37.4293 10.7372 37.6466 10.511C37.8096 10.2907 38.1596 9.78138 38.256 9.50632C38.3363 9.25349 38.3764 8.98071 38.3764 8.68796C38.3764 7.83189 38.0836 7.17099 37.4978 6.70526C36.9167 6.23509 36.1113 6 35.0815 6C33.9477 6 32.8447 6.22843 31.7724 6.6853L32.4243 8.28876C32.9817 8.07585 33.4446 7.92726 33.8131 7.84298C34.1863 7.7587 34.55 7.71657 34.9043 7.71657C35.3342 7.71657 35.6625 7.79862 35.8893 7.96274C36.116 8.12242 36.2294 8.35085 36.2294 8.64804C36.2294 8.99401 36.1042 9.28011 35.8539 9.50632C35.3369 9.91138 34.2024 10.3449 33.6997 10.511C33.0762 10.7993 32.5991 11.1275 32.2684 11.4957L31.7157 12.5003Z" fill="#003BFF"></path><path d="M31 11H39V12H31V11Z" fill="#003BFF"></path><path d="M31 9H39V10H31V9Z" fill="#003BFF"></path></svg> 