<?xml version="1.0" encoding="UTF-8"?> <svg xmlns="http://www.w3.org/2000/svg" width="66" height="66" viewBox="0 0 66 66" fill="none"><path d="M54.3333 33C54.9224 33 55.4 32.5224 55.4 31.9334V17H63.9333C64.5223 17 64.9999 16.5224 64.9999 15.9334V11.6667C64.9945 11.6271 64.9866 11.588 64.9765 11.5494C64.9697 11.4722 64.9543 11.3959 64.9306 11.3222C64.9109 11.2679 64.8866 11.2155 64.8581 11.1654C64.7619 10.9835 64.6133 10.8348 64.4314 10.7387C64.3779 10.7088 64.3219 10.6839 64.2639 10.664C64.233 10.6534 64.2085 10.6331 64.1765 10.6256L23.6432 1.02565C23.5634 1.00778 23.4818 0.999251 23.4 1.00005H19.1333C19.0072 1.00285 18.8825 1.02805 18.7653 1.07472C18.7365 1.08538 18.7099 1.09498 18.6821 1.10778C18.6544 1.12058 18.6331 1.12378 18.6096 1.13658L1.54293 10.7366C1.49027 10.7718 1.44107 10.8118 1.39573 10.856C1.36067 10.881 1.3272 10.908 1.29547 10.9371C1.20613 11.028 1.134 11.1343 1.08213 11.2507V11.2635C1.0356 11.3807 1.01027 11.5054 1.00747 11.6315C1.00747 11.6444 1 11.655 1 11.6678V15.9344C1 16.5235 1.4776 17.0011 2.06667 17.0011H17V36.8251L13.0459 40.7792C12.8459 40.9792 12.7333 41.2504 12.7333 41.5334V58.6H10.6V65H31.9333V58.6H29.8V41.5334C29.8 41.2504 29.6874 40.9792 29.4874 40.7792L25.5333 36.8251V17H46.8666V31.9334C46.8666 32.5224 47.3442 33 47.9333 33H50.0666V36.2C50.0666 36.7891 50.5442 37.2667 51.1333 37.2667C52.3116 37.2667 53.2666 38.2218 53.2666 39.4C53.2666 40.5783 52.3116 41.5334 51.1333 41.5334C49.955 41.5334 49 40.5783 49 39.4V38.3334H46.8666V39.4C46.8721 40.9572 47.7281 42.3868 49.0981 43.1269L41.0917 51.1333H38.3333C37.7442 51.1333 37.2666 51.6109 37.2666 52.2V61.8C37.2666 62.3891 37.7442 62.8667 38.3333 62.8667H63.9333C64.5223 62.8667 64.9999 62.3891 64.9999 61.8V52.2C64.9999 51.6109 64.5223 51.1333 63.9333 51.1333H61.1749L53.1685 43.1269C55.2345 42.0134 56.0065 39.4359 54.893 37.3699C54.3289 36.3234 53.3522 35.561 52.2 35.2678V33H54.3333ZM55.4 12.7334H62.8666V14.8667H55.4V12.7334ZM62.8666 53.2667V60.7333H39.4V53.2667H62.8666ZM58.1584 51.1333H44.1082L51.1333 44.1084L58.1584 51.1333ZM53.2666 26.6H49V17H53.2666V26.6ZM53.2666 14.8667H49V12.7334H53.2666V14.8667ZM20.2 3.13338H22.3333V10.6H20.2V3.13338ZM19.1333 12.7334H23.4V14.4251L22.9584 14.8667H19.1333V12.7334ZM23.4 17.4416V25.0918L19.5749 21.2667L23.4 17.4416ZM19.1333 17H20.8251L19.1333 18.6918V17ZM19.1333 23.8418L22.9584 27.6667L19.1333 31.4918V23.8418ZM23.4 30.2418V37.2667V37.8918L19.5749 34.0667L23.4 30.2418ZM19.1333 37.2667V36.6416L22.9584 40.4667L19.1333 44.2917V37.2667ZM23.4 43.0417V50.6919L19.5749 46.8667L23.4 43.0417ZM19.1333 49.4417L22.9584 53.2667L19.1333 57.0917V49.4417ZM23.4 55.8417V58.6H20.6416L23.4 55.8417ZM18.0667 3.89072V10.6H6.13813L18.0667 3.89072ZM3.13333 14.8667V12.7334H17V14.8667H3.13333ZM14.8667 41.9751L17 39.8418V58.6H14.8667V41.9751ZM29.8 60.7333V62.8667H12.7333V60.7333H29.8ZM27.6666 41.9751V58.6H25.5333V39.8418L27.6666 41.9751ZM46.8666 14.8667H25.5333V12.7334H46.8666V14.8667ZM24.4666 10.6V3.41498L54.8016 10.6H54.3333H24.4666ZM49 30.8667V28.7334H53.2666V30.8667H49Z" fill="#003BFF" stroke="#003BFF" stroke-width="0.4"></path></svg> 