<?xml version="1.0" encoding="UTF-8"?> <svg xmlns="http://www.w3.org/2000/svg" width="64" height="58" viewBox="0 0 64 58" fill="none"><path d="M25.7301 6.22334C20.1389 0.646653 9.19766 0 1.45307 0C0.651001 0 0 0.649507 0 1.44991C0 9.17834 0.645144 20.0968 6.23634 25.6765C8.5961 28.0313 12.2141 29.084 15.8002 29.084C19.6972 29.084 23.5593 27.8399 25.7301 25.6736C29.8946 21.5179 30.6589 11.1388 25.7301 6.22334ZM23.6757 23.6261C20.5661 26.7262 11.9323 27.2569 8.29397 23.6261C3.78082 19.1225 2.99905 9.97303 2.91473 2.90865C9.99387 2.99279 19.1625 3.7728 23.6755 8.27653C27.314 11.9073 26.7822 20.5261 23.6757 23.6261Z" fill="#003BFF"></path><path d="M62.5466 5.73633C54.802 5.73633 43.8607 6.38013 38.2694 11.9597C33.3408 16.8751 34.105 27.2542 38.2694 31.41C40.4402 33.5734 44.2995 34.8175 48.1965 34.8175C51.7826 34.8175 55.3977 33.7676 57.7632 31.4129C63.3515 25.8334 63.9996 14.9149 63.9996 7.18637C63.9997 6.38597 63.3487 5.73633 62.5466 5.73633ZM55.7029 29.3596C52.0645 32.9904 43.4277 32.4597 40.3212 29.3596C37.2146 26.2596 36.6828 17.6407 40.3212 14.01C44.8343 9.50627 54.0028 8.72626 61.082 8.64212C60.9978 15.7094 60.216 24.8589 55.7029 29.3596Z" fill="#003BFF"></path><path d="M52.0528 18.2875C51.7099 17.5596 50.7277 17.3103 50.0041 17.6466C38.8594 22.8753 33.3844 31.9929 30.8967 41.3656C27.8192 21.4368 18.918 15.3614 15.143 12.7833C14.6722 12.4614 14.3061 12.2265 14.1027 12.0264C13.536 11.4609 12.6147 11.4609 12.0481 12.0264C11.4814 12.5919 11.4814 13.5113 12.0481 14.0768C12.3358 14.361 12.8327 14.7177 13.504 15.1758C17.7585 18.0787 29.06 25.7956 29.06 56.55C29.06 57.3504 29.711 58.0001 30.5131 58.0001C31.3152 58.0001 31.9662 57.3504 31.9662 56.553C31.9662 44.1266 35.3111 27.7446 51.242 20.2741C51.242 20.2713 51.4774 20.161 51.4774 20.161C52.201 19.8187 52.3957 19.0125 52.0528 18.2875Z" fill="#003BFF"></path></svg> 