<svg width="386" height="430" viewBox="0 0 386 430" fill="none" xmlns="http://www.w3.org/2000/svg">
<path fill-rule="evenodd" clip-rule="evenodd" d="M149.796 191.6L169.763 180.073L149.796 168.545L129.831 180.073L109.864 191.6L129.831 203.128V203.127L149.796 214.655L169.763 203.127L149.796 191.6Z" fill="#D4ECFF"/>
<path fill-rule="evenodd" clip-rule="evenodd" d="M149.797 162.886V78.3506L169.764 66.8237V151.359L149.797 162.886Z" fill="#173D7A"/>
<path fill-rule="evenodd" clip-rule="evenodd" d="M149.797 78.3511L129.831 66.823V151.358L149.797 162.886V78.3511Z" fill="#396CAA"/>
<path fill-rule="evenodd" clip-rule="evenodd" d="M169.763 66.8232L149.797 55.2963L129.831 66.8232L149.797 78.3513L169.763 66.8232Z" fill="#D4ECFF"/>
<path fill-rule="evenodd" clip-rule="evenodd" d="M169.764 166.729L149.797 155.201V162.886L169.764 174.413V166.729Z" fill="#95D359"/>
<path fill-rule="evenodd" clip-rule="evenodd" d="M129.831 174.414V112.933L149.797 101.407V162.886L129.831 174.414Z" fill="#C13D1A"/>
<path fill-rule="evenodd" clip-rule="evenodd" d="M129.831 112.934L109.864 101.407V162.886L129.831 174.414V112.934Z" fill="#DB5126"/>
<path fill-rule="evenodd" clip-rule="evenodd" d="M149.796 101.406L129.831 89.8782L109.864 101.406L129.831 112.933L149.796 101.406Z" fill="#EF602E"/>
<path fill-rule="evenodd" clip-rule="evenodd" d="M129.831 174.414V112.933L149.797 101.407V162.886L129.831 174.414Z" fill="#396CAA"/>
<path fill-rule="evenodd" clip-rule="evenodd" d="M129.831 112.934L109.864 101.407V162.886L129.831 174.414V112.934Z" fill="#5793CE"/>
<path fill-rule="evenodd" clip-rule="evenodd" d="M149.796 101.406L129.831 89.8782L109.864 101.406L129.831 112.933L149.796 101.406Z" fill="#D4ECFF"/>
<path fill-rule="evenodd" clip-rule="evenodd" d="M149.797 185.941V151.359L169.764 139.831V174.414L149.797 185.941Z" fill="#173D7A"/>
<path fill-rule="evenodd" clip-rule="evenodd" d="M149.797 151.359L129.831 139.832V174.414L149.797 185.941V151.359Z" fill="#396CAA"/>
<path fill-rule="evenodd" clip-rule="evenodd" d="M169.763 139.831L149.797 128.303L129.831 139.831L149.797 151.358L169.763 139.831Z" fill="#D4ECFF"/>
<path fill-rule="evenodd" clip-rule="evenodd" d="M233.662 401.156L82.8744 314.099C78.6081 311.636 79.1429 307.333 84.0693 304.489L186.744 245.23C191.67 242.386 199.12 242.077 203.386 244.54L354.176 331.597C358.442 334.061 357.906 338.362 352.981 341.207L250.305 400.466C245.379 403.31 237.929 403.619 233.662 401.156Z" fill="#D4ECFF"/>
<path fill-rule="evenodd" clip-rule="evenodd" d="M359.753 160.346L206.477 71.926C204.503 70.7877 202.69 70.6119 201.229 71.2202L201.236 71.2021L200.984 71.3189C200.964 71.3286 200.942 71.337 200.923 71.3466L195.933 73.6954L201.35 76.3922C201.348 76.4934 201.34 76.5873 201.34 76.6909L201.387 202.583C201.389 208.884 205.287 216.24 210.095 219.014L359.283 305.075L360.131 312.097L365.58 309.499C367.374 308.444 368.511 306.063 368.51 302.667L368.463 176.775C368.46 170.474 364.56 163.12 359.753 160.346Z" fill="#173D7A"/>
<path fill-rule="evenodd" clip-rule="evenodd" d="M359.753 160.346L206.477 71.926C204.503 70.7877 202.69 70.6119 201.229 71.2202L201.236 71.2021L200.984 71.3189C200.964 71.3286 200.942 71.337 200.923 71.3466L195.933 73.6954L201.35 76.3922C201.348 76.4934 201.34 76.5873 201.34 76.6909L201.37 159.663L271.126 214.778L365.839 167.113C364.269 164.194 362.123 161.713 359.753 160.346Z" fill="#396CAA"/>
<path fill-rule="evenodd" clip-rule="evenodd" d="M362.314 162.327L347.293 168.645L358.634 177.383L368.105 173.351C367.281 169.212 365.098 165.052 362.314 162.327Z" fill="#274F89"/>
<path fill-rule="evenodd" clip-rule="evenodd" d="M354.763 311.431L201.486 223.01C196.679 220.237 192.78 212.881 192.777 206.582L192.73 80.6893C192.728 74.3887 196.623 71.5292 201.43 74.302L354.708 162.723C359.515 165.496 363.415 172.851 363.418 179.152L363.465 305.045C363.467 311.345 359.57 314.205 354.763 311.431Z" fill="#D4ECFF"/>
<path fill-rule="evenodd" clip-rule="evenodd" d="M349.664 302.067L206.51 219.526C202.111 216.988 198.543 210.257 198.541 204.492L198.498 89.2901C198.496 83.5254 202.061 80.9081 206.46 83.4459L349.614 165.987C354.012 168.523 357.58 175.255 357.582 181.02L357.626 296.221C357.627 301.988 354.063 304.603 349.664 302.067Z" fill="white"/>
<path fill-rule="evenodd" clip-rule="evenodd" d="M349.664 302.067L206.51 219.526C202.111 216.988 198.543 210.257 198.541 204.492L198.498 89.2901C198.496 83.5254 202.061 80.9081 206.46 83.4459L349.614 165.987C354.012 168.523 357.58 175.255 357.582 181.02L357.626 296.221C357.627 301.988 354.063 304.603 349.664 302.067Z" fill="white"/>
<path fill-rule="evenodd" clip-rule="evenodd" d="M357.051 315.341L336.44 312.618L203.387 235.8C199.121 233.338 191.67 233.647 186.744 236.49L92.464 290.904L80 289.259V296.33L80.012 296.331C79.9313 297.966 80.8612 299.538 82.8739 300.7L233.663 387.758C237.929 390.221 245.379 389.911 250.305 387.067L352.98 327.808C355.752 326.207 357.132 324.148 357.051 322.211V315.341Z" fill="#173D7A"/>
<path fill-rule="evenodd" clip-rule="evenodd" d="M257.081 266.8L247.627 261.343H143.699L92.464 290.904L80 289.259V296.33L80.012 296.332C79.9313 297.966 80.8612 299.538 82.8739 300.7L233.663 387.758C235.918 389.059 239.061 389.579 242.251 389.367L257.081 266.8Z" fill="#396CAA"/>
<path fill-rule="evenodd" clip-rule="evenodd" d="M85.531 289.989L80 289.259V296.33L80.012 296.332C79.9313 297.966 80.8612 299.538 82.8739 300.7L85.531 302.233V289.989Z" fill="#5793CE"/>
<path fill-rule="evenodd" clip-rule="evenodd" d="M235.181 388.463C239.223 389.996 245.004 389.663 249.321 387.585V371.812H235.181V388.463Z" fill="#274F89"/>
<path fill-rule="evenodd" clip-rule="evenodd" d="M233.662 380.694L82.8744 293.637C78.6081 291.174 79.1429 286.871 84.0693 284.027L186.744 224.768C191.67 221.924 199.12 221.615 203.386 224.078L354.176 311.135C358.442 313.599 357.906 317.9 352.981 320.745L250.305 380.005C245.379 382.848 237.929 383.157 233.662 380.694Z" fill="#D4ECFF"/>
<path fill-rule="evenodd" clip-rule="evenodd" d="M352.98 318.161L250.306 377.421C245.379 380.266 237.928 380.574 233.662 378.111L82.8742 291.053C81.4758 290.246 80.6025 289.239 80.2219 288.153C79.5546 290.17 80.405 292.211 82.8742 293.637L233.662 380.694C237.928 383.157 245.379 382.848 250.306 380.005L352.98 320.745C356.292 318.833 357.609 316.264 356.828 314.036C356.342 315.507 355.057 316.964 352.98 318.161Z" fill="white"/>
<path fill-rule="evenodd" clip-rule="evenodd" d="M147.007 264.815L140.184 260.875C139.637 260.56 139.705 260.008 140.338 259.641L148.39 254.993C149.023 254.627 149.98 254.587 150.528 254.903L157.35 258.843C157.898 259.16 157.829 259.712 157.197 260.076L149.144 264.727C148.511 265.09 147.554 265.131 147.007 264.815Z" fill="#173D7A"/>
<path fill-rule="evenodd" clip-rule="evenodd" d="M157.543 270.898L150.721 266.958C150.173 266.643 150.241 266.09 150.874 265.725L158.927 261.076C159.559 260.711 160.517 260.671 161.065 260.987L167.887 264.926C168.434 265.243 168.365 265.795 167.733 266.16L159.68 270.809C159.047 271.174 158.091 271.215 157.543 270.898Z" fill="#173D7A"/>
<path fill-rule="evenodd" clip-rule="evenodd" d="M168.078 276.981L161.256 273.042C160.708 272.726 160.776 272.174 161.41 271.807L169.462 267.159C170.095 266.793 171.052 266.755 171.6 267.069L178.422 271.009C178.97 271.326 178.9 271.878 178.269 272.242L170.215 276.893C169.583 277.258 168.626 277.297 168.078 276.981Z" fill="#173D7A"/>
<path fill-rule="evenodd" clip-rule="evenodd" d="M182.651 271.957L175.829 268.018C175.281 267.703 175.35 267.15 175.982 266.785L182.742 262.882C183.375 262.516 184.331 262.476 184.88 262.793L191.702 266.732C192.25 267.049 192.181 267.601 191.549 267.966L184.788 271.869C184.156 272.234 183.199 272.274 182.651 271.957Z" fill="#173D7A"/>
<path fill-rule="evenodd" clip-rule="evenodd" d="M193.186 278.04L186.364 274.101C185.816 273.785 185.885 273.233 186.517 272.867L193.278 268.965C193.91 268.6 194.868 268.56 195.415 268.877L202.238 272.815C202.786 273.131 202.716 273.684 202.084 274.05L195.323 277.952C194.691 278.316 193.734 278.357 193.186 278.04Z" fill="#173D7A"/>
<path fill-rule="evenodd" clip-rule="evenodd" d="M203.724 284.124L196.9 280.184C196.353 279.869 196.422 279.316 197.054 278.951L203.814 275.048C204.448 274.682 205.404 274.642 205.952 274.959L212.774 278.898C213.322 279.215 213.254 279.767 212.621 280.132L205.86 284.035C205.228 284.4 204.271 284.44 203.724 284.124Z" fill="#173D7A"/>
<path fill-rule="evenodd" clip-rule="evenodd" d="M214.259 290.206L207.436 286.267C206.888 285.951 206.957 285.399 207.589 285.033L214.349 281.131C214.983 280.766 215.94 280.726 216.487 281.043L223.31 284.981C223.857 285.298 223.789 285.85 223.156 286.216L216.395 290.118C215.763 290.482 214.807 290.523 214.259 290.206Z" fill="#173D7A"/>
<path fill-rule="evenodd" clip-rule="evenodd" d="M224.795 296.29L217.972 292.35C217.424 292.035 217.493 291.482 218.127 291.117L224.886 287.214C225.52 286.848 226.476 286.81 227.024 287.125L233.846 291.064C234.394 291.381 234.325 291.933 233.693 292.298L226.931 296.201C226.3 296.566 225.343 296.606 224.795 296.29Z" fill="#173D7A"/>
<path fill-rule="evenodd" clip-rule="evenodd" d="M235.332 302.372L228.51 298.433C227.962 298.118 228.03 297.565 228.663 297.199L235.422 293.297C236.056 292.932 237.012 292.892 237.56 293.209L244.382 297.147C244.93 297.464 244.862 298.016 244.229 298.382L237.469 302.284C236.836 302.648 235.879 302.689 235.332 302.372Z" fill="#173D7A"/>
<path fill-rule="evenodd" clip-rule="evenodd" d="M245.867 308.456L239.045 304.516C238.497 304.201 238.565 303.648 239.198 303.283L245.959 299.38C246.591 299.014 247.549 298.976 248.095 299.291L254.919 303.23C255.466 303.547 255.397 304.099 254.765 304.464L248.004 308.367C247.371 308.732 246.415 308.773 245.867 308.456Z" fill="#173D7A"/>
<path fill-rule="evenodd" clip-rule="evenodd" d="M256.404 314.538L249.581 310.599C249.034 310.284 249.103 309.731 249.735 309.365L256.495 305.463C257.128 305.098 258.085 305.058 258.633 305.375L265.455 309.313C266.003 309.63 265.933 310.182 265.302 310.548L258.541 314.45C257.909 314.814 256.951 314.855 256.404 314.538Z" fill="#173D7A"/>
<path fill-rule="evenodd" clip-rule="evenodd" d="M266.939 320.622L260.117 316.682C259.569 316.366 259.638 315.815 260.27 315.449L267.03 311.546C267.663 311.18 268.62 311.141 269.168 311.458L275.99 315.396C276.538 315.712 276.469 316.265 275.837 316.63L269.076 320.534C268.444 320.898 267.487 320.939 266.939 320.622Z" fill="#173D7A"/>
<path fill-rule="evenodd" clip-rule="evenodd" d="M277.475 326.704L270.653 322.766C270.105 322.45 270.174 321.897 270.807 321.532L277.567 317.629C278.199 317.264 279.157 317.224 279.705 317.541L286.527 321.479C287.075 321.796 287.005 322.348 286.373 322.714L279.612 326.616C278.981 326.981 278.023 327.021 277.475 326.704Z" fill="#173D7A"/>
<path fill-rule="evenodd" clip-rule="evenodd" d="M198.175 269.077L191.352 265.138C190.804 264.822 190.873 264.27 191.505 263.904L198.265 260.002C198.899 259.637 199.856 259.597 200.403 259.914L207.226 263.852C207.773 264.168 207.705 264.721 207.072 265.087L200.311 268.989C199.679 269.353 198.723 269.394 198.175 269.077Z" fill="#396CAA"/>
<path fill-rule="evenodd" clip-rule="evenodd" d="M187.481 262.903L180.659 258.963C180.111 258.649 180.18 258.096 180.812 257.731L187.572 253.827C188.205 253.462 189.162 253.423 189.71 253.739L196.533 257.678C197.08 257.995 197.011 258.547 196.379 258.913L189.618 262.815C188.986 263.179 188.029 263.22 187.481 262.903Z" fill="#396CAA"/>
<path fill-rule="evenodd" clip-rule="evenodd" d="M176.771 256.72L162.077 248.236C161.529 247.92 161.597 247.367 162.23 247.003L168.99 243.099C169.622 242.734 170.58 242.695 171.127 243.01L185.823 251.495C186.369 251.811 186.301 252.363 185.668 252.729L178.908 256.632C178.275 256.995 177.319 257.036 176.771 256.72Z" fill="#173D7A"/>
<path fill-rule="evenodd" clip-rule="evenodd" d="M184.258 249.2L172.333 242.315C171.786 241.998 171.854 241.447 172.487 241.081L179.247 237.178C179.878 236.813 180.836 236.773 181.384 237.089L193.309 243.974C193.856 244.29 193.788 244.843 193.155 245.208L186.394 249.111C185.762 249.476 184.806 249.516 184.258 249.2Z" fill="#173D7A"/>
<path fill-rule="evenodd" clip-rule="evenodd" d="M208.711 275.161L201.889 271.221C201.34 270.906 201.409 270.353 202.043 269.988L208.802 266.085C209.435 265.719 210.392 265.68 210.94 265.996L217.762 269.935C218.31 270.252 218.241 270.804 217.609 271.169L210.847 275.072C210.216 275.437 209.259 275.477 208.711 275.161Z" fill="#396CAA"/>
<path fill-rule="evenodd" clip-rule="evenodd" d="M219.248 281.243L212.426 277.304C211.878 276.988 211.946 276.436 212.579 276.07L219.338 272.168C219.972 271.803 220.928 271.763 221.476 272.08L228.298 276.018C228.846 276.335 228.778 276.887 228.145 277.253L221.385 281.155C220.752 281.519 219.796 281.56 219.248 281.243Z" fill="#173D7A"/>
<path fill-rule="evenodd" clip-rule="evenodd" d="M229.783 287.327L222.961 283.387C222.413 283.072 222.481 282.519 223.114 282.154L229.873 278.251C230.507 277.885 231.465 277.846 232.011 278.162L238.835 282.101C239.382 282.417 239.313 282.97 238.681 283.335L231.92 287.238C231.287 287.603 230.331 287.644 229.783 287.327Z" fill="#173D7A"/>
<path fill-rule="evenodd" clip-rule="evenodd" d="M240.32 293.409L233.497 289.47C232.95 289.155 233.019 288.602 233.651 288.236L240.411 284.334C241.044 283.969 242.001 283.929 242.549 284.246L249.371 288.184C249.919 288.501 249.849 289.053 249.218 289.419L242.457 293.321C241.825 293.685 240.867 293.726 240.32 293.409Z" fill="#173D7A"/>
<path fill-rule="evenodd" clip-rule="evenodd" d="M250.855 299.493L244.033 295.553C243.485 295.237 243.554 294.685 244.186 294.32L250.946 290.417C251.579 290.051 252.536 290.012 253.084 290.329L259.907 294.267C260.454 294.583 260.385 295.136 259.753 295.501L252.992 299.404C252.36 299.769 251.403 299.81 250.855 299.493Z" fill="#173D7A"/>
<path fill-rule="evenodd" clip-rule="evenodd" d="M261.391 305.575L254.569 301.637C254.021 301.321 254.09 300.768 254.723 300.403L261.483 296.5C262.115 296.135 263.073 296.095 263.621 296.412L270.443 300.35C270.991 300.667 270.921 301.219 270.289 301.585L263.528 305.487C262.897 305.851 261.939 305.892 261.391 305.575Z" fill="#173D7A"/>
<path fill-rule="evenodd" clip-rule="evenodd" d="M271.929 311.659L265.105 307.719C264.559 307.403 264.627 306.852 265.26 306.486L272.019 302.583C272.653 302.217 273.609 302.178 274.157 302.495L280.979 306.433C281.527 306.749 281.459 307.302 280.826 307.667L274.066 311.571C273.433 311.935 272.476 311.976 271.929 311.659Z" fill="#173D7A"/>
<path fill-rule="evenodd" clip-rule="evenodd" d="M282.464 317.741L275.642 313.803C275.094 313.487 275.162 312.934 275.795 312.569L282.554 308.667C283.188 308.3 284.145 308.261 284.692 308.578L291.515 312.516C292.062 312.833 291.994 313.386 291.361 313.751L284.6 317.653C283.968 318.018 283.012 318.058 282.464 317.741Z" fill="#173D7A"/>
<path fill-rule="evenodd" clip-rule="evenodd" d="M293 323.825L286.178 319.885C285.63 319.569 285.698 319.018 286.332 318.652L293.091 314.749C293.725 314.384 294.681 314.344 295.229 314.661L302.051 318.6C302.599 318.915 302.53 319.468 301.898 319.834L295.136 323.737C294.505 324.101 293.548 324.142 293 323.825Z" fill="#173D7A"/>
<path fill-rule="evenodd" clip-rule="evenodd" d="M311.731 334.639L296.845 326.044C296.297 325.729 296.365 325.176 296.998 324.811L303.758 320.908C304.39 320.542 305.347 320.503 305.894 320.819L320.781 329.413C321.329 329.73 321.261 330.283 320.628 330.648L313.868 334.551C313.235 334.915 312.278 334.956 311.731 334.639Z" fill="#173D7A"/>
<path fill-rule="evenodd" clip-rule="evenodd" d="M332.244 322.796L319.679 315.542C319.131 315.225 319.199 314.674 319.832 314.308L326.592 310.405C327.225 310.04 328.182 310 328.729 310.317L341.294 317.571C341.842 317.887 341.772 318.44 341.141 318.805L334.381 322.708C333.748 323.073 332.791 323.112 332.244 322.796Z" fill="#173D7A"/>
<path fill-rule="evenodd" clip-rule="evenodd" d="M227.162 273.971L220.339 270.031C219.792 269.715 219.861 269.162 220.493 268.797L227.253 264.895C227.886 264.529 228.842 264.49 229.39 264.806L236.213 268.744C236.761 269.061 236.692 269.614 236.06 269.979L229.299 273.881C228.667 274.246 227.71 274.287 227.162 273.971Z" fill="#173D7A"/>
<path fill-rule="evenodd" clip-rule="evenodd" d="M216.364 267.736L209.541 263.797C208.994 263.481 209.063 262.928 209.695 262.563L216.455 258.661C217.088 258.295 218.045 258.255 218.593 258.572L225.415 262.51C225.963 262.827 225.893 263.38 225.262 263.745L218.501 267.647C217.869 268.012 216.911 268.052 216.364 267.736Z" fill="#173D7A"/>
<path fill-rule="evenodd" clip-rule="evenodd" d="M205.565 261.501L198.743 257.563C198.195 257.247 198.264 256.694 198.897 256.329L205.657 252.425C206.289 252.06 207.247 252.021 207.795 252.337L214.617 256.276C215.165 256.593 215.095 257.145 214.463 257.511L207.702 261.413C207.071 261.777 206.113 261.818 205.565 261.501Z" fill="#396CAA"/>
<path fill-rule="evenodd" clip-rule="evenodd" d="M194.767 255.267L187.945 251.327C187.397 251.012 187.466 250.46 188.098 250.094L194.858 246.191C195.491 245.826 196.449 245.787 196.996 246.103L203.819 250.042C204.366 250.359 204.297 250.91 203.665 251.277L196.904 255.179C196.272 255.543 195.315 255.584 194.767 255.267Z" fill="#173D7A"/>
<path fill-rule="evenodd" clip-rule="evenodd" d="M237.698 280.053L230.876 276.114C230.328 275.799 230.397 275.246 231.029 274.88L237.788 270.977C238.422 270.612 239.38 270.573 239.926 270.889L246.75 274.828C247.297 275.145 247.228 275.696 246.596 276.063L239.835 279.965C239.203 280.329 238.246 280.37 237.698 280.053Z" fill="#173D7A"/>
<path fill-rule="evenodd" clip-rule="evenodd" d="M248.234 286.137L241.411 282.197C240.865 281.881 240.932 281.329 241.566 280.963L248.325 277.061C248.959 276.695 249.915 276.656 250.463 276.973L257.285 280.91C257.833 281.227 257.763 281.78 257.132 282.145L250.37 286.049C249.739 286.412 248.782 286.453 248.234 286.137Z" fill="#173D7A"/>
<path fill-rule="evenodd" clip-rule="evenodd" d="M258.77 292.219L251.948 288.28C251.4 287.965 251.469 287.412 252.101 287.047L258.861 283.144C259.494 282.778 260.451 282.738 260.999 283.055L267.821 286.994C268.369 287.311 268.3 287.864 267.668 288.229L260.907 292.131C260.275 292.496 259.318 292.536 258.77 292.219Z" fill="#173D7A"/>
<path fill-rule="evenodd" clip-rule="evenodd" d="M269.307 298.303L262.484 294.363C261.936 294.047 262.005 293.495 262.637 293.129L269.398 289.227C270.03 288.862 270.988 288.822 271.535 289.139L278.358 293.076C278.906 293.393 278.836 293.946 278.204 294.311L271.443 298.215C270.811 298.578 269.855 298.619 269.307 298.303Z" fill="#173D7A"/>
<path fill-rule="evenodd" clip-rule="evenodd" d="M279.843 304.385L273.019 300.446C272.473 300.131 272.541 299.578 273.174 299.213L279.933 295.31C280.567 294.944 281.523 294.904 282.071 295.221L288.893 299.16C289.441 299.477 289.371 300.03 288.74 300.395L281.98 304.297C281.347 304.662 280.39 304.702 279.843 304.385Z" fill="#173D7A"/>
<path fill-rule="evenodd" clip-rule="evenodd" d="M290.379 310.469L283.557 306.529C283.009 306.213 283.077 305.661 283.71 305.295L290.469 301.393C291.103 301.028 292.06 300.988 292.607 301.305L299.429 305.244C299.977 305.56 299.909 306.112 299.276 306.478L292.516 310.381C291.883 310.744 290.927 310.785 290.379 310.469Z" fill="#173D7A"/>
<path fill-rule="evenodd" clip-rule="evenodd" d="M300.915 316.551L294.093 312.612C293.545 312.297 293.613 311.744 294.247 311.379L301.006 307.476C301.639 307.11 302.596 307.07 303.144 307.387L309.966 311.326C310.515 311.643 310.445 312.196 309.812 312.56L303.052 316.463C302.42 316.828 301.463 316.868 300.915 316.551Z" fill="#173D7A"/>
<path fill-rule="evenodd" clip-rule="evenodd" d="M311.451 322.634L304.629 318.695C304.081 318.379 304.149 317.827 304.782 317.461L311.541 313.559C312.175 313.194 313.131 313.154 313.679 313.471L320.502 317.409C321.05 317.726 320.981 318.278 320.349 318.644L313.588 322.547C312.955 322.91 311.998 322.951 311.451 322.634Z" fill="#173D7A"/>
<path fill-rule="evenodd" clip-rule="evenodd" d="M321.987 328.718L315.165 324.778C314.617 324.463 314.686 323.91 315.318 323.545L322.078 319.642C322.711 319.276 323.669 319.238 324.215 319.553L331.039 323.492C331.586 323.809 331.517 324.361 330.885 324.726L324.124 328.629C323.492 328.994 322.535 329.035 321.987 328.718Z" fill="#173D7A"/>
<path fill-rule="evenodd" clip-rule="evenodd" d="M221.614 258.924L214.792 254.984C214.244 254.67 214.313 254.117 214.945 253.751L221.704 249.848C222.338 249.483 223.296 249.443 223.842 249.76L230.666 253.699C231.213 254.016 231.144 254.567 230.512 254.934L223.751 258.836C223.119 259.2 222.162 259.241 221.614 258.924Z" fill="#173D7A"/>
<path fill-rule="evenodd" clip-rule="evenodd" d="M211.13 252.871L204.308 248.932C203.76 248.617 203.828 248.064 204.461 247.699L211.221 243.796C211.854 243.43 212.811 243.39 213.359 243.707L220.181 247.646C220.729 247.963 220.66 248.516 220.027 248.881L213.266 252.783C212.634 253.148 211.678 253.188 211.13 252.871Z" fill="#173D7A"/>
<path fill-rule="evenodd" clip-rule="evenodd" d="M200.647 246.819L193.824 242.879C193.276 242.564 193.345 242.011 193.978 241.646L200.737 237.742C201.371 237.377 202.327 237.337 202.875 237.654L209.698 241.593C210.246 241.91 210.176 242.461 209.545 242.827L202.783 246.73C202.151 247.095 201.194 247.135 200.647 246.819Z" fill="#173D7A"/>
<path fill-rule="evenodd" clip-rule="evenodd" d="M190.163 240.766L183.34 236.826C182.793 236.511 182.862 235.958 183.494 235.593L190.253 231.69C190.887 231.325 191.843 231.284 192.391 231.601L199.214 235.541C199.762 235.857 199.692 236.41 199.061 236.775L192.3 240.677C191.668 241.042 190.71 241.082 190.163 240.766Z" fill="#173D7A"/>
<path fill-rule="evenodd" clip-rule="evenodd" d="M200.943 234.542L194.12 230.602C193.573 230.287 193.642 229.734 194.274 229.369L196.509 228.079C197.142 227.714 198.098 227.674 198.646 227.991L205.469 231.929C206.017 232.245 205.947 232.798 205.316 233.163L203.08 234.453C202.448 234.818 201.49 234.858 200.943 234.542Z" fill="#173D7A"/>
<path fill-rule="evenodd" clip-rule="evenodd" d="M214.625 242.441L207.803 238.502C207.255 238.185 207.323 237.633 207.956 237.268L210.19 235.977C210.824 235.612 211.78 235.573 212.328 235.889L219.15 239.828C219.698 240.144 219.628 240.696 218.997 241.061L216.762 242.353C216.129 242.718 215.173 242.757 214.625 242.441Z" fill="#173D7A"/>
<path fill-rule="evenodd" clip-rule="evenodd" d="M225.065 248.468L218.242 244.528C217.695 244.213 217.764 243.661 218.396 243.295L220.631 242.005C221.263 241.64 222.221 241.6 222.769 241.917L229.591 245.856C230.139 246.172 230.069 246.724 229.438 247.089L227.202 248.38C226.57 248.744 225.612 248.785 225.065 248.468Z" fill="#173D7A"/>
<path fill-rule="evenodd" clip-rule="evenodd" d="M235.505 254.495L228.682 250.557C228.134 250.241 228.203 249.688 228.837 249.323L231.07 248.033C231.703 247.667 232.661 247.629 233.208 247.944L240.031 251.883C240.578 252.2 240.509 252.752 239.877 253.116L237.641 254.407C237.01 254.771 236.053 254.812 235.505 254.495Z" fill="#173D7A"/>
<path fill-rule="evenodd" clip-rule="evenodd" d="M245.945 260.524L239.123 256.584C238.575 256.268 238.644 255.715 239.276 255.35L241.51 254.06C242.144 253.695 243.1 253.656 243.648 253.972L250.47 257.91C251.018 258.227 250.95 258.78 250.317 259.145L248.082 260.435C247.45 260.799 246.493 260.84 245.945 260.524Z" fill="#173D7A"/>
<path fill-rule="evenodd" clip-rule="evenodd" d="M304.231 294.174L297.407 290.234C296.86 289.92 296.929 289.367 297.561 289.002L299.796 287.712C300.428 287.346 301.386 287.306 301.934 287.623L308.756 291.561C309.304 291.878 309.234 292.431 308.602 292.795L306.367 294.086C305.735 294.45 304.777 294.491 304.231 294.174Z" fill="#173D7A"/>
<path fill-rule="evenodd" clip-rule="evenodd" d="M314.67 300.202L307.848 296.262C307.3 295.947 307.368 295.394 308.001 295.029L310.235 293.739C310.868 293.374 311.826 293.334 312.373 293.651L319.195 297.588C319.743 297.905 319.674 298.458 319.042 298.823L316.807 300.113C316.174 300.478 315.218 300.519 314.67 300.202Z" fill="#173D7A"/>
<path fill-rule="evenodd" clip-rule="evenodd" d="M325.11 306.229L318.288 302.289C317.74 301.974 317.809 301.422 318.441 301.056L320.675 299.766C321.309 299.401 322.265 299.361 322.813 299.678L329.635 303.617C330.183 303.934 330.114 304.485 329.482 304.85L327.247 306.141C326.615 306.505 325.658 306.546 325.11 306.229Z" fill="#173D7A"/>
<path fill-rule="evenodd" clip-rule="evenodd" d="M335.551 312.256L328.727 308.318C328.181 308.002 328.249 307.449 328.882 307.084L331.116 305.794C331.748 305.428 332.706 305.39 333.254 305.706L340.076 309.644C340.624 309.961 340.554 310.513 339.922 310.877L337.686 312.168C337.055 312.533 336.098 312.573 335.551 312.256Z" fill="#173D7A"/>
<path fill-rule="evenodd" clip-rule="evenodd" d="M232.151 265.008L225.328 261.068C224.78 260.752 224.849 260.199 225.482 259.834L232.241 255.932C232.875 255.566 233.831 255.527 234.379 255.844L241.201 259.781C241.749 260.098 241.68 260.651 241.048 261.016L234.286 264.918C233.655 265.283 232.698 265.324 232.151 265.008Z" fill="#173D7A"/>
<path fill-rule="evenodd" clip-rule="evenodd" d="M242.686 271.09L235.864 267.151C235.316 266.836 235.385 266.283 236.017 265.918L242.777 262.014C243.41 261.649 244.367 261.609 244.915 261.926L251.737 265.865C252.285 266.182 252.216 266.733 251.584 267.099L244.823 271.002C244.191 271.366 243.234 271.407 242.686 271.09Z" fill="#173D7A"/>
<path fill-rule="evenodd" clip-rule="evenodd" d="M253.223 277.174L246.4 273.234C245.852 272.918 245.921 272.366 246.553 272L253.314 268.098C253.946 267.732 254.904 267.693 255.451 268.01L262.274 271.947C262.821 272.264 262.752 272.817 262.12 273.183L255.359 277.086C254.727 277.449 253.771 277.49 253.223 277.174Z" fill="#173D7A"/>
<path fill-rule="evenodd" clip-rule="evenodd" d="M263.759 283.256L256.935 279.317C256.389 279.002 256.457 278.449 257.09 278.084L263.849 274.181C264.483 273.815 265.439 273.775 265.987 274.092L272.809 278.031C273.357 278.348 273.288 278.901 272.656 279.265L265.896 283.168C265.263 283.533 264.306 283.573 263.759 283.256Z" fill="#173D7A"/>
<path fill-rule="evenodd" clip-rule="evenodd" d="M274.295 289.34L267.473 285.4C266.925 285.084 266.993 284.532 267.626 284.166L274.385 280.264C275.019 279.899 275.976 279.859 276.523 280.176L283.346 284.114C283.893 284.43 283.825 284.983 283.192 285.349L276.432 289.252C275.799 289.615 274.843 289.656 274.295 289.34Z" fill="#173D7A"/>
<path fill-rule="evenodd" clip-rule="evenodd" d="M284.831 295.423L278.009 291.483C277.461 291.168 277.529 290.615 278.163 290.25L284.922 286.347C285.555 285.981 286.512 285.941 287.06 286.258L293.882 290.197C294.431 290.514 294.361 291.066 293.728 291.431L286.968 295.334C286.336 295.699 285.379 295.739 284.831 295.423Z" fill="#173D7A"/>
<path fill-rule="evenodd" clip-rule="evenodd" d="M295.367 301.505L288.544 297.566C287.997 297.25 288.066 296.698 288.698 296.332L295.458 292.43C296.091 292.065 297.047 292.025 297.596 292.342L304.418 296.28C304.966 296.597 304.897 297.149 304.265 297.515L297.504 301.417C296.872 301.781 295.914 301.822 295.367 301.505Z" fill="#173D7A"/>
<path fill-rule="evenodd" clip-rule="evenodd" d="M305.903 307.589L299.081 303.649C298.533 303.334 298.602 302.781 299.234 302.416L305.994 298.513C306.627 298.147 307.585 298.109 308.131 298.424L314.955 302.363C315.502 302.68 315.433 303.232 314.801 303.597L308.04 307.5C307.408 307.865 306.451 307.905 305.903 307.589Z" fill="#173D7A"/>
<path fill-rule="evenodd" clip-rule="evenodd" d="M316.44 313.671L309.616 309.732C309.069 309.416 309.138 308.864 309.77 308.498L316.53 304.596C317.163 304.231 318.12 304.191 318.668 304.508L325.49 308.446C326.038 308.763 325.968 309.315 325.337 309.681L318.575 313.583C317.944 313.947 316.986 313.988 316.44 313.671Z" fill="#173D7A"/>
<path fill-rule="evenodd" clip-rule="evenodd" d="M171.914 265.758L151.819 254.158C151.272 253.841 151.341 253.288 151.973 252.924L158.734 249.02C159.367 248.656 160.323 248.616 160.871 248.931L180.964 260.533C181.512 260.85 181.443 261.401 180.811 261.767L174.05 265.67C173.418 266.034 172.46 266.075 171.914 265.758Z" fill="#173D7A"/>
<path fill-rule="evenodd" clip-rule="evenodd" d="M301.352 340.49L281.259 328.888C280.711 328.573 280.779 328.02 281.412 327.655L288.172 323.753C288.805 323.388 289.762 323.348 290.309 323.663L310.404 335.265C310.95 335.581 310.882 336.133 310.249 336.5L303.489 340.402C302.856 340.766 301.9 340.807 301.352 340.49Z" fill="#173D7A"/>
<path fill-rule="evenodd" clip-rule="evenodd" d="M259.217 329.6L252.394 325.66C251.846 325.345 251.915 324.792 252.549 324.427L260.6 319.778C261.234 319.413 262.19 319.373 262.738 319.689L269.561 323.628C270.109 323.944 270.039 324.497 269.408 324.862L261.353 329.511C260.722 329.876 259.765 329.916 259.217 329.6Z" fill="#173D7A"/>
<path fill-rule="evenodd" clip-rule="evenodd" d="M182.704 285.425L171.791 279.126C171.244 278.809 171.313 278.257 171.945 277.891L179.998 273.242C180.631 272.877 181.587 272.837 182.135 273.154L193.046 279.453C193.594 279.77 193.526 280.322 192.893 280.687L184.84 285.336C184.208 285.701 183.252 285.742 182.704 285.425Z" fill="#173D7A"/>
<path fill-rule="evenodd" clip-rule="evenodd" d="M249.066 323.739L238.154 317.44C237.606 317.123 237.675 316.571 238.307 316.205L246.36 311.556C246.993 311.191 247.95 311.151 248.497 311.468L259.41 317.767C259.957 318.084 259.888 318.636 259.256 319.001L251.202 323.65C250.57 324.015 249.614 324.056 249.066 323.739Z" fill="#173D7A"/>
<path fill-rule="evenodd" clip-rule="evenodd" d="M197.904 294.201L186.993 287.903C186.445 287.586 186.515 287.033 187.146 286.667L195.2 282.019C195.832 281.653 196.789 281.614 197.337 281.93L208.248 288.229C208.796 288.546 208.726 289.099 208.095 289.463L200.041 294.113C199.41 294.477 198.452 294.518 197.904 294.201Z" fill="#173D7A"/>
<path fill-rule="evenodd" clip-rule="evenodd" d="M197.411 281.973L244.85 309.361C245.439 309.701 245.439 310.253 244.85 310.592L236.638 315.333C236.049 315.673 235.095 315.673 234.506 315.333L187.067 287.944L197.411 281.973Z" fill="#173D7A"/>
<path fill-rule="evenodd" clip-rule="evenodd" d="M288.664 340.629L296.264 345.017C296.713 345.276 296.657 345.729 296.137 346.027L292.843 347.93C292.324 348.23 291.541 348.262 291.092 348.003L283.492 343.615C283.042 343.356 283.099 342.903 283.618 342.604L286.912 340.702C287.43 340.402 288.214 340.37 288.664 340.629Z" fill="#173D7A"/>
<path fill-rule="evenodd" clip-rule="evenodd" d="M278.04 334.496L285.64 338.884C286.09 339.141 286.033 339.594 285.514 339.894L282.221 341.797C281.702 342.096 280.918 342.129 280.468 341.868L272.868 337.482C272.42 337.223 272.475 336.77 272.995 336.47L276.289 334.569C276.808 334.269 277.591 334.236 278.04 334.496Z" fill="#173D7A"/>
<path fill-rule="evenodd" clip-rule="evenodd" d="M267.504 328.412L275.105 332.8C275.554 333.059 275.497 333.512 274.978 333.811L271.684 335.714C271.165 336.014 270.382 336.045 269.933 335.786L262.332 331.398C261.883 331.139 261.94 330.686 262.459 330.388L265.753 328.486C266.271 328.186 267.055 328.153 267.504 328.412Z" fill="#173D7A"/>
<path fill-rule="evenodd" clip-rule="evenodd" d="M283.859 331.136L291.459 335.524C291.907 335.783 291.851 336.235 291.333 336.535L288.039 338.438C287.519 338.737 286.736 338.769 286.287 338.51L278.687 334.122C278.238 333.863 278.294 333.41 278.813 333.112L282.106 331.21C282.626 330.91 283.41 330.877 283.859 331.136Z" fill="#173D7A"/>
<path fill-rule="evenodd" clip-rule="evenodd" d="M295.17 181.349L288.644 177.581C288.038 177.232 287.537 176.289 287.524 175.477C287.512 174.663 287.991 174.288 288.597 174.638L295.122 178.405C295.727 178.754 296.228 179.696 296.242 180.509C296.254 181.322 295.774 181.698 295.17 181.349Z" fill="#D4ECFF"/>
<path fill-rule="evenodd" clip-rule="evenodd" d="M310.713 190.323L301.091 184.768C300.485 184.419 299.984 183.476 299.971 182.663C299.958 181.85 300.438 181.474 301.043 181.823L310.664 187.379C311.27 187.729 311.771 188.671 311.786 189.484C311.798 190.297 311.318 190.672 310.713 190.323Z" fill="#D4ECFF"/>
<path fill-rule="evenodd" clip-rule="evenodd" d="M291.936 216.146L285.41 212.378C284.806 212.029 284.304 211.086 284.29 210.274C284.278 209.461 284.758 209.085 285.363 209.435L291.888 213.202C292.494 213.552 292.995 214.494 293.01 215.307C293.022 216.12 292.542 216.495 291.936 216.146Z" fill="#D4ECFF"/>
<path fill-rule="evenodd" clip-rule="evenodd" d="M305.792 224.146L296.171 218.591C295.566 218.241 295.063 217.298 295.05 216.485C295.037 215.672 295.517 215.296 296.123 215.647L305.745 221.202C306.351 221.551 306.852 222.493 306.865 223.306C306.877 224.12 306.397 224.495 305.792 224.146Z" fill="#D4ECFF"/>
<path fill-rule="evenodd" clip-rule="evenodd" d="M277.276 177.129L273.201 174.776C272.595 174.426 272.094 173.483 272.08 172.67C272.067 171.858 272.546 171.483 273.152 171.832L277.23 174.185C277.834 174.535 278.336 175.477 278.35 176.29C278.362 177.103 277.882 177.478 277.276 177.129Z" fill="#D4ECFF"/>
<path fill-rule="evenodd" clip-rule="evenodd" d="M291.197 191.277L278.742 184.086C278.137 183.736 277.636 182.795 277.622 181.98C277.61 181.167 278.09 180.792 278.694 181.142L291.15 188.333C291.756 188.682 292.257 189.624 292.27 190.437C292.282 191.251 291.803 191.626 291.197 191.277Z" fill="#D4ECFF"/>
<path fill-rule="evenodd" clip-rule="evenodd" d="M283.019 198.776L278.941 196.422C278.336 196.073 277.835 195.131 277.823 194.318C277.809 193.505 278.289 193.129 278.893 193.478L282.97 195.832C283.576 196.181 284.077 197.123 284.091 197.937C284.103 198.75 283.623 199.126 283.019 198.776Z" fill="#D4ECFF"/>
<path fill-rule="evenodd" clip-rule="evenodd" d="M310.604 239.145L299.715 232.858C299.11 232.509 298.609 231.566 298.595 230.754C298.583 229.94 299.062 229.565 299.668 229.915L310.555 236.201C311.161 236.55 311.662 237.492 311.676 238.305C311.689 239.119 311.208 239.494 310.604 239.145Z" fill="#D4ECFF"/>
<path fill-rule="evenodd" clip-rule="evenodd" d="M281.758 210.27L279.142 208.76C278.536 208.41 278.035 207.467 278.022 206.654C278.01 205.841 278.489 205.465 279.094 205.815L281.711 207.326C282.317 207.676 282.818 208.618 282.831 209.431C282.843 210.244 282.364 210.619 281.758 210.27Z" fill="#D4ECFF"/>
<path fill-rule="evenodd" clip-rule="evenodd" d="M282.591 222.972L279.342 221.095C278.736 220.746 278.235 219.804 278.222 218.991C278.209 218.178 278.689 217.802 279.294 218.153L282.544 220.028C283.149 220.377 283.651 221.319 283.664 222.132C283.676 222.947 283.196 223.322 282.591 222.972Z" fill="#D4ECFF"/>
<path fill-rule="evenodd" clip-rule="evenodd" d="M295.232 230.27L286.665 225.325C286.06 224.976 285.558 224.032 285.545 223.219C285.532 222.406 286.013 222.031 286.618 222.38L295.185 227.327C295.791 227.676 296.292 228.618 296.305 229.431C296.317 230.245 295.837 230.62 295.232 230.27Z" fill="#D4ECFF"/>
<path fill-rule="evenodd" clip-rule="evenodd" d="M285.602 230.82L279.443 227.264C278.837 226.914 278.336 225.972 278.323 225.159C278.308 224.346 278.79 223.971 279.395 224.321L285.554 227.877C286.16 228.226 286.661 229.168 286.674 229.982C286.687 230.795 286.207 231.171 285.602 230.82Z" fill="#D4ECFF"/>
<path fill-rule="evenodd" clip-rule="evenodd" d="M319.951 244.568L315.996 242.284C315.39 241.935 314.889 240.992 314.874 240.179C314.861 239.367 315.342 238.991 315.947 239.34L319.903 241.624C320.509 241.973 321.01 242.915 321.023 243.73C321.036 244.543 320.556 244.917 319.951 244.568Z" fill="#D4ECFF"/>
<path fill-rule="evenodd" clip-rule="evenodd" d="M298.182 207.531L287.293 201.244C286.689 200.895 286.188 199.952 286.173 199.14C286.161 198.326 286.64 197.951 287.246 198.301L298.134 204.587C298.739 204.936 299.24 205.878 299.254 206.691C299.267 207.505 298.786 207.88 298.182 207.531Z" fill="#D4ECFF"/>
<path fill-rule="evenodd" clip-rule="evenodd" d="M297.817 201.21L278.842 190.254C278.236 189.905 277.735 188.963 277.722 188.15C277.71 187.336 278.189 186.96 278.794 187.31L297.771 198.266C298.375 198.616 298.877 199.557 298.891 200.371C298.903 201.184 298.423 201.559 297.817 201.21Z" fill="#D4ECFF"/>
<path fill-rule="evenodd" clip-rule="evenodd" d="M289.93 208.877L279.042 202.591C278.436 202.241 277.935 201.298 277.922 200.486C277.91 199.673 278.389 199.298 278.994 199.647L289.883 205.933C290.487 206.282 290.99 207.224 291.003 208.037C291.015 208.851 290.535 209.226 289.93 208.877Z" fill="#D4ECFF"/>
<path fill-rule="evenodd" clip-rule="evenodd" d="M306.439 212.298L302.484 210.015C301.878 209.664 301.377 208.722 301.364 207.909C301.35 207.096 301.831 206.721 302.436 207.071L306.392 209.355C306.997 209.704 307.499 210.646 307.512 211.459C307.524 212.272 307.045 212.648 306.439 212.298Z" fill="#D4ECFF"/>
<path fill-rule="evenodd" clip-rule="evenodd" d="M340.06 207.267L316.634 193.742C316.029 193.393 315.527 192.45 315.514 191.637C315.501 190.825 315.981 190.449 316.587 190.798L340.012 204.323C340.618 204.673 341.119 205.615 341.132 206.428C341.145 207.241 340.665 207.616 340.06 207.267Z" fill="#D4ECFF"/>
<path fill-rule="evenodd" clip-rule="evenodd" d="M292.33 222.484L279.243 214.928C278.637 214.579 278.136 213.636 278.122 212.823C278.109 212.01 278.59 211.634 279.194 211.983L292.282 219.54C292.888 219.889 293.389 220.831 293.402 221.644C293.414 222.458 292.935 222.834 292.33 222.484Z" fill="#D4ECFF"/>
<path fill-rule="evenodd" clip-rule="evenodd" d="M282.723 174.163L273.101 168.608C272.495 168.257 271.994 167.315 271.98 166.502C271.967 165.689 272.447 165.313 273.053 165.663L282.674 171.219C283.28 171.568 283.781 172.51 283.795 173.323C283.807 174.136 283.327 174.512 282.723 174.163Z" fill="#D4ECFF"/>
<path fill-rule="evenodd" clip-rule="evenodd" d="M285.245 236.725L274.101 230.29C273.495 229.941 272.994 228.999 272.98 228.186C272.968 227.373 273.447 226.997 274.053 227.346L285.197 233.781C285.803 234.13 286.304 235.072 286.317 235.886C286.329 236.699 285.85 237.074 285.245 236.725Z" fill="#D4ECFF"/>
<mask id="mask0" mask-type="alpha" maskUnits="userSpaceOnUse" x="0" y="207" width="101" height="41">
<path fill-rule="evenodd" clip-rule="evenodd" d="M0 207.182H100.47V247.596H0V207.182Z" fill="white"/>
</mask>
<g mask="url(#mask0)">
<path fill-rule="evenodd" clip-rule="evenodd" d="M0.316657 246.413L57.715 212.994C69.0853 206.427 79.8088 205.389 87.9114 210.063C96.0091 214.74 100.471 224.547 100.471 237.676V241.881C100.065 242.157 99.6394 242.424 99.2058 242.69V237.676C99.2058 225.018 94.9684 215.6 87.2778 211.159C79.5848 206.72 69.3106 207.76 58.3486 214.089L0.94901 247.508C0.650298 247.688 0.260046 247.582 0.0853963 247.278C-0.090458 246.976 0.0143319 246.588 0.316657 246.413Z" fill="#D4ECFF"/>
</g>
<path fill-rule="evenodd" clip-rule="evenodd" d="M179.316 206.601V77.2503C179.316 51.3599 197.559 19.7616 219.983 6.817C230.963 0.477815 241.322 -0.527928 249.148 3.98888C256.974 8.50569 261.282 17.9777 261.282 30.6585V39.6789C260.861 40.1004 260.439 40.522 260.016 40.9436V30.6585C260.016 18.4499 255.931 9.36689 248.515 5.08616C241.098 0.806638 231.189 1.80877 220.615 7.91188C198.541 20.6565 180.582 51.761 180.582 77.2503V206.601C180.582 228.062 167.953 253.461 150.83 268.747V267.049C167.277 251.934 179.316 227.39 179.316 206.601Z" fill="#D4ECFF"/>
<path fill-rule="evenodd" clip-rule="evenodd" d="M261.282 43.6369C263.36 41.6628 273.051 33.1134 287.195 30.9513C303.211 28.5026 309.829 47.2323 309.829 47.2323C309.829 47.2323 311.683 56.9621 311.616 62.7195C311.549 68.4782 311.137 89.3892 311.137 89.3892L260.364 60.1419L260.365 60.1335C260.16 60.0287 260.016 59.8216 260.016 59.5758V44.7306C260.438 44.309 260.86 44.0597 261.282 43.6369Z" fill="#396CAA"/>
<path fill-rule="evenodd" clip-rule="evenodd" d="M297.273 31.7327L249.148 3.98864L249.336 4.68001C241.918 -0.110215 230.709 -0.628142 215.715 10.3676C185.932 32.2096 182.354 62.6144 180.835 68.3128C179.317 74.01 179.942 110.108 179.942 110.108C179.942 110.108 179.843 197.174 179.743 207.3C179.644 217.426 176.697 228.788 171.007 241.055C165.317 253.321 150.704 268.207 150.704 268.207V285.928C153.037 305.089 161.178 309.556 173.289 310.648C183.066 311.529 193.48 304.472 201.802 296.779C201.495 297.1 201.297 297.303 201.297 297.303V315.024C203.631 334.184 211.771 338.651 223.882 339.744C235.995 340.835 249.093 329.742 257.968 320.352C266.843 310.962 274.327 296.621 278.485 283.685C282.643 270.749 281.265 254.034 281.265 254.034C281.265 254.034 281.365 158.861 281.464 140.097C281.564 121.334 282.159 124.61 288.315 105.748C294.47 86.8859 310.786 73.6812 310.786 73.6812L349.936 62.0218L297.273 31.7327Z" fill="#D4ECFF"/>
<path fill-rule="evenodd" clip-rule="evenodd" d="M213.495 338.15C212.835 337.253 204.26 331.503 202.076 321.377C200.861 315.743 200.984 307.181 200.984 307.181C200.984 307.181 201.02 302.418 201.133 298.088C201.23 298.004 201.327 297.927 201.423 297.842V296.144C201.345 296.216 201.264 296.28 201.185 296.353C201.219 295.374 201.256 294.458 201.298 293.679C201.546 289.179 198.221 279.583 198.221 279.583C198.221 279.583 193.505 266.726 179.457 266.228C166.985 265.789 153.856 274.761 151.064 276.782V270.976C150.88 271.103 150.68 271.223 150.486 271.346C150.502 270.568 150.521 269.773 150.54 268.993C150.636 268.908 150.735 268.831 150.83 268.747V267.049C150.752 267.12 150.671 267.185 150.592 267.257C150.626 266.279 150.663 265.361 150.705 264.583C150.953 260.083 147.628 250.486 147.628 250.486C147.628 250.486 142.912 237.629 128.864 237.133C116.392 236.693 103.263 245.666 100.471 247.687V241.881C100.065 242.156 99.6399 242.424 99.2051 242.689V252.854C99.2051 265.167 103.309 274.421 110.757 279.018L110.787 279.053L111.048 279.202C111.117 279.244 111.184 279.292 111.254 279.332C111.298 279.357 111.347 279.374 111.392 279.401L162.902 309.055C162.89 309.038 162.855 309.007 162.837 308.986L213.495 338.15Z" fill="#396CAA"/>
<path fill-rule="evenodd" clip-rule="evenodd" d="M138.503 239.159C138.503 239.159 138.118 238.961 137.437 238.684C137.228 238.584 137.025 238.466 136.815 238.37L87.9102 210.064C87.9102 210.064 78.9247 205.341 68.0567 209.32C57.1887 213.297 0.243164 247.459 0.243164 247.459L51.1169 276.769L51.1253 276.764C51.1674 276.786 51.2168 276.787 51.2614 276.801L101.71 305.865C101.71 305.865 130.251 288.183 149.998 276.774L151.264 276.045C159.336 271.405 165.747 267.937 167.759 267.403C179.933 264.178 188.404 268.109 190.609 269.318L138.503 239.159Z" fill="#D4ECFF"/>
<path fill-rule="evenodd" clip-rule="evenodd" d="M190.61 269.319L191.198 269.659C191.198 269.659 190.984 269.524 190.61 269.319Z" fill="#D4ECFF"/>
<path fill-rule="evenodd" clip-rule="evenodd" d="M311.876 72.7328C313.954 70.7586 323.645 62.2092 337.789 60.0472C353.805 57.5984 360.423 76.3281 360.423 76.3281C360.423 76.3281 362.277 86.0579 362.209 91.8166C362.143 97.574 361.731 118.485 361.731 118.485L310.957 89.2378L310.959 89.2293C310.754 89.1245 310.609 88.9186 310.609 88.6717V73.8276C311.032 73.4049 311.454 73.1555 311.876 72.7328Z" fill="#396CAA"/>
<path fill-rule="evenodd" clip-rule="evenodd" d="M223.389 340.452C228.986 340.452 235.184 338.583 241.596 334.88C263.857 322.029 281.968 290.659 281.968 264.955V135.606C281.968 110.118 299.927 79.0111 322.001 66.2653C332.576 60.1622 342.483 59.1576 349.901 63.4384C357.317 67.7215 361.402 76.8033 361.402 89.0131V117.932C361.402 118.28 361.685 118.564 362.034 118.564C362.385 118.564 362.668 118.28 362.668 117.932V89.0131C362.668 76.3324 358.36 66.8603 350.534 62.3435C342.707 57.8255 332.351 58.83 321.369 65.1704C298.945 78.1162 280.702 109.715 280.702 135.606V264.955C280.702 290.257 262.876 321.134 240.964 333.786C230.469 339.843 220.634 340.841 213.273 336.591C205.911 332.341 201.856 323.326 201.856 311.209V296.031C201.856 282.902 197.396 273.094 189.295 268.417C181.196 263.744 170.472 264.782 159.101 271.349L101.704 304.768C101.401 304.943 101.298 305.33 101.473 305.632C101.646 305.937 102.039 306.035 102.336 305.863L159.733 272.444C170.695 266.114 180.971 265.073 188.663 269.514C196.354 273.955 200.591 283.373 200.591 296.031V311.209C200.591 323.798 204.87 333.2 212.639 337.687C215.839 339.535 219.467 340.452 223.389 340.452Z" fill="#396CAA"/>
<path fill-rule="evenodd" clip-rule="evenodd" d="M227.35 167.309L218.865 162.41C218.078 161.955 217.427 160.73 217.409 159.672C217.392 158.615 218.016 158.127 218.803 158.581L227.289 163.48C228.077 163.935 228.728 165.16 228.745 166.217C228.762 167.275 228.138 167.763 227.35 167.309Z" fill="#5793CE"/>
<path fill-rule="evenodd" clip-rule="evenodd" d="M245.368 177.711L232.856 170.486C232.069 170.032 231.417 168.807 231.4 167.75C231.383 166.693 232.007 166.204 232.795 166.658L245.305 173.883C246.093 174.337 246.746 175.562 246.762 176.62C246.78 177.677 246.155 178.165 245.368 177.711Z" fill="#5793CE"/>
<path fill-rule="evenodd" clip-rule="evenodd" d="M226.389 134.969L210.194 125.619C209.406 125.164 208.755 123.939 208.738 122.881C208.721 121.824 209.345 121.336 210.132 121.791L226.327 131.142C227.116 131.596 227.767 132.821 227.784 133.878C227.801 134.936 227.176 135.424 226.389 134.969Z" fill="#5793CE"/>
<path fill-rule="evenodd" clip-rule="evenodd" d="M215.756 144.721L210.455 141.661C209.667 141.206 209.015 139.98 208.998 138.924C208.982 137.866 209.605 137.377 210.393 137.833L215.693 140.893C216.481 141.347 217.133 142.574 217.149 143.63C217.167 144.687 216.542 145.175 215.756 144.721Z" fill="#5793CE"/>
<path fill-rule="evenodd" clip-rule="evenodd" d="M214.117 159.667L210.714 157.703C209.927 157.249 209.275 156.024 209.258 154.966C209.241 153.909 209.865 153.42 210.653 153.875L214.054 155.839C214.843 156.293 215.495 157.52 215.511 158.576C215.529 159.633 214.904 160.121 214.117 159.667Z" fill="#5793CE"/>
<path fill-rule="evenodd" clip-rule="evenodd" d="M235.473 156.105L221.315 147.931C220.527 147.477 219.876 146.252 219.858 145.194C219.841 144.136 220.465 143.649 221.253 144.103L235.41 152.278C236.198 152.732 236.851 153.957 236.866 155.014C236.884 156.072 236.259 156.56 235.473 156.105Z" fill="#5793CE"/>
<path fill-rule="evenodd" clip-rule="evenodd" d="M235 147.886L210.325 133.64C209.537 133.184 208.884 131.96 208.869 130.902C208.85 129.846 209.476 129.357 210.262 129.812L234.937 144.059C235.725 144.513 236.377 145.738 236.393 146.795C236.411 147.853 235.786 148.34 235 147.886Z" fill="#5793CE"/>
<path fill-rule="evenodd" clip-rule="evenodd" d="M224.742 157.856L210.585 149.682C209.798 149.227 209.145 148.002 209.128 146.944C209.11 145.887 209.735 145.399 210.522 145.854L224.679 154.028C225.468 154.482 226.12 155.708 226.137 156.764C226.154 157.822 225.529 158.31 224.742 157.856Z" fill="#5793CE"/>
<path fill-rule="evenodd" clip-rule="evenodd" d="M246.211 162.305L241.067 159.336C240.279 158.881 239.627 157.656 239.612 156.598C239.594 155.541 240.218 155.053 241.005 155.507L246.148 158.477C246.936 158.931 247.589 160.157 247.605 161.214C247.623 162.271 246.998 162.759 246.211 162.305Z" fill="#5793CE"/>
<path fill-rule="evenodd" clip-rule="evenodd" d="M231.555 122.059L223.07 117.161C222.282 116.707 221.631 115.481 221.614 114.423C221.596 113.367 222.221 112.878 223.007 113.332L231.493 118.232C232.281 118.686 232.932 119.912 232.949 120.968C232.967 122.026 232.342 122.514 231.555 122.059Z" fill="#5793CE"/>
<path fill-rule="evenodd" clip-rule="evenodd" d="M251.768 133.73L239.255 126.505C238.469 126.051 237.816 124.825 237.799 123.769C237.782 122.711 238.406 122.223 239.194 122.677L251.705 129.901C252.493 130.356 253.145 131.581 253.161 132.638C253.179 133.696 252.554 134.184 251.768 133.73Z" fill="#5793CE"/>
<path fill-rule="evenodd" clip-rule="evenodd" d="M227.35 167.309L218.865 162.41C218.078 161.955 217.427 160.73 217.409 159.672C217.392 158.615 218.016 158.127 218.803 158.581L227.289 163.48C228.077 163.935 228.728 165.16 228.745 166.217C228.762 167.275 228.138 167.763 227.35 167.309Z" fill="#5793CE"/>
<path fill-rule="evenodd" clip-rule="evenodd" d="M245.368 177.711L232.856 170.486C232.069 170.032 231.417 168.807 231.4 167.75C231.383 166.693 232.007 166.204 232.795 166.658L245.305 173.883C246.093 174.337 246.746 175.562 246.762 176.62C246.78 177.677 246.155 178.165 245.368 177.711Z" fill="#5793CE"/>
<path fill-rule="evenodd" clip-rule="evenodd" d="M208.289 116.572L202.989 113.512C202.201 113.058 201.548 111.831 201.533 110.775C201.515 109.718 202.14 109.23 202.926 109.684L208.227 112.744C209.015 113.199 209.666 114.425 209.683 115.481C209.7 116.539 209.076 117.026 208.289 116.572Z" fill="#5793CE"/>
<path fill-rule="evenodd" clip-rule="evenodd" d="M226.389 134.969L210.194 125.619C209.406 125.164 208.755 123.939 208.738 122.881C208.721 121.824 209.345 121.336 210.132 121.791L226.327 131.142C227.116 131.596 227.767 132.821 227.784 133.878C227.801 134.936 227.176 135.424 226.389 134.969Z" fill="#5793CE"/>
<path fill-rule="evenodd" clip-rule="evenodd" d="M215.756 144.721L210.455 141.661C209.667 141.206 209.015 139.98 208.998 138.924C208.982 137.866 209.605 137.377 210.393 137.833L215.693 140.893C216.481 141.347 217.133 142.574 217.149 143.63C217.167 144.687 216.542 145.175 215.756 144.721Z" fill="#5793CE"/>
<path fill-rule="evenodd" clip-rule="evenodd" d="M251.625 197.215L237.466 189.041C236.68 188.586 236.028 187.361 236.01 186.303C235.993 185.246 236.617 184.758 237.405 185.212L251.562 193.387C252.35 193.841 253.002 195.066 253.019 196.124C253.037 197.181 252.412 197.669 251.625 197.215Z" fill="#5793CE"/>
<path fill-rule="evenodd" clip-rule="evenodd" d="M214.117 159.667L210.714 157.703C209.927 157.249 209.275 156.024 209.258 154.966C209.241 153.909 209.865 153.42 210.653 153.875L214.054 155.839C214.843 156.293 215.495 157.52 215.511 158.576C215.529 159.633 214.904 160.121 214.117 159.667Z" fill="#5793CE"/>
<path fill-rule="evenodd" clip-rule="evenodd" d="M215.2 176.185L210.973 173.746C210.187 173.29 209.535 172.065 209.517 171.008C209.501 169.951 210.124 169.462 210.912 169.916L215.137 172.357C215.925 172.811 216.578 174.036 216.593 175.093C216.611 176.151 215.986 176.639 215.2 176.185Z" fill="#5793CE"/>
<path fill-rule="evenodd" clip-rule="evenodd" d="M231.637 185.675L220.498 179.243C219.71 178.789 219.058 177.563 219.04 176.507C219.024 175.449 219.649 174.96 220.435 175.414L231.575 181.847C232.363 182.301 233.015 183.526 233.032 184.584C233.048 185.642 232.425 186.129 231.637 185.675Z" fill="#5793CE"/>
<path fill-rule="evenodd" clip-rule="evenodd" d="M219.114 186.39L211.105 181.766C210.317 181.311 209.664 180.086 209.649 179.029C209.631 177.972 210.256 177.483 211.042 177.937L219.052 182.563C219.84 183.017 220.492 184.243 220.508 185.299C220.525 186.357 219.901 186.845 219.114 186.39Z" fill="#5793CE"/>
<path fill-rule="evenodd" clip-rule="evenodd" d="M235.473 156.105L221.315 147.931C220.527 147.477 219.876 146.252 219.858 145.194C219.841 144.136 220.465 143.649 221.253 144.103L235.41 152.278C236.198 152.732 236.851 153.957 236.866 155.014C236.884 156.072 236.259 156.56 235.473 156.105Z" fill="#5793CE"/>
<path fill-rule="evenodd" clip-rule="evenodd" d="M235 147.886L210.325 133.64C209.537 133.184 208.884 131.96 208.869 130.902C208.85 129.846 209.476 129.357 210.262 129.812L234.937 144.059C235.725 144.513 236.377 145.738 236.393 146.795C236.411 147.853 235.786 148.34 235 147.886Z" fill="#5793CE"/>
<path fill-rule="evenodd" clip-rule="evenodd" d="M224.742 157.856L210.585 149.682C209.798 149.227 209.145 148.002 209.128 146.944C209.11 145.887 209.735 145.399 210.522 145.854L224.679 154.028C225.468 154.482 226.12 155.708 226.137 156.764C226.154 157.822 225.529 158.31 224.742 157.856Z" fill="#5793CE"/>
<path fill-rule="evenodd" clip-rule="evenodd" d="M246.211 162.305L241.067 159.336C240.279 158.881 239.627 157.656 239.612 156.598C239.594 155.541 240.218 155.053 241.005 155.507L246.148 158.477C246.936 158.931 247.589 160.157 247.605 161.214C247.623 162.271 246.998 162.759 246.211 162.305Z" fill="#5793CE"/>
<path fill-rule="evenodd" clip-rule="evenodd" d="M227.862 175.55L210.844 165.724C210.058 165.27 209.405 164.044 209.388 162.987C209.37 161.93 209.995 161.441 210.782 161.896L227.801 171.721C228.589 172.176 229.24 173.401 229.257 174.459C229.274 175.516 228.65 176.004 227.862 175.55Z" fill="#5793CE"/>
<path fill-rule="evenodd" clip-rule="evenodd" d="M215.369 112.715L202.857 105.49C202.07 105.036 201.419 103.811 201.401 102.754C201.384 101.697 202.008 101.208 202.797 101.662L215.308 108.887C216.095 109.341 216.747 110.566 216.764 111.623C216.781 112.681 216.157 113.169 215.369 112.715Z" fill="#5793CE"/>
<path fill-rule="evenodd" clip-rule="evenodd" d="M218.649 194.068L204.158 185.701C203.37 185.247 202.718 184.021 202.702 182.965C202.685 181.907 203.309 181.42 204.096 181.874L218.586 190.24C219.375 190.694 220.027 191.92 220.042 192.977C220.06 194.034 219.435 194.522 218.649 194.068Z" fill="#5793CE"/>
<path fill-rule="evenodd" clip-rule="evenodd" d="M225.357 243.427L216.872 238.527C216.084 238.073 215.432 236.848 215.415 235.79C215.397 234.733 216.022 234.244 216.809 234.699L225.295 239.598C226.082 240.053 226.734 241.278 226.751 242.336C226.769 243.393 226.144 243.881 225.357 243.427Z" fill="#5793CE"/>
<path fill-rule="evenodd" clip-rule="evenodd" d="M243.373 253.828L230.861 246.605C230.074 246.151 229.423 244.925 229.405 243.867C229.388 242.811 230.012 242.322 230.799 242.777L243.31 250.001C244.099 250.455 244.751 251.681 244.768 252.738C244.785 253.795 244.16 254.284 243.373 253.828Z" fill="#5793CE"/>
<path fill-rule="evenodd" clip-rule="evenodd" d="M224.395 211.088L208.2 201.736C207.412 201.282 206.76 200.057 206.743 198.999C206.727 197.942 207.352 197.454 208.138 197.908L224.334 207.259C225.121 207.714 225.773 208.939 225.79 209.996C225.807 211.054 225.183 211.542 224.395 211.088Z" fill="#5793CE"/>
<path fill-rule="evenodd" clip-rule="evenodd" d="M213.76 220.839L208.461 217.779C207.672 217.325 207.02 216.098 207.003 215.042C206.986 213.985 207.612 213.496 208.398 213.951L213.698 217.01C214.487 217.466 215.138 218.691 215.155 219.748C215.172 220.806 214.547 221.293 213.76 220.839Z" fill="#5793CE"/>
<path fill-rule="evenodd" clip-rule="evenodd" d="M212.122 235.785L208.72 233.821C207.932 233.367 207.28 232.141 207.263 231.084C207.246 230.027 207.871 229.538 208.658 229.992L212.059 231.958C212.848 232.412 213.5 233.637 213.517 234.694C213.534 235.752 212.908 236.239 212.122 235.785Z" fill="#5793CE"/>
<path fill-rule="evenodd" clip-rule="evenodd" d="M233.477 232.223L219.32 224.049C218.532 223.594 217.881 222.369 217.864 221.312C217.846 220.254 218.471 219.766 219.257 220.222L233.415 228.395C234.204 228.849 234.855 230.075 234.872 231.132C234.889 232.189 234.264 232.677 233.477 232.223Z" fill="#5793CE"/>
<path fill-rule="evenodd" clip-rule="evenodd" d="M233.005 224.004L208.33 209.757C207.542 209.303 206.889 208.077 206.873 207.021C206.855 205.963 207.48 205.475 208.267 205.93L232.942 220.176C233.73 220.63 234.383 221.856 234.398 222.913C234.416 223.97 233.791 224.458 233.005 224.004Z" fill="#5793CE"/>
<path fill-rule="evenodd" clip-rule="evenodd" d="M222.747 233.974L208.589 225.799C207.803 225.345 207.15 224.12 207.133 223.063C207.115 222.005 207.74 221.517 208.527 221.971L222.685 230.146C223.473 230.6 224.125 231.825 224.142 232.883C224.159 233.94 223.535 234.428 222.747 233.974Z" fill="#5793CE"/>
<path fill-rule="evenodd" clip-rule="evenodd" d="M244.216 238.423L239.072 235.453C238.285 234.999 237.632 233.774 237.617 232.716C237.599 231.659 238.222 231.171 239.01 231.625L244.153 234.595C244.942 235.049 245.594 236.274 245.611 237.332C245.628 238.389 245.002 238.877 244.216 238.423Z" fill="#5793CE"/>
<path fill-rule="evenodd" clip-rule="evenodd" d="M287.387 420.601L303.103 411.529L318.818 420.601L303.103 429.674L287.387 420.601Z" fill="#D4ECFF"/>
<path fill-rule="evenodd" clip-rule="evenodd" d="M320.745 401.083L336.461 392.011L352.177 401.083L336.461 410.157L320.745 401.083Z" fill="#D4ECFF"/>
<mask id="mask1" mask-type="alpha" maskUnits="userSpaceOnUse" x="354" y="372" width="32" height="20">
<path fill-rule="evenodd" clip-rule="evenodd" d="M354.003 372.959H385.434V391.105H354.003V372.959Z" fill="white"/>
</mask>
<g mask="url(#mask1)">
<path fill-rule="evenodd" clip-rule="evenodd" d="M354.003 382.032L369.718 372.959L385.434 382.032L369.718 391.105L354.003 382.032Z" fill="#D4ECFF"/>
</g>
<path fill-rule="evenodd" clip-rule="evenodd" d="M336.461 401.083V352.693L320.745 343.62V392.011L336.461 401.083Z" fill="#C13D1A"/>
<path fill-rule="evenodd" clip-rule="evenodd" d="M336.461 352.693V352.694L352.177 343.62V392.011L336.461 401.084V401.083L320.745 392.011V343.62L336.461 352.693Z" fill="#0041F1"/>
<path fill-rule="evenodd" clip-rule="evenodd" d="M303.103 393.381V393.381L318.818 384.308V411.528L303.103 420.601V420.601L287.387 411.529V384.307L303.103 393.381Z" fill="#0041F1"/>
<path fill-rule="evenodd" clip-rule="evenodd" d="M287.387 384.308L303.103 375.236L318.818 384.308L303.103 393.381L287.387 384.308Z" fill="#0B74FF"/>
<path fill-rule="evenodd" clip-rule="evenodd" d="M385.434 306.421L369.718 315.495V315.495L354.003 306.422V372.958L369.718 382.032V382.031L385.434 372.958V306.421Z" fill="#0041F1"/>
<path fill-rule="evenodd" clip-rule="evenodd" d="M354.004 306.421L369.719 297.348L385.435 306.421L369.719 315.494L354.004 306.421Z" fill="#0B74FF"/>
<path fill-rule="evenodd" clip-rule="evenodd" d="M320.745 343.62L336.461 334.547L352.177 343.62L336.461 352.693L320.745 343.62Z" fill="#0B74FF"/>
<path fill-rule="evenodd" clip-rule="evenodd" d="M63.8056 329.819C63.8056 329.819 58.9551 327.373 55.9753 331.015C52.9966 334.659 48.7375 343.257 48.6062 349.068C48.4737 354.879 53.2037 354.487 56.0162 353.111C58.8275 351.736 67.042 339.821 67.5395 337.487C68.0369 335.152 66.9529 331.996 66.1628 331.378C65.3726 330.76 63.8056 329.819 63.8056 329.819Z" fill="#5793CE"/>
<path fill-rule="evenodd" clip-rule="evenodd" d="M64.8644 328.65L65.0896 333.676C65.1378 334.746 64.5994 335.762 63.6695 336.291C62.8228 336.772 61.5906 337.14 59.926 336.873C56.2728 336.285 55.9464 335.242 55.685 330.217C55.4236 325.192 64.8644 328.65 64.8644 328.65Z" fill="#D4ECFF"/>
<path fill-rule="evenodd" clip-rule="evenodd" d="M46.0489 320.156C46.0489 320.156 41.1985 317.71 38.2186 321.352C35.2387 324.994 30.9797 333.593 30.8484 339.404C30.7171 345.215 35.4471 344.823 38.2584 343.448C41.0708 342.073 49.2854 330.158 49.7828 327.823C50.2791 325.488 49.195 322.331 48.4049 321.713C47.6148 321.096 46.0489 320.156 46.0489 320.156Z" fill="#5793CE"/>
<path fill-rule="evenodd" clip-rule="evenodd" d="M47.1075 318.987L47.3328 324.013C47.3797 325.082 46.8413 326.099 45.9115 326.627C45.0647 327.108 43.8326 327.476 42.1692 327.209C38.5148 326.622 38.1896 325.578 37.9282 320.553C37.6668 315.528 47.1075 318.987 47.1075 318.987Z" fill="#D4ECFF"/>
<path fill-rule="evenodd" clip-rule="evenodd" d="M90.394 226.715C88.9582 203.353 65.0938 230.153 65.0938 230.153L48.7611 246.162L34.0531 262.319C31.1805 265.473 29.8435 269.733 30.3987 273.965L36.3501 319.269C36.6428 321.507 38.5579 323.157 40.8139 323.139C41.4511 323.133 42.1822 323.075 43.0181 322.945C48.325 322.12 47.9336 317.072 47.9336 317.072L46.8471 274.699L77.7337 256.079C77.7337 256.079 91.8285 250.076 90.394 226.715Z" fill="#173D7A"/>
<path fill-rule="evenodd" clip-rule="evenodd" d="M108.152 235.616C106.716 212.254 82.8517 239.054 82.8517 239.054L66.5189 255.062L51.811 271.219C48.9383 274.374 47.6013 278.635 48.1566 282.865L54.1067 328.17C54.4006 330.407 56.3145 332.058 58.5717 332.04C59.2089 332.035 59.94 331.976 60.7759 331.847C66.0829 331.021 65.6914 325.974 65.6914 325.974L64.6038 283.6L95.4915 264.98C95.4915 264.98 109.586 258.978 108.152 235.616Z" fill="#173D7A"/>
<path fill-rule="evenodd" clip-rule="evenodd" d="M94.0333 160.625C112.126 168.126 111.763 178.821 111.763 178.821C111.763 178.821 108.219 218.029 109.428 244.213C109.934 255.16 51.2694 255.997 60.0188 226.793C70.334 192.358 66.4676 164.483 71.2963 160.278C76.1251 156.074 89.3527 158.684 94.0333 160.625Z" fill="#5793CE"/>
<path fill-rule="evenodd" clip-rule="evenodd" d="M99.8542 170.108C98.9075 173.781 94.0944 175.717 89.103 174.432C84.1129 173.145 80.8343 169.126 81.781 165.452C82.7265 161.779 87.5396 159.843 92.531 161.128C97.5211 162.415 100.8 166.434 99.8542 170.108Z" fill="#FFC2B0"/>
<path fill-rule="evenodd" clip-rule="evenodd" d="M89.434 161.595C86.0735 161.595 83.2646 163.158 82.6178 165.669C82.2312 167.172 82.6816 168.814 83.8861 170.291C85.1532 171.845 87.0828 173.018 89.3195 173.594C93.8351 174.757 98.1905 173.096 99.0168 169.891C99.4035 168.388 98.9518 166.747 97.7485 165.269C96.4814 163.716 94.5518 162.542 92.3151 161.965C91.3358 161.714 90.3626 161.595 89.434 161.595ZM92.1585 175.691C91.0974 175.691 89.9953 175.553 88.8871 175.269C86.2975 174.602 84.0439 173.221 82.5443 171.383C80.9833 169.469 80.4148 167.287 80.9436 165.236C82.0059 161.107 87.3008 158.886 92.7463 160.291C95.3371 160.959 97.5895 162.339 99.0891 164.177C100.651 166.091 101.22 168.275 100.691 170.323C99.8455 173.613 96.3116 175.691 92.1585 175.691Z" fill="white"/>
<path fill-rule="evenodd" clip-rule="evenodd" d="M86.779 159.809C86.779 159.809 86.9356 160.535 86.6212 166.267C86.5237 168.07 92.834 169.754 94.466 168.122C96.0969 166.491 95.4441 164.794 95.8367 158.66C96.2282 152.527 86.779 159.809 86.779 159.809Z" fill="#FFC2B0"/>
<path fill-rule="evenodd" clip-rule="evenodd" d="M95.8366 158.66C95.8366 158.66 94.2828 164.348 86.6211 166.529L86.7367 161.361L95.8366 158.66Z" fill="#EA9C92"/>
<path fill-rule="evenodd" clip-rule="evenodd" d="M100.69 144.21C102.616 151.656 98.1397 159.254 90.6924 161.179C83.2463 163.105 75.6485 158.629 73.7225 151.183C71.7989 143.735 76.2736 136.138 83.7209 134.213C91.167 132.288 98.7637 136.763 100.69 144.21Z" fill="#FFC2B0"/>
<path fill-rule="evenodd" clip-rule="evenodd" d="M90.4052 148.207C90.4052 148.207 82.7375 151.492 77.4281 151.529C72.1176 151.567 73.2883 147.12 73.2883 147.12L89.049 144.843L90.4052 148.207Z" fill="#EA9C92"/>
<path fill-rule="evenodd" clip-rule="evenodd" d="M75.8463 149.073C75.8463 149.073 82.5252 146.237 88.385 147.419C89.7629 147.697 91.0384 148.434 91.9262 149.524C92.2164 149.88 92.5826 150.205 92.9969 150.299C94.0364 150.534 95.7383 146.223 97.757 146.125C99.777 146.027 101.124 147.456 99.4686 150.107C97.8125 152.76 98.3725 155.726 99.1338 156.151C99.8962 156.577 107.978 150.388 100.849 136.265C93.7208 122.143 75.6126 129.75 72.7954 132.611C72.7954 132.611 69.8275 135.196 67.4149 132.896C67.4149 132.896 64.7109 153.157 75.8463 149.073Z" fill="url(#paint0_linear)"/>
<path fill-rule="evenodd" clip-rule="evenodd" d="M101.613 207.466V218.06C101.613 219.275 101.103 220.432 100.205 221.25L78.4414 241.093L80.913 244.873L109.657 224.029C110.997 223.055 111.863 221.559 112.036 219.912L113.98 201.435L101.613 207.466Z" fill="#FFC2B0"/>
<path fill-rule="evenodd" clip-rule="evenodd" d="M110.232 173.523C110.232 173.523 116.833 183.453 119.293 209.59C119.293 209.59 108.014 213.238 101.614 211.168C95.2117 209.097 110.232 173.523 110.232 173.523Z" fill="#5793CE"/>
<path fill-rule="evenodd" clip-rule="evenodd" d="M100.409 186.078C100.409 186.078 97.824 199.913 97.6759 206.415C97.6361 208.201 98.7274 209.815 100.409 210.422V186.078Z" fill="#396CAA"/>
<path fill-rule="evenodd" clip-rule="evenodd" d="M94.7613 254.868L89.9506 254.233L58.9003 236.306C57.903 235.731 56.1649 235.802 55.0158 236.467L33.0123 249.166L30.1035 248.781V251.678L30.1059 251.679C30.0879 252.059 30.3047 252.427 30.7744 252.697L65.9658 273.014C66.9607 273.589 68.6987 273.517 69.8478 272.854L93.811 259.024C94.4578 258.65 94.7806 258.168 94.7613 257.717V254.868Z" fill="#5793CE"/>
<path fill-rule="evenodd" clip-rule="evenodd" d="M71.4305 243.541L69.2239 242.267H44.9692L33.0123 249.166L30.1035 248.782V251.677L30.1059 251.678C30.0879 252.059 30.3047 252.426 30.7744 252.697L65.9658 273.015C66.4909 273.318 67.2256 273.44 67.97 273.39L71.4305 243.541Z" fill="#396CAA"/>
<path fill-rule="evenodd" clip-rule="evenodd" d="M31.3945 248.952L30.1045 248.781V251.677L30.1069 251.679C30.0876 252.059 30.3056 252.427 30.7742 252.696L31.3945 253.055V248.952Z" fill="#5793CE"/>
<path fill-rule="evenodd" clip-rule="evenodd" d="M66.3193 273.179C67.2624 273.537 68.6115 273.458 69.6184 272.974V268.048H66.3193V273.179Z" fill="white"/>
<path fill-rule="evenodd" clip-rule="evenodd" d="M65.9653 270.121L30.774 249.804C29.7791 249.228 29.9043 248.224 31.0534 247.562L55.0154 233.731C56.1644 233.067 57.9037 232.995 58.8998 233.57L94.09 253.887C95.0861 254.462 94.9596 255.466 93.8105 256.129L69.8486 269.959C68.6995 270.623 66.9602 270.696 65.9653 270.121Z" fill="white"/>
<path fill-rule="evenodd" clip-rule="evenodd" d="M65.369 267.041L36.1086 250.148C35.2811 249.669 35.3847 248.836 36.3398 248.284L49.182 241.062C50.1371 240.51 51.5837 240.45 52.41 240.928L81.6717 257.822C82.4992 258.3 82.3956 259.135 81.4404 259.687L68.5994 266.908C67.6431 267.459 66.1965 267.518 65.369 267.041Z" fill="#D4ECFF"/>
<path fill-rule="evenodd" clip-rule="evenodd" d="M56.3762 233.064L56.0112 235.492C55.7005 237.56 55.7547 239.668 56.1702 241.718L56.6026 243.857C56.8483 245.064 57.8035 246 59.014 246.222C59.9607 246.393 60.8545 245.729 60.9617 244.774L61.5422 239.583C61.5422 239.583 62.8708 241.322 63.5115 241.322C64.1523 241.322 62.7937 236.125 61.3435 233.182C59.8933 230.24 56.3762 233.064 56.3762 233.064Z" fill="#FFC2B0"/>
<path fill-rule="evenodd" clip-rule="evenodd" d="M68.3048 194.474L64.5288 201.947C63.635 203.714 63.1111 205.644 62.9834 207.619L61.3441 233.182L56.3768 233.064L54.122 204.358C54.051 203.471 54.0943 202.579 54.2497 201.703L56.8249 187.147L68.3048 194.474Z" fill="#FFC2B0"/>
<path fill-rule="evenodd" clip-rule="evenodd" d="M64.7726 272.072L61.8228 268.22L30.7917 250.255C29.798 249.678 28.9922 248.135 28.9946 246.808L29.0211 221.404L27.2373 219.075L28.9139 218.104V218.106C29.2355 217.899 29.6631 217.904 30.1317 218.176L65.2977 238.537C66.2926 239.113 67.0984 240.656 67.096 241.983L67.0659 269.65C67.0647 270.395 66.8093 270.916 66.4083 271.125L64.7726 272.072Z" fill="#173D7A"/>
<path fill-rule="evenodd" clip-rule="evenodd" d="M43.3147 257.504L41.1105 256.227L29.0091 235.209L29.0223 221.404L27.2373 219.075L28.9139 218.104L28.9151 218.107C29.2367 217.9 29.6631 217.904 30.1329 218.177L65.2977 238.536C65.8229 238.841 66.295 239.417 66.6239 240.086L43.3147 257.504Z" fill="#396CAA"/>
<path fill-rule="evenodd" clip-rule="evenodd" d="M28.0286 220.108L27.2373 219.075L28.9127 218.104L28.9139 218.106C29.2355 217.899 29.6619 217.904 30.1317 218.176L30.752 218.535L28.0286 220.108Z" fill="#5793CE"/>
<path fill-rule="evenodd" clip-rule="evenodd" d="M65.6174 238.762C66.3979 239.4 67.0037 240.608 67.0868 241.724L63.6492 243.707L62.0039 240.848L65.6174 238.762Z" fill="#274F89"/>
<path fill-rule="evenodd" clip-rule="evenodd" d="M63.6235 239.506L28.4575 219.146C27.4626 218.57 26.6556 219.18 26.6532 220.507L26.623 248.174C26.6218 249.501 27.4264 251.044 28.4213 251.62L63.5874 271.98C64.5823 272.555 65.3905 271.948 65.3917 270.619L65.4206 242.952C65.423 241.625 64.6172 240.082 63.6235 239.506Z" fill="#5793CE"/>
<path fill-rule="evenodd" clip-rule="evenodd" d="M80.9132 244.874L80.3495 246.042C79.7015 247.386 78.6813 248.516 77.4106 249.3L73.9176 251.454C72.8311 252.123 71.4544 252.178 70.3511 251.536C70.3126 251.513 70.2728 251.489 70.2331 251.465C69.1225 250.768 69.0226 249.174 69.9368 248.235L73.5863 244.482C73.5863 244.482 71.5351 246.053 70.9606 245.421C70.5402 244.957 72.9504 242.694 74.8005 242.62C76.6505 242.545 78.4404 241.093 78.4404 241.093L80.9132 244.874Z" fill="#FFC2B0"/>
<path fill-rule="evenodd" clip-rule="evenodd" d="M71.6582 160.224C71.6582 160.224 58.2764 174.783 52.8779 188.141C52.8779 188.141 57.455 196.384 68.6554 199.62C79.8559 202.855 71.6582 160.224 71.6582 160.224Z" fill="#5793CE"/>
<path fill-rule="evenodd" clip-rule="evenodd" d="M66.1357 198.756L68.305 177.804L63.1943 197.433C64.1037 197.908 65.0902 198.35 66.1357 198.756Z" fill="#396CAA"/>
<path fill-rule="evenodd" clip-rule="evenodd" d="M127.978 413.348C121.821 416.904 111.838 416.904 105.68 413.348C99.5224 409.794 99.5212 404.029 105.678 400.475C111.837 396.918 121.821 396.919 127.978 400.475C134.136 404.029 134.136 409.794 127.978 413.348ZM141.084 392.907C127.688 385.173 105.97 385.173 92.5725 392.907C79.1775 400.641 79.1775 413.181 92.5737 420.915C105.97 428.649 127.689 428.649 141.085 420.915C154.48 413.181 154.48 400.641 141.084 392.907Z" fill="#D4ECFF"/>
<path fill-rule="evenodd" clip-rule="evenodd" d="M87.5146 388.325L99.7497 388.515C100.656 387.338 101.942 386.232 103.615 385.266C110.343 381.381 120.923 381.081 128.254 384.361L135.525 377.522L146.721 377.696C146.168 377.335 145.601 376.977 145.001 376.631C129.443 367.648 104.216 367.648 88.6577 376.63C85.7958 378.283 83.4664 380.124 81.6572 382.084L87.5146 388.325Z" fill="#0041F1"/>
<path fill-rule="evenodd" clip-rule="evenodd" d="M128.254 366.591V384.361L135.525 377.522V359.752L128.254 366.591Z" fill="#0041F1"/>
<path fill-rule="evenodd" clip-rule="evenodd" d="M99.7496 370.747V388.515L115.846 375.398L128.254 384.361V366.591L116.829 361.048C116.829 361.048 101.101 365.863 100.283 366.067C99.4665 366.272 99.7496 370.747 99.7496 370.747Z" fill="#0041F1"/>
<path fill-rule="evenodd" clip-rule="evenodd" d="M87.5146 370.556V388.325L99.7498 388.515V370.746L87.5146 370.556Z" fill="#0041F1"/>
<path fill-rule="evenodd" clip-rule="evenodd" d="M146.721 359.928V377.696L135.525 377.521V359.752L146.721 359.928Z" fill="#4092FF"/>
<path fill-rule="evenodd" clip-rule="evenodd" d="M81.6562 364.316V382.085L87.5136 388.325V370.557L81.6562 364.316Z" fill="#4092FF"/>
<path fill-rule="evenodd" clip-rule="evenodd" d="M87.5146 370.556L99.7497 370.746C100.656 369.568 101.942 368.464 103.615 367.497C110.343 363.612 120.923 363.312 128.254 366.591L135.525 359.752L146.721 359.928C146.168 359.565 145.601 359.209 145.001 358.862C129.443 349.88 104.216 349.879 88.6577 358.862C85.7958 360.513 83.4664 362.355 81.6572 364.316L87.5146 370.556Z" fill="#0B74FF"/>
<path fill-rule="evenodd" clip-rule="evenodd" d="M131.94 368.776V385.112L142.533 382.574C142.533 382.574 141.91 373.016 141.685 372.761C141.459 372.504 131.94 368.776 131.94 368.776Z" fill="#5793CE"/>
<path fill-rule="evenodd" clip-rule="evenodd" d="M123.924 385.111V402.88L125.068 404.1L132.536 399.794C132.536 399.794 131.377 386.23 131.241 385.957C131.105 385.686 123.924 385.111 123.924 385.111Z" fill="#173D7A"/>
<path fill-rule="evenodd" clip-rule="evenodd" d="M138.344 380.524L131.941 386.546C137.274 390.765 136.644 396.716 130.044 400.525C128.237 401.57 126.151 402.354 123.924 402.88L130.542 409.931L124.679 415.446C132.125 414.586 139.229 412.493 145.001 409.16C158.377 401.438 160.243 389.595 150.62 380.715L138.344 380.524Z" fill="#396CAA"/>
<path fill-rule="evenodd" clip-rule="evenodd" d="M124.679 397.677V415.447L139.199 409.84L156.663 393.178L156.597 374.31L138.121 388.955L124.679 397.677Z" fill="#396CAA"/>
<path fill-rule="evenodd" clip-rule="evenodd" d="M138.344 362.754L131.941 368.776C137.274 372.997 136.644 378.946 130.044 382.756C128.237 383.801 126.151 384.584 123.924 385.112L130.542 392.163L124.679 397.677C132.125 396.818 139.229 394.725 145.001 391.392C158.377 383.67 160.243 371.826 150.62 362.946L138.344 362.754Z" fill="#D4ECFF"/>
<path fill-rule="evenodd" clip-rule="evenodd" d="M124.631 409.839L118.798 403.624C113.382 403.953 107.766 402.922 103.615 400.526C99.3273 398.05 97.5615 394.671 98.3107 391.451L84.4194 391.235L79.0787 385.544C74.4066 393.562 77.5936 402.773 88.6592 409.161C96.7894 413.854 107.559 416.089 118.21 415.879L124.631 409.839Z" fill="#396CAA"/>
<path fill-rule="evenodd" clip-rule="evenodd" d="M118.209 398.11V415.878L76.998 393.041V375.263L83.0156 377.696L118.209 398.11Z" fill="#396CAA"/>
<path fill-rule="evenodd" clip-rule="evenodd" d="M124.631 392.07V409.84L118.21 415.879V398.11L124.631 392.07Z" fill="#173D7A"/>
<path fill-rule="evenodd" clip-rule="evenodd" d="M124.631 392.07L118.798 385.856C113.382 386.183 107.766 385.152 103.615 382.757C99.3273 380.282 97.5615 376.903 98.3107 373.682L84.4194 373.465L79.0787 367.774C74.4066 375.794 77.5936 385.003 88.6592 391.392C96.7894 396.086 107.559 398.321 118.21 398.11L124.631 392.07Z" fill="#5793CE"/>
<path fill-rule="evenodd" clip-rule="evenodd" d="M298.808 93.4877L262.257 72.3851C261.534 71.9684 260.88 71.9527 260.369 72.2334C260.369 72.231 260.371 72.2105 260.371 72.2105L256.826 74.2593C256.826 74.2593 258.394 74.8314 259.317 75.1699V101.787C259.317 103.952 260.634 106.467 262.257 107.405L297.193 127.576V130.699L300.775 128.636L300.755 128.628C301.361 128.26 301.749 127.449 301.749 126.284V99.1066C301.749 96.9409 300.432 94.426 298.808 93.4877Z" fill="#0041F1"/>
<path fill-rule="evenodd" clip-rule="evenodd" d="M295.197 130.589L258.647 109.487C257.024 108.549 255.707 106.033 255.707 103.868V76.6897C255.707 74.5241 257.024 73.5292 258.647 74.4663L295.197 95.5688C296.822 96.5071 298.137 99.022 298.137 101.188V128.366C298.137 130.531 296.822 131.526 295.197 130.589Z" fill="#0B74FF"/>
<path fill-rule="evenodd" clip-rule="evenodd" d="M270.938 100.121C270.938 101.694 269.835 102.331 268.473 101.545C267.11 100.758 266.006 98.8457 266.006 97.2738C266.006 95.7008 267.11 95.0636 268.473 95.8501C269.835 96.6355 270.938 98.5482 270.938 100.121Z" fill="white"/>
<path fill-rule="evenodd" clip-rule="evenodd" d="M278.409 104.434C278.409 106.008 277.304 106.645 275.942 105.858C274.58 105.072 273.477 103.159 273.477 101.587C273.477 100.014 274.58 99.3769 275.942 100.163C277.304 100.949 278.409 102.861 278.409 104.434Z" fill="white"/>
<path fill-rule="evenodd" clip-rule="evenodd" d="M285.88 108.748C285.88 110.321 284.776 110.958 283.414 110.172C282.052 109.385 280.947 107.472 280.947 105.9C280.947 104.327 282.052 103.69 283.414 104.477C284.776 105.262 285.88 107.175 285.88 108.748Z" fill="white"/>
<path fill-rule="evenodd" clip-rule="evenodd" d="M121.086 51.9736L85.229 31.2722C84.5196 30.8615 83.8776 30.8458 83.3753 31.1228C83.3753 31.1204 83.3777 31.1 83.3777 31.1L79.9004 33.109C79.9004 33.109 81.4397 33.6703 82.3443 34.0028V60.1147C82.3443 62.2394 83.6355 64.7074 85.229 65.6264L119.503 85.4149V88.4779L123.016 86.4543L122.997 86.4483C123.589 86.0858 123.971 85.2908 123.971 84.1478V57.4865C123.971 55.3618 122.679 52.8939 121.086 51.9736Z" fill="#5793CE"/>
<path fill-rule="evenodd" clip-rule="evenodd" d="M117.545 88.3704L81.6863 67.669C80.0939 66.7488 78.8027 64.2808 78.8027 62.1561V35.4949C78.8027 33.369 80.0939 32.3933 81.6863 33.3136L117.545 54.015C119.137 54.9352 120.43 57.4032 120.43 59.5279V86.1891C120.43 88.3138 119.137 89.2906 117.545 88.3704Z" fill="#D4ECFF"/>
<path fill-rule="evenodd" clip-rule="evenodd" d="M93.7459 58.4807C93.7459 60.0237 92.663 60.6488 91.3261 59.8779C89.9903 59.1058 88.9062 57.2293 88.9062 55.6875C88.9062 54.1446 89.9903 53.5195 91.3261 54.2903C92.663 55.0624 93.7459 56.9378 93.7459 58.4807Z" fill="white"/>
<path fill-rule="evenodd" clip-rule="evenodd" d="M101.075 62.7123C101.075 64.2553 99.9921 64.8804 98.6552 64.1095C97.3194 63.3374 96.2354 61.4609 96.2354 59.9191C96.2354 58.3762 97.3194 57.7498 98.6552 58.5219C99.9921 59.294 101.075 61.1694 101.075 62.7123Z" fill="white"/>
<path fill-rule="evenodd" clip-rule="evenodd" d="M108.405 66.9438C108.405 68.4867 107.322 69.1118 105.985 68.341C104.649 67.5689 103.565 65.6923 103.565 64.1506C103.565 62.6076 104.649 61.9813 105.985 62.7534C107.322 63.5254 108.405 65.4008 108.405 66.9438Z" fill="white"/>
<defs>
<linearGradient id="paint0_linear" x1="88.0552" y1="162.512" x2="137.55" y2="140.322" gradientUnits="userSpaceOnUse">
<stop stop-color="#FFA600"/>
<stop offset="1" stop-color="#FFCC00"/>
</linearGradient>
</defs>
</svg>
