<svg width="387" height="430" viewBox="0 0 387 430" fill="none" xmlns="http://www.w3.org/2000/svg">
<path fill-rule="evenodd" clip-rule="evenodd" d="M300.514 250.908C306.054 254.106 315.034 254.106 320.572 250.908C326.111 247.711 326.113 242.526 320.573 239.327C315.034 236.129 306.054 236.129 300.514 239.327C294.975 242.526 294.975 247.711 300.514 250.908ZM288.724 232.521C300.775 225.564 320.314 225.564 332.363 232.52C344.413 239.478 344.413 250.757 332.362 257.715C320.312 264.673 300.775 264.673 288.724 257.716C276.675 250.759 276.675 239.478 288.724 232.521Z" fill="#D4ECFF"/>
<path fill-rule="evenodd" clip-rule="evenodd" d="M325.907 212.586V213.81C325.908 213.81 325.908 213.81 325.908 213.81V212.586L336.914 212.414V218.498C339.023 219.82 340.778 221.263 342.183 222.785L336.914 228.398L325.908 228.57L325.907 228.569V228.57L322.075 225.447C316.01 222.144 306.734 221.939 300.268 224.831L300.266 224.832V224.831L293.725 218.681L283.654 218.837C284.151 218.512 284.663 218.191 285.202 217.88C287.783 216.39 290.661 215.174 293.726 214.233V202.696L300.266 208.847L310.543 203.861C310.543 203.861 324.692 208.193 325.428 208.378C326.162 208.56 325.907 212.586 325.907 212.586Z" fill="#0041F1"/>
<path fill-rule="evenodd" clip-rule="evenodd" d="M283.654 202.853V218.837L293.726 218.681V202.696L283.654 202.853Z" fill="#4092FF"/>
<path fill-rule="evenodd" clip-rule="evenodd" d="M342.184 206.801V222.785L336.915 228.398V212.414L342.184 206.801Z" fill="#4092FF"/>
<path fill-rule="evenodd" clip-rule="evenodd" d="M336.914 212.414L325.908 212.586C325.093 211.526 323.937 210.532 322.432 209.663C316.378 206.168 306.86 205.898 300.266 208.847L293.725 202.697L283.654 202.853C284.151 202.528 284.663 202.207 285.202 201.896C299.197 193.816 321.89 193.814 335.885 201.895C338.459 203.381 340.556 205.038 342.183 206.801L336.914 212.414Z" fill="#0B74FF"/>
<path fill-rule="evenodd" clip-rule="evenodd" d="M296.951 210.814V225.508L287.422 223.225C287.422 223.225 287.982 214.627 288.186 214.397C288.387 214.167 296.951 210.814 296.951 210.814Z" fill="#5793CE"/>
<path fill-rule="evenodd" clip-rule="evenodd" d="M304.161 225.508V241.492L303.131 242.588L296.414 238.716C296.414 238.716 297.456 226.514 297.578 226.269C297.7 226.024 304.161 225.508 304.161 225.508Z" fill="#173D7A"/>
<path fill-rule="evenodd" clip-rule="evenodd" d="M291.191 221.381L296.951 226.798C292.153 230.594 292.72 235.947 298.656 239.374C300.281 240.312 302.158 241.017 304.161 241.491L298.208 247.835L303.484 252.795C296.785 252.022 290.394 250.139 285.201 247.142C273.17 240.195 271.492 229.541 280.146 221.554L291.191 221.381Z" fill="#396CAA"/>
<path fill-rule="evenodd" clip-rule="evenodd" d="M303.483 236.812V252.795L290.422 247.752L274.712 232.764L274.77 215.791L291.39 228.965L303.483 236.812Z" fill="#396CAA"/>
<path fill-rule="evenodd" clip-rule="evenodd" d="M291.191 205.397L296.951 210.814C292.153 214.609 292.72 219.963 298.656 223.389C300.281 224.328 302.158 225.033 304.161 225.508L298.208 231.85L303.484 236.811C296.785 236.038 290.394 234.155 285.201 231.157C273.17 224.211 271.492 213.557 280.146 205.57L291.191 205.397Z" fill="#D4ECFF"/>
<path fill-rule="evenodd" clip-rule="evenodd" d="M303.525 247.752L308.772 242.161C313.645 242.458 318.697 241.529 322.43 239.373C326.288 237.147 327.875 234.108 327.202 231.211L339.697 231.016L344.502 225.897C348.706 233.11 345.838 241.395 335.884 247.141C328.571 251.363 318.883 253.374 309.302 253.185L303.525 247.752Z" fill="#396CAA"/>
<path fill-rule="evenodd" clip-rule="evenodd" d="M309.301 237.201V253.184L346.372 232.641V216.649L340.96 218.838L309.301 237.201Z" fill="#396CAA"/>
<path fill-rule="evenodd" clip-rule="evenodd" d="M303.526 231.768V247.751L309.302 253.184V237.201L303.526 231.768Z" fill="#173D7A"/>
<path fill-rule="evenodd" clip-rule="evenodd" d="M303.525 231.768L308.772 226.178C313.645 226.474 318.697 225.545 322.43 223.389C326.288 221.163 327.875 218.124 327.202 215.227L339.697 215.032L344.502 209.913C348.706 217.126 345.838 225.411 335.884 231.157C328.571 235.379 318.883 237.39 309.302 237.201L303.525 231.768Z" fill="#5793CE"/>
<path fill-rule="evenodd" clip-rule="evenodd" d="M158.704 355.26L215.08 322.712C218.539 320.713 218.105 317.225 214.11 314.919L159.675 283.49C155.679 281.183 149.635 280.933 146.176 282.93L89.7999 315.478C86.3406 317.477 86.773 320.965 90.7698 323.272L145.205 354.701C149.2 357.007 155.243 357.258 158.704 355.26Z" fill="#D4ECFF"/>
<path fill-rule="evenodd" clip-rule="evenodd" d="M71.0978 290.688V266.33L125.716 266.3L144.596 255.399C148.929 252.897 156.496 253.211 161.499 256.099L179.114 266.268L233.782 266.239V291.289C233.904 292.983 232.96 294.617 230.878 295.819L160.283 336.576C155.95 339.078 148.382 338.764 143.38 335.875L75.2142 296.521C72.3286 294.854 70.9359 292.696 71.0978 290.688Z" fill="#396CAA"/>
<path fill-rule="evenodd" clip-rule="evenodd" d="M152.438 253.723C155.61 253.8 158.9 254.6 161.499 256.1L179.114 266.269L233.782 266.239V291.29C233.904 292.983 232.96 294.616 230.878 295.819L160.283 336.576C158.201 337.779 155.372 338.324 152.438 338.252V253.723Z" fill="#396CAA"/>
<path fill-rule="evenodd" clip-rule="evenodd" d="M227.592 266.241L233.78 266.239V291.289C233.904 292.984 232.959 294.617 230.878 295.818L227.592 297.715V266.241Z" fill="#5793CE"/>
<path fill-rule="evenodd" clip-rule="evenodd" d="M159.195 337.109C155.458 338.71 150.053 338.621 145.683 336.955V308.51H159.195V337.109Z" fill="#5793CE"/>
<path fill-rule="evenodd" clip-rule="evenodd" d="M160.283 311.617L230.878 270.858C235.21 268.357 234.667 263.987 229.664 261.099L161.499 221.743C156.496 218.855 148.929 218.541 144.596 221.042L74.0003 261.801C69.6677 264.302 70.2113 268.671 75.2142 271.56L143.38 310.915C148.382 313.804 155.95 314.117 160.283 311.617Z" fill="#D4ECFF"/>
<path fill-rule="evenodd" clip-rule="evenodd" d="M159.012 304.28L218.172 270.125C221.802 268.028 221.346 264.366 217.154 261.945L160.031 228.966C155.838 226.545 149.496 226.282 145.865 228.379L86.7066 262.533C83.0758 264.63 83.5312 268.293 87.7225 270.713L144.846 303.693C149.039 306.113 155.381 306.375 159.012 304.28Z" fill="#5793CE"/>
<path fill-rule="evenodd" clip-rule="evenodd" d="M97.0631 297.115C97.0631 298.934 98.3398 301.145 99.9136 302.054C101.489 302.964 102.767 302.226 102.767 300.409C102.767 298.59 101.489 296.38 99.9136 295.47C98.3398 294.561 97.0631 295.297 97.0631 297.115Z" fill="#D4ECFF"/>
<path fill-rule="evenodd" clip-rule="evenodd" d="M87.8895 291.819C87.8895 293.638 89.1662 295.848 90.74 296.758C92.3151 297.667 93.5918 296.929 93.5918 295.112C93.5918 293.294 92.3151 291.082 90.74 290.173C89.1662 289.264 87.8895 290 87.8895 291.819Z" fill="#D4ECFF"/>
<path fill-rule="evenodd" clip-rule="evenodd" d="M78.7154 286.523C78.7154 288.341 79.9921 290.552 81.566 291.462C83.1422 292.37 84.4189 291.633 84.4189 289.815C84.4189 287.996 83.1422 285.786 81.566 284.876C79.9921 283.967 78.7154 284.704 78.7154 286.523Z" fill="#D4ECFF"/>
<path fill-rule="evenodd" clip-rule="evenodd" d="M71.0978 251.761V227.403L125.716 227.373L144.596 216.473C148.929 213.972 156.496 214.286 161.499 217.174L179.114 227.343L233.782 227.313V252.364C233.904 254.056 232.96 255.69 230.878 256.892L160.283 297.65C155.95 300.152 148.382 299.839 143.38 296.95L75.2142 257.595C72.3286 255.928 70.9359 253.771 71.0978 251.761Z" fill="#396CAA"/>
<path fill-rule="evenodd" clip-rule="evenodd" d="M152.438 214.797C155.61 214.874 158.9 215.673 161.499 217.175L179.114 227.344L233.782 227.312V252.364C233.904 254.057 232.96 255.69 230.878 256.893L160.283 297.651C158.201 298.853 155.372 299.398 152.438 299.326V214.797Z" fill="#396CAA"/>
<path fill-rule="evenodd" clip-rule="evenodd" d="M227.592 227.316L233.78 227.312V252.364C233.904 254.057 232.959 255.69 230.878 256.892L227.592 258.789V227.316Z" fill="#5793CE"/>
<path fill-rule="evenodd" clip-rule="evenodd" d="M159.195 298.184C155.458 299.784 150.053 299.695 145.683 298.029V269.585H159.195V298.184Z" fill="#5793CE"/>
<path fill-rule="evenodd" clip-rule="evenodd" d="M160.283 272.69L230.878 231.932C235.21 229.43 234.667 225.062 229.664 222.172L161.499 182.818C156.496 179.93 148.929 179.616 144.596 182.117L74.0003 222.875C69.6677 225.377 70.2113 229.746 75.2142 232.634L143.38 271.989C148.382 274.879 155.95 275.192 160.283 272.69Z" fill="#D4ECFF"/>
<path fill-rule="evenodd" clip-rule="evenodd" d="M159.012 265.354L218.172 231.198C221.802 229.103 221.346 225.441 217.154 223.02L160.031 190.04C155.838 187.62 149.496 187.357 145.865 189.453L86.7066 223.608C83.0758 225.705 83.5312 229.366 87.7225 231.787L144.846 264.767C149.039 267.188 155.381 267.45 159.012 265.354Z" fill="#5793CE"/>
<path fill-rule="evenodd" clip-rule="evenodd" d="M97.0631 258.19C97.0631 260.009 98.3398 262.219 99.9136 263.129C101.489 264.038 102.767 263.3 102.767 261.482C102.767 259.665 101.489 257.453 99.9136 256.543C98.3398 255.635 97.0631 256.371 97.0631 258.19Z" fill="#D4ECFF"/>
<path fill-rule="evenodd" clip-rule="evenodd" d="M87.8895 252.894C87.8895 254.711 89.1662 256.923 90.74 257.833C92.3151 258.741 93.5918 258.003 93.5918 256.186C93.5918 254.367 92.3151 252.157 90.74 251.247C89.1662 250.338 87.8895 251.075 87.8895 252.894Z" fill="#D4ECFF"/>
<path fill-rule="evenodd" clip-rule="evenodd" d="M78.7154 247.596C78.7154 249.415 79.9921 251.626 81.566 252.535C83.1422 253.445 84.4189 252.707 84.4189 250.89C84.4189 249.071 83.1422 246.861 81.566 245.951C79.9921 245.042 78.7154 245.778 78.7154 247.596Z" fill="#D4ECFF"/>
<path fill-rule="evenodd" clip-rule="evenodd" d="M71.0978 212.836V188.478L125.716 188.448L144.596 177.548C148.929 175.045 156.496 175.359 161.499 178.249L179.114 188.418L233.782 188.387V213.439C233.904 215.131 232.96 216.765 230.878 217.967L160.283 258.725C155.95 261.227 148.382 260.913 143.38 258.025L75.2142 218.67C72.3286 217.003 70.9359 214.845 71.0978 212.836Z" fill="#396CAA"/>
<path fill-rule="evenodd" clip-rule="evenodd" d="M152.438 175.872C155.61 175.949 158.9 176.747 161.499 178.249L179.114 188.418L233.782 188.387V213.439C233.904 215.131 232.96 216.765 230.878 217.967L160.283 258.725C158.201 259.927 155.372 260.473 152.438 260.402V175.872Z" fill="#396CAA"/>
<path fill-rule="evenodd" clip-rule="evenodd" d="M227.592 188.39L233.78 188.388V213.438C233.904 215.131 232.959 216.765 230.878 217.967L227.592 219.863V188.39Z" fill="#5793CE"/>
<path fill-rule="evenodd" clip-rule="evenodd" d="M159.195 259.257C155.458 260.859 150.053 260.77 145.683 259.104V230.66H159.195V259.257Z" fill="#5793CE"/>
<path fill-rule="evenodd" clip-rule="evenodd" d="M160.283 233.765L230.878 193.007C235.21 190.505 234.667 186.135 229.664 183.247L161.499 143.892C156.496 141.003 148.929 140.689 144.596 143.192L74.0003 183.949C69.6677 186.452 70.2113 190.82 75.2142 193.708L143.38 233.063C148.382 235.952 155.95 236.266 160.283 233.765Z" fill="#D4ECFF"/>
<path fill-rule="evenodd" clip-rule="evenodd" d="M114.217 206.207L163.328 175.872L178.608 205.1L174.368 220.839L157.82 231.542L114.217 206.207Z" fill="#5793CE"/>
<path fill-rule="evenodd" clip-rule="evenodd" d="M75.2148 188.915L143.381 228.271C148.382 231.159 155.951 231.472 160.284 228.971L230.878 188.212C231.845 187.655 232.555 187.002 233.04 186.295C234.529 188.689 233.853 191.289 230.878 193.006L160.284 233.764C155.951 236.266 148.382 235.952 143.381 233.064L75.2148 193.708C71.3266 191.464 70.1466 188.329 71.8388 185.868C72.5188 186.96 73.647 188.01 75.2148 188.915Z" fill="white"/>
<path fill-rule="evenodd" clip-rule="evenodd" d="M97.0631 219.264C97.0631 221.082 98.3398 223.293 99.9136 224.203C101.489 225.112 102.767 224.374 102.767 222.557C102.767 220.739 101.489 218.527 99.9136 217.618C98.3398 216.709 97.0631 217.446 97.0631 219.264Z" fill="#D4ECFF"/>
<path fill-rule="evenodd" clip-rule="evenodd" d="M87.8895 213.967C87.8895 215.786 89.1662 217.996 90.74 218.906C92.3151 219.816 93.5918 219.078 93.5918 217.26C93.5918 215.442 92.3151 213.23 90.74 212.321C89.1662 211.412 87.8895 212.149 87.8895 213.967Z" fill="#D4ECFF"/>
<path fill-rule="evenodd" clip-rule="evenodd" d="M78.7154 208.671C78.7154 210.489 79.9921 212.7 81.566 213.61C83.1422 214.518 84.4189 213.781 84.4189 211.964C84.4189 210.145 83.1422 207.934 81.566 207.025C79.9921 206.115 78.7154 206.853 78.7154 208.671Z" fill="#D4ECFF"/>
<path fill-rule="evenodd" clip-rule="evenodd" d="M162.381 242.016C162.381 243.285 163.272 243.8 164.371 243.164C165.471 242.53 166.361 240.987 166.361 239.718C166.361 238.448 165.471 237.934 164.371 238.568C163.272 239.203 162.381 240.746 162.381 242.016Z" fill="#D4ECFF"/>
<path fill-rule="evenodd" clip-rule="evenodd" d="M168.555 238.475C168.555 239.744 169.445 240.259 170.545 239.623C171.645 238.989 172.535 237.446 172.535 236.176C172.535 234.907 171.645 234.393 170.545 235.027C169.445 235.662 168.555 237.205 168.555 238.475Z" fill="#5793CE"/>
<path fill-rule="evenodd" clip-rule="evenodd" d="M162.381 249.467C162.381 250.736 163.272 251.251 164.371 250.616C165.471 249.982 166.361 248.437 166.361 247.168C166.361 245.9 165.471 245.384 164.371 246.02C163.272 246.654 162.381 248.198 162.381 249.467Z" fill="#D4ECFF"/>
<path fill-rule="evenodd" clip-rule="evenodd" d="M168.555 245.926C168.555 247.195 169.445 247.71 170.545 247.075C171.645 246.44 172.535 244.896 172.535 243.627C172.535 242.358 171.645 241.845 170.545 242.479C169.445 243.113 168.555 244.656 168.555 245.926Z" fill="#D4ECFF"/>
<path fill-rule="evenodd" clip-rule="evenodd" d="M162.381 280.606C162.381 281.875 163.272 282.39 164.371 281.755C165.471 281.121 166.361 279.577 166.361 278.309C166.361 277.039 165.471 276.525 164.371 277.159C163.272 277.794 162.381 279.337 162.381 280.606Z" fill="white"/>
<path fill-rule="evenodd" clip-rule="evenodd" d="M168.555 277.065C168.555 278.335 169.445 278.849 170.545 278.214C171.645 277.58 172.535 276.035 172.535 274.768C172.535 273.497 171.645 272.982 170.545 273.618C169.445 274.252 168.555 275.796 168.555 277.065Z" fill="#5793CE"/>
<path fill-rule="evenodd" clip-rule="evenodd" d="M162.381 288.057C162.381 289.327 163.272 289.841 164.371 289.206C165.471 288.572 166.361 287.027 166.361 285.759C166.361 284.489 165.471 283.975 164.371 284.61C163.272 285.244 162.381 286.788 162.381 288.057Z" fill="#D4ECFF"/>
<path fill-rule="evenodd" clip-rule="evenodd" d="M168.555 284.515C168.555 285.786 169.445 286.3 170.545 285.665C171.645 285.031 172.535 283.486 172.535 282.218C172.535 280.948 171.645 280.434 170.545 281.068C169.445 281.703 168.555 283.247 168.555 284.515Z" fill="#D4ECFF"/>
<path fill-rule="evenodd" clip-rule="evenodd" d="M162.381 319.606C162.381 320.875 163.272 321.39 164.371 320.754C165.471 320.12 166.361 318.577 166.361 317.308C166.361 316.039 165.471 315.524 164.371 316.158C163.272 316.794 162.381 318.336 162.381 319.606Z" fill="white"/>
<path fill-rule="evenodd" clip-rule="evenodd" d="M168.555 316.065C168.555 317.334 169.445 317.849 170.545 317.213C171.645 316.579 172.535 315.036 172.535 313.767C172.535 312.498 171.645 311.983 170.545 312.617C169.445 313.253 168.555 314.795 168.555 316.065Z" fill="#5793CE"/>
<path fill-rule="evenodd" clip-rule="evenodd" d="M162.381 327.057C162.381 328.326 163.272 328.841 164.371 328.206C165.471 327.572 166.361 326.028 166.361 324.76C166.361 323.49 165.471 322.976 164.371 323.61C163.272 324.245 162.381 325.788 162.381 327.057Z" fill="white"/>
<path fill-rule="evenodd" clip-rule="evenodd" d="M168.555 323.516C168.555 324.785 169.445 325.3 170.545 324.665C171.645 324.03 172.535 322.487 172.535 321.219C172.535 319.949 171.645 319.435 170.545 320.069C169.445 320.704 168.555 322.246 168.555 323.516Z" fill="#D4ECFF"/>
<path fill-rule="evenodd" clip-rule="evenodd" d="M115.868 207.169L185.097 167.199C185.904 166.733 185.802 165.92 184.871 165.381C183.94 164.844 182.53 164.786 181.723 165.251L112.495 205.22C111.688 205.687 111.789 206.501 112.72 207.038C113.652 207.576 115.061 207.634 115.868 207.169Z" fill="#173D7A"/>
<path fill-rule="evenodd" clip-rule="evenodd" d="M386.761 302.678L343.477 277.476C334.903 272.524 326.816 271.742 320.705 275.267C314.6 278.794 311.236 286.189 311.236 296.089V299.261C311.541 299.467 311.861 299.67 312.19 299.87V296.089C312.19 286.544 315.383 279.442 321.184 276.093C326.986 272.746 334.733 273.529 343 278.301L386.284 303.504C386.51 303.638 386.803 303.558 386.936 303.33C387.068 303.102 386.989 302.808 386.761 302.678Z" fill="#D4ECFF"/>
<path fill-rule="evenodd" clip-rule="evenodd" d="M251.777 272.655V175.112C251.777 155.587 238.02 131.76 221.109 121.998C212.83 117.217 205.017 116.458 199.115 119.865C193.216 123.271 189.966 130.414 189.966 139.977V146.778C190.284 147.096 190.602 147.415 190.92 147.732V139.977C190.92 130.769 194.001 123.921 199.594 120.692C205.187 117.465 212.658 118.221 220.634 122.824C237.279 132.435 250.823 155.89 250.823 175.112V272.655C250.823 288.839 260.346 307.993 273.258 319.52V318.238C260.855 306.841 251.777 288.332 251.777 272.655Z" fill="#D4ECFF"/>
<path fill-rule="evenodd" clip-rule="evenodd" d="M189.967 149.764C188.399 148.276 181.09 141.828 170.426 140.198C158.347 138.351 153.356 152.475 153.356 152.475C153.356 152.475 151.959 159.812 152.01 164.154C152.059 168.497 152.371 184.265 152.371 184.265L190.658 162.21V162.204C190.812 162.125 190.921 161.968 190.921 161.783V150.589C190.602 150.27 190.284 150.081 189.967 149.764Z" fill="#396CAA"/>
<path fill-rule="evenodd" clip-rule="evenodd" d="M162.826 140.786L199.116 119.865L198.975 120.385C204.568 116.774 213.021 116.384 224.329 124.676C246.788 141.146 249.485 164.075 250.63 168.371C251.776 172.669 251.305 199.891 251.305 199.891C251.305 199.891 251.379 265.547 251.454 273.183C251.529 280.82 253.751 289.386 258.043 298.637C262.333 307.888 273.353 319.113 273.353 319.113V332.476C271.594 346.925 265.454 350.294 256.32 351.118C248.95 351.782 241.095 346.459 234.819 340.66C235.051 340.902 235.201 341.054 235.201 341.054V354.417C233.441 368.866 227.303 372.235 218.168 373.059C209.035 373.881 199.157 365.517 192.464 358.435C185.771 351.353 180.128 340.541 176.993 330.786C173.857 321.03 174.896 308.425 174.896 308.425C174.896 308.425 174.822 236.654 174.746 222.506C174.672 208.355 174.223 210.826 169.581 196.602C164.939 182.378 152.635 172.42 152.635 172.42L123.112 163.628L162.826 140.786Z" fill="#D4ECFF"/>
<path fill-rule="evenodd" clip-rule="evenodd" d="M226.002 371.858C226.5 371.18 232.967 366.845 234.613 359.208C235.53 354.961 235.438 348.502 235.438 348.502C235.438 348.502 235.411 344.911 235.325 341.647C235.252 341.584 235.179 341.525 235.106 341.461V340.18C235.165 340.233 235.227 340.283 235.286 340.337C235.261 339.6 235.233 338.908 235.2 338.321C235.013 334.928 237.521 327.691 237.521 327.691C237.521 327.691 241.077 317.995 251.671 317.621C261.076 317.289 270.975 324.055 273.083 325.58V321.202C273.222 321.296 273.373 321.387 273.517 321.48C273.505 320.893 273.492 320.294 273.476 319.705C273.404 319.642 273.33 319.584 273.258 319.52V318.238C273.317 318.293 273.379 318.342 273.437 318.395C273.412 317.658 273.386 316.968 273.352 316.379C273.166 312.986 275.674 305.75 275.674 305.75C275.674 305.75 279.229 296.055 289.822 295.68C299.228 295.347 309.128 302.114 311.234 303.639V299.26C311.54 299.467 311.861 299.67 312.188 299.869V307.534C312.188 316.821 309.095 323.799 303.477 327.265L303.454 327.291L303.259 327.403C303.206 327.436 303.156 327.471 303.103 327.501C303.069 327.522 303.032 327.534 302.998 327.553L264.155 349.917C264.165 349.904 264.19 349.881 264.205 349.865L226.002 371.858Z" fill="#396CAA"/>
<path fill-rule="evenodd" clip-rule="evenodd" d="M282.555 297.207C282.555 297.207 282.845 297.057 283.358 296.85C283.516 296.774 283.668 296.684 283.828 296.613L320.706 275.266C320.706 275.266 327.482 271.706 335.678 274.705C343.874 277.705 386.816 303.468 386.816 303.468L348.453 325.569L348.446 325.565C348.414 325.582 348.377 325.584 348.343 325.593L310.301 347.51C310.301 347.51 288.776 334.176 273.887 325.574L272.932 325.023C266.844 321.524 262.009 318.909 260.492 318.507C251.312 316.074 244.925 319.038 243.262 319.951L282.555 297.207Z" fill="#D4ECFF"/>
<path fill-rule="evenodd" clip-rule="evenodd" d="M243.261 319.951L242.816 320.209C242.816 320.209 242.979 320.106 243.261 319.951Z" fill="#D4ECFF"/>
<path fill-rule="evenodd" clip-rule="evenodd" d="M151.813 171.705C150.247 170.217 142.938 163.769 132.273 162.138C120.195 160.292 115.203 174.416 115.203 174.416C115.203 174.416 113.807 181.753 113.856 186.095C113.906 190.438 114.217 206.207 114.217 206.207L152.505 184.151L152.504 184.146C152.659 184.066 152.768 183.91 152.768 183.725V172.53C152.45 172.212 152.132 172.024 151.813 171.705Z" fill="#396CAA"/>
<path fill-rule="evenodd" clip-rule="evenodd" d="M218.543 373.593C214.321 373.593 209.648 372.183 204.813 369.391C188.025 359.7 174.369 336.044 174.369 316.66V219.118C174.369 199.897 160.825 176.439 144.178 166.828C136.204 162.226 128.733 161.468 123.139 164.696C117.547 167.926 114.466 174.775 114.466 183.982V205.789C114.466 206.052 114.252 206.266 113.987 206.266C113.725 206.266 113.511 206.052 113.511 205.789V183.982C113.511 174.419 116.761 167.276 122.661 163.87C128.563 160.463 136.374 161.221 144.655 166.002C161.565 175.765 175.323 199.593 175.323 219.118V316.66C175.323 335.741 188.765 359.025 205.289 368.566C213.203 373.134 220.619 373.886 226.171 370.681C231.723 367.477 234.78 360.678 234.78 351.54V340.095C234.78 330.193 238.144 322.798 244.252 319.271C250.36 315.747 258.447 316.53 267.023 321.481L310.305 346.684C310.534 346.814 310.612 347.107 310.479 347.335C310.349 347.565 310.053 347.639 309.828 347.509L266.544 322.307C258.278 317.535 250.529 316.749 244.729 320.099C238.929 323.447 235.734 330.549 235.734 340.095V351.54C235.734 361.035 232.508 368.125 226.649 371.507C224.235 372.901 221.498 373.593 218.543 373.593Z" fill="#396CAA"/>
<path fill-rule="evenodd" clip-rule="evenodd" d="M210.921 150.089L215.492 147.45C215.772 147.288 215.777 146.922 215.502 146.632L211.751 142.685C211.476 142.395 211.025 142.291 210.745 142.454L206.173 145.092C205.893 145.255 205.889 145.621 206.165 145.911L209.915 149.858C210.191 150.147 210.641 150.251 210.921 150.089Z" fill="#5793CE"/>
<path fill-rule="evenodd" clip-rule="evenodd" d="M201.092 155.769L205.663 153.13C205.944 152.968 205.949 152.602 205.672 152.312L201.922 148.365C201.647 148.075 201.196 147.971 200.916 148.134L196.345 150.772C196.065 150.935 196.06 151.301 196.336 151.591L200.086 155.538C200.363 155.827 200.813 155.931 201.092 155.769Z" fill="#396CAA"/>
<path fill-rule="evenodd" clip-rule="evenodd" d="M191.264 161.449L195.834 158.81C196.116 158.649 196.119 158.282 195.844 157.993L192.093 154.046C191.818 153.755 191.367 153.652 191.087 153.814L186.516 156.453C186.236 156.615 186.232 156.981 186.507 157.271L190.257 161.218C190.533 161.508 190.983 161.611 191.264 161.449Z" fill="white"/>
<path fill-rule="evenodd" clip-rule="evenodd" d="M181.436 167.13L186.005 164.491C186.287 164.329 186.292 163.963 186.016 163.673L182.266 159.726C181.99 159.436 181.54 159.332 181.26 159.495L176.688 162.133C176.408 162.296 176.404 162.661 176.68 162.952L180.43 166.898C180.705 167.188 181.156 167.292 181.436 167.13Z" fill="#5793CE"/>
<path fill-rule="evenodd" clip-rule="evenodd" d="M213.247 241.305L219.645 237.61C220.239 237.268 220.731 236.344 220.744 235.545C220.756 234.749 220.285 234.381 219.692 234.723L213.293 238.418C212.7 238.761 212.208 239.685 212.195 240.482C212.181 241.279 212.652 241.648 213.247 241.305Z" fill="#5793CE"/>
<path fill-rule="evenodd" clip-rule="evenodd" d="M198.005 250.104L207.441 244.656C208.034 244.315 208.526 243.389 208.539 242.593C208.551 241.796 208.081 241.427 207.488 241.771L198.052 247.217C197.458 247.561 196.966 248.484 196.953 249.281C196.941 250.079 197.412 250.447 198.005 250.104Z" fill="#5793CE"/>
<path fill-rule="evenodd" clip-rule="evenodd" d="M216.418 275.427L222.816 271.732C223.41 271.389 223.901 270.466 223.914 269.668C223.927 268.87 223.456 268.503 222.863 268.846L216.464 272.54C215.871 272.883 215.379 273.807 215.366 274.603C215.352 275.401 215.824 275.77 216.418 275.427Z" fill="#5793CE"/>
<path fill-rule="evenodd" clip-rule="evenodd" d="M202.83 283.271L212.266 277.823C212.859 277.481 213.351 276.556 213.364 275.759C213.376 274.962 212.906 274.593 212.312 274.938L202.876 280.384C202.283 280.728 201.791 281.651 201.778 282.448C201.765 283.245 202.237 283.614 202.83 283.271Z" fill="#5793CE"/>
<path fill-rule="evenodd" clip-rule="evenodd" d="M230.791 237.167L234.79 234.858C235.383 234.517 235.874 233.593 235.887 232.794C235.9 231.997 235.43 231.63 234.837 231.972L230.839 234.28C230.246 234.623 229.754 235.547 229.741 236.344C229.727 237.141 230.198 237.51 230.791 237.167Z" fill="#5793CE"/>
<path fill-rule="evenodd" clip-rule="evenodd" d="M217.142 251.039L229.355 243.988C229.949 243.646 230.441 242.722 230.454 241.925C230.466 241.126 229.996 240.759 229.402 241.101L217.189 248.153C216.595 248.496 216.104 249.42 216.091 250.217C216.078 251.014 216.549 251.382 217.142 251.039Z" fill="#5793CE"/>
<path fill-rule="evenodd" clip-rule="evenodd" d="M225.162 258.394L229.16 256.086C229.753 255.744 230.244 254.819 230.258 254.021C230.27 253.224 229.8 252.856 229.207 253.199L225.209 255.506C224.614 255.85 224.124 256.773 224.111 257.57C224.097 258.369 224.569 258.736 225.162 258.394Z" fill="#5793CE"/>
<path fill-rule="evenodd" clip-rule="evenodd" d="M198.112 297.98L208.788 291.815C209.383 291.472 209.874 290.549 209.887 289.752C209.9 288.953 209.428 288.586 208.835 288.928L198.159 295.092C197.566 295.436 197.074 296.359 197.061 297.156C197.048 297.954 197.519 298.322 198.112 297.98Z" fill="#5793CE"/>
<path fill-rule="evenodd" clip-rule="evenodd" d="M226.397 269.664L228.963 268.182C229.556 267.841 230.048 266.917 230.061 266.118C230.075 265.321 229.603 264.954 229.009 265.297L226.444 266.778C225.851 267.121 225.359 268.045 225.346 268.841C225.332 269.639 225.804 270.008 226.397 269.664Z" fill="#5793CE"/>
<path fill-rule="evenodd" clip-rule="evenodd" d="M225.58 282.121L228.767 280.281C229.361 279.937 229.853 279.014 229.866 278.217C229.878 277.418 229.407 277.051 228.814 277.394L225.628 279.233C225.033 279.577 224.543 280.5 224.53 281.297C224.516 282.095 224.987 282.462 225.58 282.121Z" fill="#5793CE"/>
<path fill-rule="evenodd" clip-rule="evenodd" d="M213.185 289.277L221.585 284.426C222.178 284.084 222.671 283.16 222.683 282.362C222.697 281.565 222.226 281.198 221.632 281.541L213.232 286.39C212.639 286.733 212.147 287.657 212.134 288.453C212.121 289.252 212.592 289.62 213.185 289.277Z" fill="#5793CE"/>
<path fill-rule="evenodd" clip-rule="evenodd" d="M222.629 289.816L228.668 286.329C229.263 285.986 229.754 285.062 229.766 284.265C229.78 283.467 229.309 283.099 228.715 283.443L222.675 286.929C222.082 287.273 221.59 288.196 221.577 288.993C221.564 289.791 222.035 290.159 222.629 289.816Z" fill="#5793CE"/>
<path fill-rule="evenodd" clip-rule="evenodd" d="M210.293 266.979L220.97 260.814C221.563 260.471 222.055 259.548 222.068 258.751C222.081 257.952 221.61 257.585 221.016 257.927L210.34 264.091C209.747 264.435 209.255 265.358 209.242 266.155C209.228 266.953 209.7 267.32 210.293 266.979Z" fill="#5793CE"/>
<path fill-rule="evenodd" clip-rule="evenodd" d="M210.65 260.78L229.257 250.036C229.85 249.694 230.343 248.77 230.355 247.972C230.368 247.176 229.899 246.808 229.304 247.151L210.696 257.893C210.103 258.236 209.611 259.16 209.598 259.958C209.585 260.755 210.057 261.123 210.65 260.78Z" fill="#5793CE"/>
<path fill-rule="evenodd" clip-rule="evenodd" d="M218.386 268.299L229.062 262.134C229.655 261.792 230.147 260.868 230.16 260.071C230.173 259.272 229.702 258.905 229.108 259.248L218.432 265.412C217.838 265.755 217.347 266.679 217.334 267.475C217.32 268.273 217.791 268.64 218.386 268.299Z" fill="#5793CE"/>
<path fill-rule="evenodd" clip-rule="evenodd" d="M202.195 271.653L206.075 269.414C206.668 269.071 207.159 268.148 207.173 267.35C207.186 266.552 206.715 266.185 206.122 266.527L202.242 268.766C201.649 269.109 201.157 270.033 201.144 270.831C201.131 271.628 201.602 271.996 202.195 271.653Z" fill="#5793CE"/>
<path fill-rule="evenodd" clip-rule="evenodd" d="M216.031 281.642L228.864 274.232C229.459 273.89 229.95 272.964 229.964 272.167C229.977 271.37 229.506 271.002 228.912 271.346L216.078 278.754C215.485 279.098 214.993 280.021 214.98 280.818C214.967 281.616 215.438 281.984 216.031 281.642Z" fill="#5793CE"/>
<path fill-rule="evenodd" clip-rule="evenodd" d="M225.452 234.257L234.888 228.81C235.482 228.468 235.973 227.543 235.986 226.746C235.998 225.95 235.528 225.58 234.935 225.923L225.499 231.37C224.906 231.713 224.415 232.637 224.401 233.435C224.388 234.232 224.859 234.6 225.452 234.257Z" fill="#5793CE"/>
<path fill-rule="evenodd" clip-rule="evenodd" d="M222.98 295.607L233.908 289.297C234.501 288.954 234.992 288.031 235.006 287.232C235.019 286.435 234.548 286.068 233.955 286.41L223.027 292.719C222.433 293.063 221.941 293.986 221.929 294.783C221.916 295.581 222.387 295.948 222.98 295.607Z" fill="#5793CE"/>
<path fill-rule="evenodd" clip-rule="evenodd" d="M338.028 301.641L342.598 299.002C342.88 298.841 342.844 298.557 342.52 298.371L338.106 295.823C337.783 295.636 337.293 295.616 337.012 295.778L332.441 298.416C332.162 298.578 332.196 298.861 332.52 299.049L336.933 301.596C337.257 301.782 337.748 301.804 338.028 301.641Z" fill="#5793CE"/>
<path fill-rule="evenodd" clip-rule="evenodd" d="M328.2 307.321L332.77 304.681C333.052 304.52 333.015 304.237 332.693 304.05L328.278 301.502C327.956 301.314 327.465 301.295 327.184 301.456L322.614 304.096C322.334 304.258 322.368 304.54 322.692 304.727L327.106 307.275C327.429 307.462 327.921 307.483 328.2 307.321Z" fill="#396CAA"/>
<path fill-rule="evenodd" clip-rule="evenodd" d="M318.373 312.999L322.942 310.36C323.223 310.199 323.187 309.915 322.865 309.729L318.45 307.181C318.127 306.994 317.637 306.974 317.356 307.136L312.786 309.774C312.506 309.936 312.541 310.219 312.864 310.407L317.278 312.954C317.601 313.14 318.092 313.162 318.373 312.999Z" fill="white"/>
<path fill-rule="evenodd" clip-rule="evenodd" d="M308.544 318.679L313.115 316.039C313.395 315.878 313.359 315.595 313.036 315.408L308.622 312.86C308.299 312.672 307.809 312.653 307.529 312.816L302.958 315.454C302.678 315.615 302.713 315.898 303.035 316.085L307.45 318.633C307.773 318.82 308.264 318.84 308.544 318.679Z" fill="#5793CE"/>
<path fill-rule="evenodd" clip-rule="evenodd" d="M203.072 219.591C203.072 219.591 208.35 216.929 211.592 220.893C214.832 224.855 219.466 234.211 219.609 240.534C219.753 246.855 214.606 246.43 211.548 244.932C208.487 243.437 199.552 230.473 199.01 227.933C198.469 225.393 199.648 221.957 200.508 221.286C201.368 220.614 203.072 219.591 203.072 219.591Z" fill="#173D7A"/>
<path fill-rule="evenodd" clip-rule="evenodd" d="M201.919 218.319L201.675 223.787C201.624 224.95 202.208 226.058 203.22 226.632C204.143 227.155 205.481 227.556 207.292 227.265C211.267 226.626 211.622 225.49 211.907 220.023C212.191 214.557 201.919 218.319 201.919 218.319Z" fill="#D4ECFF"/>
<path fill-rule="evenodd" clip-rule="evenodd" d="M222.391 209.077C222.391 209.077 227.669 206.415 230.911 210.379C234.152 214.341 238.785 223.697 238.929 230.019C239.072 236.342 233.926 235.915 230.867 234.418C227.807 232.923 218.871 219.959 218.33 217.419C217.789 214.879 218.968 211.443 219.828 210.772C220.688 210.1 222.391 209.077 222.391 209.077Z" fill="#173D7A"/>
<path fill-rule="evenodd" clip-rule="evenodd" d="M221.24 207.805L220.996 213.273C220.944 214.436 221.528 215.544 222.541 216.118C223.463 216.641 224.802 217.042 226.612 216.751C230.587 216.112 230.943 214.976 231.228 209.509C231.511 204.043 221.24 207.805 221.24 207.805Z" fill="#D4ECFF"/>
<path fill-rule="evenodd" clip-rule="evenodd" d="M174.145 107.415C175.707 81.9977 201.671 111.154 201.671 111.154L219.441 128.572L235.444 146.15C238.569 149.584 240.023 154.218 239.418 158.822L232.945 208.112C232.625 210.546 230.543 212.342 228.087 212.323C227.394 212.317 226.6 212.254 225.69 212.113C219.916 211.213 220.341 205.723 220.341 205.723L221.525 159.621L187.918 139.364C187.918 139.364 172.583 132.832 174.145 107.415Z" fill="#173D7A"/>
<path fill-rule="evenodd" clip-rule="evenodd" d="M154.825 117.099C156.387 91.6819 182.351 120.839 182.351 120.839L200.122 138.256L216.124 155.835C219.249 159.268 220.703 163.903 220.098 168.506L213.625 217.796C213.305 220.23 211.222 222.026 208.767 222.007C208.075 222.001 207.28 221.938 206.369 221.797C200.596 220.897 201.021 215.407 201.021 215.407L202.204 169.305L168.598 149.048C168.598 149.048 153.263 142.516 154.825 117.099Z" fill="#173D7A"/>
<path fill-rule="evenodd" clip-rule="evenodd" d="M170.186 35.5092C150.501 43.6695 150.896 55.3061 150.896 55.3061C150.896 55.3061 154.752 97.9643 153.436 126.453C152.886 138.363 216.712 139.272 207.194 107.499C195.971 70.0348 200.176 39.7065 194.922 35.1323C189.669 30.5569 175.278 33.3978 170.186 35.5092Z" fill="#5793CE"/>
<path fill-rule="evenodd" clip-rule="evenodd" d="M163.852 45.8268C164.883 49.8236 170.119 51.9289 175.549 50.5314C180.979 49.1315 184.546 44.7578 183.516 40.7622C182.487 36.7654 177.251 34.6588 171.821 36.0576C166.391 37.4563 162.823 41.8299 163.852 45.8268Z" fill="#FFC2B0"/>
<path fill-rule="evenodd" clip-rule="evenodd" d="M175.183 36.5636C176.527 36.5636 177.817 36.7968 178.967 37.2606C180.892 38.0336 182.182 39.3599 182.604 40.9953C183.025 42.632 182.535 44.4184 181.226 46.0249C179.845 47.7159 177.747 48.9926 175.312 49.6195C172.883 50.2451 170.427 50.1449 168.402 49.3284C166.476 48.5553 165.186 47.2279 164.765 45.5924V45.5912C164.342 43.9558 164.834 42.1706 166.143 40.5629C167.522 38.8719 169.622 37.5964 172.054 36.9695C173.105 36.6989 174.161 36.5636 175.183 36.5636ZM172.188 51.9059C173.37 51.9059 174.58 51.7513 175.783 51.4421C178.601 50.715 181.052 49.2148 182.684 47.2146C184.382 45.131 185.002 42.7564 184.427 40.5267C183.853 38.2981 182.163 36.5165 179.669 35.514C177.274 34.5501 174.405 34.4209 171.585 35.1468C168.767 35.8715 166.316 37.3729 164.685 39.3731C162.986 41.4555 162.367 43.8314 162.941 46.0611C163.516 48.2908 165.205 50.0724 167.7 51.0749C169.071 51.6269 170.601 51.9059 172.188 51.9059Z" fill="white"/>
<path fill-rule="evenodd" clip-rule="evenodd" d="M178.077 34.6215C178.077 34.6215 177.907 35.4103 178.249 41.6489C178.355 43.6093 171.49 45.4416 169.714 43.666C167.938 41.8917 168.649 40.0461 168.223 33.3714C167.797 26.6979 178.077 34.6215 178.077 34.6215Z" fill="#FFC2B0"/>
<path fill-rule="evenodd" clip-rule="evenodd" d="M168.224 33.3717C168.224 33.3717 169.915 39.5596 178.25 41.9331L178.123 36.3093L168.224 33.3717Z" fill="#EA9C92"/>
<path fill-rule="evenodd" clip-rule="evenodd" d="M162.943 17.6501C160.849 25.7524 165.718 34.0178 173.821 36.1123C181.922 38.2067 190.188 33.3378 192.282 25.2354C194.376 17.1331 189.507 8.86767 181.405 6.77323C173.304 4.67879 165.037 9.54769 162.943 17.6501Z" fill="#FFC2B0"/>
<path fill-rule="evenodd" clip-rule="evenodd" d="M174.133 21.9985C174.133 21.9985 182.475 25.5714 188.251 25.6136C194.028 25.6547 192.755 20.8172 192.755 20.8172L175.608 18.3387L174.133 21.9985Z" fill="#EA9C92"/>
<path fill-rule="evenodd" clip-rule="evenodd" d="M176.33 21.1419C174.832 21.4438 173.442 22.2459 172.478 23.4308C172.163 23.8185 171.764 24.1724 171.313 24.2739C170.182 24.5299 168.332 19.841 166.135 19.7335C163.936 19.6272 162.47 21.1817 164.272 24.0673C166.074 26.9505 165.464 30.1791 164.636 30.6417C163.807 31.1056 155.014 24.3717 162.771 9.00645C170.525 -6.3588 190.228 1.91749 193.292 5.03137C193.292 5.03137 196.521 7.84328 199.145 5.34058C199.145 5.34058 202.088 27.3841 189.973 22.9404C189.973 22.9404 182.705 19.8555 176.33 21.1419Z" fill="url(#paint0_linear)"/>
<path fill-rule="evenodd" clip-rule="evenodd" d="M161.938 86.4719V97.9986C161.938 99.32 162.494 100.58 163.47 101.469L187.149 123.057L184.459 127.172L153.189 104.492C151.729 103.434 150.788 101.806 150.598 100.012L148.484 79.9096L161.938 86.4719Z" fill="#FFC2B0"/>
<path fill-rule="evenodd" clip-rule="evenodd" d="M152.563 49.5423C152.563 49.5423 145.38 60.3454 142.703 88.7834C142.703 88.7834 154.974 92.7512 161.938 90.4986C168.903 88.2459 152.563 49.5423 152.563 49.5423Z" fill="#5793CE"/>
<path fill-rule="evenodd" clip-rule="evenodd" d="M163.249 63.2021C163.249 63.2021 166.062 78.2534 166.221 85.3278C166.265 87.2725 165.079 89.0275 163.249 89.6882V63.2021Z" fill="#396CAA"/>
<path fill-rule="evenodd" clip-rule="evenodd" d="M169.393 138.046L174.627 137.355L208.411 117.849C209.493 117.224 211.386 117.303 212.636 118.024L236.575 131.841L239.739 131.423V134.573L239.737 134.574C239.757 134.988 239.522 135.388 239.011 135.683L200.723 157.788C199.639 158.414 197.749 158.335 196.496 157.613L170.426 142.567C169.723 142.16 169.371 141.637 169.393 141.145V138.046Z" fill="#5793CE"/>
<path fill-rule="evenodd" clip-rule="evenodd" d="M194.777 125.72L197.177 124.335H223.566L236.574 131.841L239.74 131.423V134.574H239.738C239.757 134.988 239.522 135.388 239.011 135.683L200.724 157.788C200.15 158.119 199.353 158.251 198.542 158.196L194.777 125.72Z" fill="#396CAA"/>
<path fill-rule="evenodd" clip-rule="evenodd" d="M238.337 131.608L239.74 131.423V134.573L239.738 134.575C239.758 134.989 239.522 135.388 239.012 135.683L238.337 136.072V131.608Z" fill="#5793CE"/>
<path fill-rule="evenodd" clip-rule="evenodd" d="M200.338 157.967C199.31 158.356 197.844 158.271 196.747 157.744V152.384H200.338V157.967Z" fill="white"/>
<path fill-rule="evenodd" clip-rule="evenodd" d="M200.724 154.64L239.011 132.534C240.094 131.91 239.958 130.817 238.707 130.095L212.636 115.048C211.386 114.326 209.494 114.247 208.411 114.873L170.124 136.978C169.042 137.604 169.177 138.696 170.427 139.417L196.498 154.464C197.749 155.187 199.641 155.265 200.724 154.64Z" fill="white"/>
<path fill-rule="evenodd" clip-rule="evenodd" d="M201.371 151.289L233.205 132.909C234.108 132.39 233.994 131.481 232.953 130.881L218.983 123.025C217.944 122.425 216.37 122.358 215.47 122.879L183.633 141.259C182.734 141.778 182.846 142.687 183.886 143.287L197.857 151.143C198.897 151.743 200.47 151.81 201.371 151.289Z" fill="#D4ECFF"/>
<path fill-rule="evenodd" clip-rule="evenodd" d="M211.156 114.322L211.552 116.965C211.889 119.215 211.833 121.508 211.381 123.738L210.909 126.066C210.643 127.379 209.604 128.398 208.286 128.638H208.285C207.256 128.825 206.284 128.102 206.168 127.062L205.536 121.415C205.536 121.415 204.09 123.308 203.393 123.308C202.695 123.308 204.175 117.651 205.751 114.45C207.33 111.25 211.156 114.322 211.156 114.322Z" fill="#FFC2B0"/>
<path fill-rule="evenodd" clip-rule="evenodd" d="M198.178 72.336L202.286 80.4674C203.258 82.3903 203.83 84.4896 203.968 86.6383L205.752 114.451L211.156 114.323L213.609 83.0896C213.685 82.1246 213.638 81.1546 213.469 80.2028L210.668 64.3641L198.178 72.336Z" fill="#FFC2B0"/>
<path fill-rule="evenodd" clip-rule="evenodd" d="M202.02 156.763L205.231 152.571L238.991 133.026C240.073 132.399 240.949 130.72 240.947 129.277L240.918 101.636L242.859 99.1017L241.035 98.046L241.033 98.0484C240.684 97.8238 240.22 97.8298 239.709 98.1245L201.449 120.276C200.367 120.904 199.491 122.581 199.492 124.026L199.526 154.127C199.526 154.94 199.805 155.504 200.24 155.731L202.02 156.763Z" fill="#173D7A"/>
<path fill-rule="evenodd" clip-rule="evenodd" d="M225.367 140.914L227.765 139.525L240.932 116.656L240.919 101.636L242.858 99.1022L241.036 98.0453L241.033 98.0489C240.684 97.8231 240.22 97.8291 239.709 98.125L201.449 120.276C200.878 120.607 200.364 121.234 200.007 121.962L225.367 140.914Z" fill="#396CAA"/>
<path fill-rule="evenodd" clip-rule="evenodd" d="M241.997 100.227L242.858 99.1022L241.035 98.0453L241.032 98.0489C240.683 97.8231 240.219 97.8291 239.708 98.125L239.034 98.5152L241.997 100.227Z" fill="#5793CE"/>
<path fill-rule="evenodd" clip-rule="evenodd" d="M201.101 120.522C200.252 121.217 199.593 122.531 199.503 123.744L203.242 125.903L205.034 122.791L201.101 120.522Z" fill="#274F89"/>
<path fill-rule="evenodd" clip-rule="evenodd" d="M203.272 121.332L241.532 99.1796C242.613 98.554 243.493 99.2159 243.495 100.66L243.526 130.762C243.529 132.205 242.653 133.884 241.571 134.511L203.31 156.662C202.228 157.29 201.349 156.627 201.347 155.182L201.315 125.081C201.314 123.636 202.19 121.959 203.272 121.332Z" fill="#5793CE"/>
<path fill-rule="evenodd" clip-rule="evenodd" d="M184.459 127.172L185.073 128.441C185.778 129.904 186.888 131.135 188.27 131.986L192.071 134.33C193.252 135.058 194.751 135.118 195.951 134.419C195.994 134.394 196.037 134.368 196.08 134.34C197.288 133.584 197.397 131.85 196.404 130.828L192.432 126.745C192.432 126.745 194.662 128.455 195.289 127.766C195.747 127.262 193.124 124.8 191.111 124.719C189.099 124.639 187.15 123.057 187.15 123.057L184.459 127.172Z" fill="#FFC2B0"/>
<path fill-rule="evenodd" clip-rule="evenodd" d="M194.529 35.0727C194.529 35.0727 209.088 50.9138 214.961 65.4456C214.961 65.4456 209.982 74.4152 197.796 77.935C185.61 81.4547 194.529 35.0727 194.529 35.0727Z" fill="#5793CE"/>
<path fill-rule="evenodd" clip-rule="evenodd" d="M200.538 76.9954L198.179 54.1993L203.737 75.5568C202.747 76.0738 201.674 76.5545 200.538 76.9954Z" fill="#396CAA"/>
<path fill-rule="evenodd" clip-rule="evenodd" d="M4.22916 183.979L50.7767 157.105C51.6983 156.573 52.5305 156.553 53.1827 156.912C53.1815 156.908 53.1791 156.881 53.1791 156.881L57.6953 159.49C57.6953 159.49 55.6951 160.219 54.5223 160.65V194.547C54.5223 197.305 52.8445 200.509 50.7767 201.703L6.28495 227.389V231.367L1.72405 228.741L1.74821 228.731C0.978798 228.261 0.48357 227.23 0.48357 225.747V191.135C0.48357 188.376 2.16009 185.173 4.22916 183.979Z" fill="#0041F1"/>
<path fill-rule="evenodd" clip-rule="evenodd" d="M8.82703 231.228L55.3745 204.353C57.4424 203.159 59.1201 199.955 59.1201 197.197V162.586C59.1201 159.828 57.4424 158.561 55.3745 159.755L8.82703 186.63C6.75795 187.823 5.08144 191.027 5.08144 193.785V228.396C5.08144 231.154 6.75795 232.422 8.82703 231.228Z" fill="#0B74FF"/>
<path fill-rule="evenodd" clip-rule="evenodd" d="M39.7201 192.426C39.7201 194.429 41.126 195.242 42.8617 194.239C44.595 193.238 46.001 190.803 46.001 188.8C46.001 186.796 44.595 185.985 42.8617 186.987C41.126 187.988 39.7201 190.423 39.7201 192.426Z" fill="white"/>
<path fill-rule="evenodd" clip-rule="evenodd" d="M30.2064 197.919C30.2064 199.922 31.6124 200.734 33.3469 199.732C35.0813 198.731 36.4873 196.296 36.4873 194.293C36.4873 192.289 35.0813 191.478 33.3469 192.48C31.6124 193.482 30.2064 195.917 30.2064 197.919Z" fill="white"/>
<path fill-rule="evenodd" clip-rule="evenodd" d="M20.6918 203.412C20.6918 205.415 22.0977 206.227 23.8322 205.225C25.5667 204.224 26.9727 201.789 26.9727 199.786C26.9727 197.783 25.5667 196.971 23.8322 197.973C22.0977 198.975 20.6918 201.41 20.6918 203.412Z" fill="white"/>
<path fill-rule="evenodd" clip-rule="evenodd" d="M30.7174 140.46L77.2649 113.586C78.1865 113.055 79.0188 113.034 79.671 113.393C79.671 113.389 79.6674 113.363 79.6674 113.363L84.1836 115.972C84.1836 115.972 82.1834 116.7 81.0105 117.131V151.029C81.0105 153.786 79.334 156.991 77.2649 158.184L32.7744 183.871V187.848L28.2135 185.222L28.2377 185.213C27.4671 184.743 26.9719 183.711 26.9719 182.228V147.617C26.9719 144.858 28.6496 141.655 30.7174 140.46Z" fill="#5793CE"/>
<path fill-rule="evenodd" clip-rule="evenodd" d="M35.3163 187.709L81.8638 160.834C83.9329 159.641 85.6094 156.436 85.6094 153.679V119.067C85.6094 116.31 83.9329 115.043 81.8638 116.237L35.3163 143.111C33.2472 144.304 31.5707 147.509 31.5707 150.266V184.878C31.5707 187.635 33.2472 188.904 35.3163 187.709Z" fill="#D4ECFF"/>
<path fill-rule="evenodd" clip-rule="evenodd" d="M66.2101 148.908C66.2101 150.91 67.6172 151.723 69.3517 150.721C71.0862 149.719 72.4922 147.284 72.4922 145.282C72.4922 143.279 71.0862 142.466 69.3517 143.469C67.6172 144.47 66.2101 146.905 66.2101 148.908Z" fill="white"/>
<path fill-rule="evenodd" clip-rule="evenodd" d="M56.6954 154.401C56.6954 156.403 58.1014 157.216 59.8371 156.214C61.5704 155.212 62.9775 152.777 62.9775 150.775C62.9775 148.771 61.5704 147.959 59.8371 148.962C58.1014 149.963 56.6954 152.398 56.6954 154.401Z" fill="white"/>
<path fill-rule="evenodd" clip-rule="evenodd" d="M47.181 159.894C47.181 161.897 48.587 162.708 50.3227 161.707C52.056 160.706 53.4619 158.271 53.4619 156.268C53.4619 154.264 52.056 153.452 50.3227 154.455C48.587 155.456 47.181 157.891 47.181 159.894Z" fill="white"/>
<path fill-rule="evenodd" clip-rule="evenodd" d="M125.636 420.215L109.252 410.756L92.8676 420.215L109.252 429.674L125.636 420.215Z" fill="#D4ECFF"/>
<path fill-rule="evenodd" clip-rule="evenodd" d="M90.8574 399.867L74.4751 390.409L58.0905 399.867L74.4751 409.326L90.8574 399.867Z" fill="#D4ECFF"/>
<path fill-rule="evenodd" clip-rule="evenodd" d="M56.1855 380.005L39.8021 370.546L23.4186 380.005L39.8021 389.464L56.1855 380.005Z" fill="#D4ECFF"/>
<path fill-rule="evenodd" clip-rule="evenodd" d="M74.4751 399.867V349.418L90.8574 339.958V390.409L74.4751 399.867Z" fill="#C13D1A"/>
<path fill-rule="evenodd" clip-rule="evenodd" d="M74.4751 349.418V349.419L58.0917 339.959V390.409L74.4751 399.868V399.867L90.8574 390.409V339.958L74.4751 349.418Z" fill="#0041F1"/>
<path fill-rule="evenodd" clip-rule="evenodd" d="M92.8678 382.378L109.251 391.837V391.837L125.635 382.378V410.756L109.251 420.215V420.215L92.8678 410.756V382.378Z" fill="#0041F1"/>
<path fill-rule="evenodd" clip-rule="evenodd" d="M125.636 382.378L109.252 372.919L92.8676 382.378L109.252 391.837L125.636 382.378Z" fill="#0B74FF"/>
<path fill-rule="evenodd" clip-rule="evenodd" d="M39.8021 310.637V310.638L23.4198 301.179V370.546L39.8021 380.005V380.005L56.1855 370.546V301.178L39.8021 310.637Z" fill="#0041F1"/>
<path fill-rule="evenodd" clip-rule="evenodd" d="M56.1855 301.179L39.8021 291.72L23.4186 301.179L39.8021 310.638L56.1855 301.179Z" fill="#0B74FF"/>
<path fill-rule="evenodd" clip-rule="evenodd" d="M90.8574 339.959L74.4751 330.5L58.0905 339.959L74.4751 349.419L90.8574 339.959Z" fill="#0B74FF"/>
<defs>
<linearGradient id="paint0_linear" x1="170.1" y1="31.35" x2="146.234" y2="2.9127" gradientUnits="userSpaceOnUse">
<stop stop-color="#FFA600"/>
<stop offset="1" stop-color="#FFCC00"/>
</linearGradient>
</defs>
</svg>
