<svg width="499" height="408" viewBox="0 0 499 408" fill="none" xmlns="http://www.w3.org/2000/svg">
<path fill-rule="evenodd" clip-rule="evenodd" d="M456 312.446L458.378 292C472.519 292.846 486.407 295.429 499 299.763L479.819 317C472.373 314.553 464.268 313.036 456 312.446Z" fill="#D4ECFF"/>
<path fill-rule="evenodd" clip-rule="evenodd" d="M456 302.444L458.378 282C472.519 282.844 486.407 285.428 499 289.761L479.819 307C472.373 304.553 464.268 303.036 456 302.444Z" fill="#F9BF30"/>
<path fill-rule="evenodd" clip-rule="evenodd" d="M457 259L480.522 260.05L481 263.565V307L462.696 300.099L457 302.435V259Z" fill="#F9BF30"/>
<path fill-rule="evenodd" clip-rule="evenodd" d="M499 246V289.644L480 307V263.356L499 246Z" fill="#E8A200"/>
<path fill-rule="evenodd" clip-rule="evenodd" d="M456 258.444L458.378 238C472.519 238.844 486.407 241.428 499 245.761L479.819 263C472.373 260.553 464.268 259.036 456 258.444Z" fill="#FDD762"/>
<path fill-rule="evenodd" clip-rule="evenodd" d="M448.622 312.514C433.038 312.417 417.41 315.577 405.029 322L380 307.483C399.925 296.727 425.575 291.576 451 292.027L448.622 312.514Z" fill="#D4ECFF"/>
<path fill-rule="evenodd" clip-rule="evenodd" d="M380 297.483L403.35 311.026L405 312L405.004 311.986L405.029 312C416.571 306.013 430.935 302.861 445.453 302.539L448 302.555V302.512C448.207 302.512 448.414 302.512 448.622 302.514L451 282.027C448.169 281.977 445.336 281.996 442.507 282.085L432.503 272L418.773 284.513C410.49 285.976 402.47 288.078 394.944 290.819L380 282V297.246L380.211 297.37C380.14 297.408 380.07 297.446 380 297.483Z" fill="#0041F1"/>
<path fill-rule="evenodd" clip-rule="evenodd" d="M449 302V287.206L452 267V281.795L449 302Z" fill="#CC0293"/>
<path fill-rule="evenodd" clip-rule="evenodd" d="M448.622 287.514C433.038 287.418 417.41 290.577 405.029 297L380 282.484C399.925 271.727 425.575 266.576 451 267.027L448.622 287.514Z" fill="#0B74FF"/>
<path fill-rule="evenodd" clip-rule="evenodd" d="M101.498 328.506C120.829 339.832 152.169 339.831 171.5 328.506C190.833 317.18 190.833 298.818 171.502 287.493C152.171 276.169 120.831 276.169 101.498 287.493C82.1681 298.819 82.1666 317.182 101.498 328.506Z" fill="#D4ECFF"/>
<path fill-rule="evenodd" clip-rule="evenodd" d="M80 257.376L93.3402 257.459C94.3132 256.797 95.3226 256.145 96.4029 255.52C118.273 242.827 153.728 242.827 175.599 255.518C176.969 256.313 178.252 257.139 179.453 257.994L192 258.071V278.499C192 286.817 186.531 295.135 175.597 301.48C153.727 314.173 118.27 314.173 96.4015 301.482C85.4672 295.135 80 286.817 80 278.499V257.376Z" fill="#0964DB"/>
<path fill-rule="evenodd" clip-rule="evenodd" d="M138 246C151.669 246.264 165.205 249.426 175.639 255.5C177.004 256.297 178.286 257.123 179.483 257.978L192 258.055V278.499C192 286.823 186.546 295.148 175.637 301.498C165.203 307.573 151.669 310.734 138 311V246Z" fill="#0B74FF"/>
<path fill-rule="evenodd" clip-rule="evenodd" d="M184 258L192 258.047V278.514C192 284.222 189.33 289.926 184 295V258Z" fill="#4997FF"/>
<path fill-rule="evenodd" clip-rule="evenodd" d="M96.4014 280.482C118.27 293.173 153.727 293.173 175.598 280.48C197.466 267.788 197.468 247.21 175.599 234.519C153.729 221.827 118.273 221.827 96.4029 234.519C74.5326 247.212 74.5326 267.789 96.4014 280.482Z" fill="#0041F1"/>
<path fill-rule="evenodd" clip-rule="evenodd" d="M96.3939 280.24C118.266 292.647 153.729 292.647 175.603 280.239C185.99 274.346 191.435 266.718 191.959 259C192.536 267.535 187.091 276.176 175.603 282.694C153.729 295.102 118.266 295.102 96.3939 282.694C84.9079 276.177 79.463 267.537 80.0417 259.003C80.5639 266.719 86.0073 274.348 96.3939 280.24Z" fill="#4B98FF"/>
<path fill-rule="evenodd" clip-rule="evenodd" d="M96 249.176L105.647 249.235C106.351 248.76 107.083 248.292 107.863 247.842C123.679 238.72 149.323 238.72 165.138 247.84C166.13 248.414 167.058 249.007 167.925 249.621L177 249.677V256.642C177 262.62 173.045 268.597 165.138 273.157C149.321 282.281 123.677 282.281 107.862 273.157C99.9535 268.597 96 262.62 96 256.642V249.176Z" fill="#0964DB"/>
<path fill-rule="evenodd" clip-rule="evenodd" d="M137 241C147.125 241.191 157.15 243.463 164.879 247.83C165.893 248.402 166.841 248.996 167.727 249.611L177 249.667V256.638C177 262.623 172.959 268.607 164.879 273.172C157.15 277.538 147.125 279.812 137 280V241Z" fill="#0B74FF"/>
<path fill-rule="evenodd" clip-rule="evenodd" d="M172 249L177 249.035V256.065C177 260.197 175.332 264.327 172 268V249Z" fill="#4997FF"/>
<path fill-rule="evenodd" clip-rule="evenodd" d="M107.862 265.117C123.677 274.294 149.321 274.294 165.138 265.117C180.954 255.94 180.954 241.059 165.138 231.883C149.323 222.706 123.679 222.706 107.862 231.883C92.0461 241.06 92.0461 255.941 107.862 265.117Z" fill="#8A2AE3"/>
<path fill-rule="evenodd" clip-rule="evenodd" d="M211.309 176C224.891 176 237.635 168.899 244.674 157.365L266.034 122.282C268.584 118.096 268.658 113.055 266.231 108.8C263.805 104.542 259.409 102 254.474 102H212.275V112.891H254.474C255.748 112.891 256.389 113.681 256.659 114.153C256.926 114.624 257.28 115.575 256.621 116.655L235.264 151.735C230.138 160.129 220.833 165.291 210.893 165.106L174.164 164.557L174 175.447L210.728 175.996C210.921 175.999 211.116 176 211.309 176Z" fill="#FDD762"/>
<path fill-rule="evenodd" clip-rule="evenodd" d="M61.6894 176C61.8843 176 62.0778 175.999 62.2713 175.996L99 175.447L98.8356 164.557L62.1069 165.106C52.2214 165.328 42.8596 160.129 37.7321 151.731L16.3786 116.656C15.7211 115.575 16.0731 114.624 16.3407 114.153C16.6113 113.681 17.2528 112.891 18.527 112.891H60.7236V102H18.527C13.5901 102 9.19573 104.542 6.76799 108.8C4.34317 113.055 4.4159 118.096 6.96582 122.282L28.3223 157.361C35.3655 168.897 48.1107 176 61.6894 176Z" fill="#FDD762"/>
<path fill-rule="evenodd" clip-rule="evenodd" d="M27.7509 136L37.9194 153.152C43.0312 161.751 52.3644 167.074 62.2197 166.847L98.8361 166.285L99 177.433L62.3835 177.996C62.1907 177.999 61.9978 178 61.8035 178C49.6033 178 38.0949 172.083 30.7977 162.27C25.9803 149.676 26.743 140.575 27.7509 136Z" fill="#E8A200"/>
<path fill-rule="evenodd" clip-rule="evenodd" d="M158.067 228.874C146.156 235.709 126.845 235.709 114.934 228.874C103.023 222.041 103.022 210.959 114.932 204.126C126.843 197.291 146.155 197.291 158.066 204.126C169.978 210.961 169.978 222.041 158.067 228.874Z" fill="white"/>
<path fill-rule="evenodd" clip-rule="evenodd" d="M172.319 234.51C165.858 229.701 167.106 225 167.106 225L162.218 230.914C147.356 223.725 125.646 223.727 110.786 230.917L105.895 225C105.895 225 107.14 229.701 100.681 234.51C94.2202 239.317 96.329 248.757 96.329 248.757L96.342 248.742C96.3362 254.696 100.257 260.649 108.105 265.193C123.791 274.269 149.223 274.269 164.907 265.193C172.75 260.654 176.672 254.704 176.671 248.757C176.672 248.751 178.778 239.315 172.319 234.51Z" fill="#F9BF30"/>
<path fill-rule="evenodd" clip-rule="evenodd" d="M114.269 235.84C114.269 235.84 126 229.009 126 227.568C126 227.358 125.762 226.976 125.366 226.497C120.208 227.367 115.288 228.812 110.95 230.872L106.006 225C106.006 225 107.264 229.666 100.733 234.438C94.2004 239.21 96.3326 248.578 96.3326 248.578L96.3443 248.565C96.3414 251.789 97.5646 255.004 99.9249 258C99.8196 257.27 98.5672 247.614 105.945 244.454C113.613 241.167 114.269 235.84 114.269 235.84Z" fill="#E8A200"/>
<path fill-rule="evenodd" clip-rule="evenodd" d="M158.067 235.875C146.156 242.708 126.845 242.708 114.934 235.875C103.023 229.04 103.022 217.96 114.932 211.125C126.843 204.292 146.155 204.292 158.066 211.125C169.978 217.961 169.978 229.041 158.067 235.875Z" fill="#E8A200"/>
<path fill-rule="evenodd" clip-rule="evenodd" d="M56 103C56.8093 147.703 79.9398 153.116 92.3136 169.849C103.862 185.465 102.548 208.049 102.322 210.995C102.319 211.103 102.294 211.213 102.294 211.323C102.294 216.359 105.634 221.395 112.314 225.235C125.671 232.921 147.33 232.921 160.687 225.237C166.948 221.635 170.237 216.983 170.629 212.267L170.706 212.268V211.323V211.319C170.706 211.213 170.682 211.106 170.679 211.001C170.453 208.078 169.131 185.475 180.686 169.849C193.06 153.116 216.192 147.703 217 103H56Z" fill="#F9BF30"/>
<path fill-rule="evenodd" clip-rule="evenodd" d="M115.417 152.095C115.417 152.095 117.318 157.485 123.22 172.897C129.123 188.31 126.349 227.312 126.349 227.312L116.305 228C115.127 227.48 113.977 226.927 112.897 226.306C106.149 222.43 102.775 217.352 102.775 212.272C102.775 212.161 102.8 212.05 102.803 211.94C103.031 208.969 104.359 186.186 92.6903 170.435C80.1881 153.554 56.8177 148.095 56 103H64.9062L115.417 152.095Z" fill="#E8A200"/>
<path fill-rule="evenodd" clip-rule="evenodd" d="M193.423 135.381C161.986 153.54 111.017 153.54 79.5791 135.381C48.1415 117.22 48.1401 87.7775 79.5762 69.6182C111.014 51.4604 161.984 51.4604 193.421 69.6197C224.859 87.7789 224.86 117.221 193.423 135.381Z" fill="#FDD762"/>
<path fill-rule="evenodd" clip-rule="evenodd" d="M193.428 136.13C161.989 154.46 111.014 154.46 79.5739 136.13C64.7522 127.489 56.9244 116.317 56.0773 105C55.1259 117.691 62.9523 130.563 79.5739 140.252C111.014 158.583 161.989 158.583 193.428 140.253C210.047 130.565 217.873 117.694 216.923 105.006C216.074 116.32 208.248 127.49 193.428 136.13Z" fill="#FFEB9B"/>
<path fill-rule="evenodd" clip-rule="evenodd" d="M184.084 130.577C157.529 145.808 114.474 145.807 87.917 130.577C61.3612 115.346 61.3612 90.6528 87.9156 75.4219C114.471 60.1925 157.527 60.1925 184.083 75.4234C210.639 90.6543 210.639 115.348 184.084 130.577Z" fill="#F2B42A"/>
<path fill-rule="evenodd" clip-rule="evenodd" d="M184.436 129.947C173.505 136.31 159.719 139.971 145.478 141C143.251 138.181 142.384 135.138 143.461 131.887C150.396 110.93 147.715 67.5092 147.715 67.5092L160.28 66C169.085 67.8836 177.365 70.8443 184.435 74.9599C210.521 90.1447 210.521 114.764 184.436 129.947Z" fill="#E8A200"/>
<path fill-rule="evenodd" clip-rule="evenodd" d="M87.9122 77.9817C114.47 62.6526 157.527 62.6526 184.086 77.9817C196.598 85.2047 203.209 94.541 203.933 104C204.745 93.3807 198.134 82.6068 184.086 74.4979C157.527 59.1674 114.47 59.1674 87.9122 74.4979C73.8662 82.6053 67.2549 93.3764 68.0666 103.996C68.7906 94.5381 75.4019 85.2032 87.9122 77.9817Z" fill="#FFEB9B"/>
<path fill-rule="evenodd" clip-rule="evenodd" d="M103 136.922C123.434 143.692 148.567 143.693 169 136.922C168.3 136.445 167.578 135.976 166.808 135.522C149.793 125.493 122.206 125.493 105.191 135.521C104.421 135.974 103.7 136.444 103 136.922Z" fill="#E8A200"/>
<path fill-rule="evenodd" clip-rule="evenodd" d="M170.972 212.884C170.944 212.529 170.902 211.882 170.867 211C170.346 215.629 167.061 220.174 160.894 223.712C147.422 231.441 125.578 231.441 112.105 223.71C106.072 220.251 102.75 215.828 102.119 211.305C102.086 212.025 102.051 212.565 102.026 212.878C102.023 212.988 101.999 213.097 102 213.208C102 218.273 105.367 223.338 112.105 227.203C125.578 234.932 147.422 234.932 160.894 227.203C167.21 223.58 170.525 218.902 170.921 214.157L171 214.158V213.208V213.205C171 213.097 170.975 212.991 170.972 212.884Z" fill="#FFEB9B"/>
<path fill-rule="evenodd" clip-rule="evenodd" d="M181.239 191.709C181.239 191.709 185.31 189.552 187.811 192.763C190.312 195.975 193.887 203.556 193.998 208.677C194.108 213.8 190.137 213.455 187.777 212.242C185.416 211.03 178.523 200.527 178.106 198.468C177.688 196.41 178.597 193.627 179.26 193.083C179.925 192.537 181.239 191.709 181.239 191.709Z" fill="#173D7A"/>
<path fill-rule="evenodd" clip-rule="evenodd" d="M180.193 190.98L180.002 195.224C179.963 196.128 180.419 196.986 181.21 197.433C181.931 197.839 182.977 198.151 184.391 197.923C187.495 197.427 187.772 196.546 187.995 192.302C188.217 188.059 180.193 190.98 180.193 190.98Z" fill="#E8A200"/>
<path fill-rule="evenodd" clip-rule="evenodd" d="M197.239 183.708C197.239 183.708 201.31 181.553 203.811 184.763C206.312 187.974 209.887 195.556 209.998 200.678C210.108 205.801 206.137 205.455 203.777 204.242C201.416 203.031 194.523 192.526 194.106 190.467C193.688 188.41 194.597 185.626 195.26 185.082C195.925 184.537 197.239 183.708 197.239 183.708Z" fill="#173D7A"/>
<path fill-rule="evenodd" clip-rule="evenodd" d="M195.193 182.98L195.002 187.224C194.963 188.127 195.419 188.987 196.21 189.432C196.931 189.838 197.977 190.15 199.391 189.924C202.495 189.428 202.772 188.546 202.995 184.303C203.217 180.059 195.193 182.98 195.193 182.98Z" fill="#E8A200"/>
<path fill-rule="evenodd" clip-rule="evenodd" d="M158.089 101.299C159.327 81.0209 179.934 104.283 179.934 104.283L194.039 118.18L206.739 132.205C209.221 134.943 210.373 138.643 209.893 142.315L204.756 181.641C204.504 183.583 202.849 185.016 200.901 185C200.351 184.996 199.72 184.946 198.998 184.832C194.415 184.116 194.753 179.735 194.753 179.735L195.692 142.953L169.019 126.789C169.019 126.789 156.849 121.577 158.089 101.299Z" fill="#FDD762"/>
<path fill-rule="evenodd" clip-rule="evenodd" d="M176.132 119.868C176.132 119.868 192.078 137.62 192.968 142.571C193.857 147.524 176.132 138.014 176.132 138.014L164 118L176.132 119.868Z" fill="#E8A200"/>
<path fill-rule="evenodd" clip-rule="evenodd" d="M143.089 109.299C144.328 89.0209 164.934 112.283 164.934 112.283L179.039 126.18L191.739 140.205C194.22 142.943 195.373 146.643 194.893 150.315L189.757 189.641C189.502 191.583 187.849 193.016 185.9 193C185.35 192.996 184.721 192.946 183.998 192.834C179.416 192.116 179.753 187.735 179.753 187.735L180.691 150.953L154.021 134.79C154.021 134.79 141.849 129.579 143.089 109.299Z" fill="#FDD762"/>
<path fill-rule="evenodd" clip-rule="evenodd" d="M154.495 44.2596C138.684 50.7784 139 60.0729 139 60.0729C139 60.0729 142.099 94.1484 141.042 116.907C140.598 126.42 191.868 127.145 184.222 101.764C175.207 71.8396 178.586 47.6122 174.366 43.9589C170.147 40.3041 158.585 42.5739 154.495 44.2596Z" fill="#0041F1"/>
<path fill-rule="evenodd" clip-rule="evenodd" d="M149.141 52.6463C149.964 56.0335 154.15 57.8192 158.491 56.6334C162.831 55.449 165.683 51.7412 164.858 48.3539C164.036 44.9651 159.85 43.181 155.509 44.3668C151.169 45.5511 148.319 49.259 149.141 52.6463Z" fill="#FFC2B0"/>
<path fill-rule="evenodd" clip-rule="evenodd" d="M156.238 44.8551C154.348 45.3658 152.718 46.4032 151.648 47.7777C150.631 49.0844 150.25 50.5354 150.579 51.8657V51.8672C150.905 53.196 151.908 54.2746 153.4 54.9045C154.972 55.5652 156.878 55.6491 158.767 55.1414C162.585 54.1113 165.122 50.9666 164.426 48.1308C163.879 45.9088 161.508 44.5255 158.67 44.5255C157.886 44.5255 157.065 44.6314 156.238 44.8551ZM152.856 56.3245C150.92 55.5093 149.608 54.0613 149.163 52.2468C148.716 50.4353 149.196 48.5031 150.516 46.8108C151.781 45.1847 153.685 43.9648 155.872 43.3732C160.471 42.1298 164.941 44.0958 165.842 47.7482C166.739 51.4021 163.729 55.3827 159.132 56.6233C158.198 56.8749 157.258 57 156.34 57C155.108 57 153.922 56.7734 152.856 56.3245Z" fill="white"/>
<path fill-rule="evenodd" clip-rule="evenodd" d="M161.863 43.1528C161.863 43.1528 161.728 43.787 161.999 48.8008C162.084 50.376 156.612 51.848 155.199 50.4226C153.784 48.9957 154.349 47.512 154.01 42.1491C153.67 36.7848 161.863 43.1528 161.863 43.1528Z" fill="#FFC2B0"/>
<path fill-rule="evenodd" clip-rule="evenodd" d="M154 43C154 43 155.35 48.0598 162 50L161.899 45.4019L154 43Z" fill="#EA9C92"/>
<path fill-rule="evenodd" clip-rule="evenodd" d="M156.998 44.6153C163.411 46.2734 169.957 42.4184 171.615 36.0025C173.274 29.5881 169.418 23.0433 163.002 21.3852C156.588 19.7257 150.043 23.5821 148.385 29.9965C146.726 36.4124 150.582 42.9572 156.998 44.6153Z" fill="#FFC2B0"/>
<path fill-rule="evenodd" clip-rule="evenodd" d="M158 33.5155C158 33.5155 164.677 35.9724 169.301 35.9998C173.923 36.0284 172.905 32.7031 172.905 32.7031L159.179 31L158 33.5155Z" fill="#EA9C92"/>
<path fill-rule="evenodd" clip-rule="evenodd" d="M170.385 33.955C170.385 33.955 164.551 31.5397 159.433 32.5469C158.232 32.7835 157.116 33.411 156.342 34.3389C156.087 34.642 155.768 34.9197 155.404 34.999C154.496 35.1987 153.012 31.5284 151.248 31.4448C149.484 31.3612 148.307 32.5781 149.754 34.8361C151.2 37.0941 150.712 39.6213 150.045 39.9825C149.38 40.3452 142.322 35.0755 148.549 23.0488C154.774 11.0234 170.589 17.5 173.049 19.9365C173.049 19.9365 175.641 22.1393 177.747 20.1788C177.747 20.1788 180.11 37.4327 170.385 33.955Z" fill="url(#paint0_linear)"/>
<path fill-rule="evenodd" clip-rule="evenodd" d="M181.576 41.7741L190.288 38.0432C191.286 37.6155 192.058 36.7896 192.411 35.7685L201.014 11L205 11.6882L198.047 42.5111C197.722 43.9496 196.797 45.1839 195.505 45.9061L181 54L181.576 41.7741Z" fill="#FFC2B0"/>
<path fill-rule="evenodd" clip-rule="evenodd" d="M94.4194 45L92.5025 44.1265C90.8713 43.3808 89.3816 42.3581 88.1032 41.1025L86.7691 39.7944C86.0163 39.0558 85.7921 37.9351 86.2035 36.9664C86.5248 36.2108 87.4219 35.8827 88.1589 36.252L92.1626 38.2618C92.1626 38.2618 91.5355 36.5005 91.8369 36.0417C92.1383 35.5844 95.2364 38.9847 96.669 41.3951C98.1017 43.8069 94.4194 45 94.4194 45Z" fill="#FFC2B0"/>
<path fill-rule="evenodd" clip-rule="evenodd" d="M128 55.2499L120.713 54.4476C118.99 54.2582 117.324 53.7257 115.814 52.8861L96.2929 42L94 45.6426L113.959 60.8257C114.575 61.2936 115.249 61.684 115.965 61.9854L127.869 67L128 55.2499Z" fill="#FFC2B0"/>
<mask id="mask0" mask-type="alpha" maskUnits="userSpaceOnUse" x="201" y="0" width="8" height="12">
<path fill-rule="evenodd" clip-rule="evenodd" d="M201.76 0.160507H208.889V11.6636H201.76V0.160507Z" fill="white"/>
</mask>
<g mask="url(#mask0)">
<path fill-rule="evenodd" clip-rule="evenodd" d="M205.94 11.6635L206.697 10.78C207.568 9.76305 208.131 8.51505 208.324 7.18305L208.856 3.52155C209.019 2.38305 208.579 1.22505 207.664 0.539549C207.632 0.515549 207.598 0.491549 207.565 0.467549C206.604 -0.204451 205.266 0.281549 204.819 1.37355L203.036 5.73555C203.036 5.73555 203.599 3.47655 202.879 3.22605C202.35 3.04305 201.349 5.84655 201.941 7.40505C202.533 8.96355 201.976 10.966 201.976 10.966L205.94 11.6635Z" fill="#FFC2B0"/>
</g>
<path fill-rule="evenodd" clip-rule="evenodd" d="M170 42.2313C170 42.2313 183.972 39.4209 188.238 38.1016C192.504 36.7809 194.286 48.714 193.963 51.737C193.638 54.7614 179.109 58.1367 177.381 63.3221C175.655 68.5088 170 42.2313 170 42.2313Z" fill="#0041F1"/>
<path fill-rule="evenodd" clip-rule="evenodd" d="M149 47C149 47 138.464 51.4936 120.835 53.6832C120.118 53.7726 119.503 54.2434 119.265 54.921C118.586 56.8627 117.427 61.0982 118.332 65.4553C118.706 67.2534 120.342 68.5132 122.188 68.5014C127.706 68.4633 139.585 68.9898 141.512 74.1169C144.038 80.8368 149 47 149 47Z" fill="#0041F1"/>
<path fill-rule="evenodd" clip-rule="evenodd" d="M463.113 378.531C445.93 388.49 418.07 388.49 400.887 378.531C383.704 368.573 383.704 352.428 400.887 342.469C418.069 332.51 445.929 332.51 463.112 342.469C480.295 352.428 480.297 368.573 463.113 378.531Z" fill="#D4ECFF"/>
<path fill-rule="evenodd" clip-rule="evenodd" d="M453.101 349.926C455.61 350.993 457.19 353.778 456.982 356.771C456.884 358.184 456.712 359.499 456.416 360.117C455.618 361.786 453.002 364.078 448.824 362.432C444.648 360.79 435.371 352.111 435.025 346.432C434.378 335.88 446.495 347.117 453.101 349.926Z" fill="#173D7A"/>
<path fill-rule="evenodd" clip-rule="evenodd" d="M428.367 366.91C428.367 366.91 429.345 372.899 428.87 373.996C428.396 375.095 425.558 377.436 421.366 376.929C417.174 376.423 405.114 372.248 402.43 364.268C398.267 351.896 425.707 365.196 425.707 365.196L428.367 366.91Z" fill="#173D7A"/>
<path fill-rule="evenodd" clip-rule="evenodd" d="M416.946 270.545L416 364.32C416.1 367.583 418.248 370.336 421.137 370.821C421.493 370.881 421.876 370.93 422.285 370.967C425.212 371.222 426.917 369.972 427.889 368.662C428.675 367.599 429.09 366.253 429.148 364.874L430.352 324.844L436.363 289.052L444.677 352.4C444.812 354.114 445.636 355.697 446.963 356.57C447.88 357.173 449.124 357.641 450.754 357.593C453.135 357.521 454.788 356.254 455.796 355.124C456.594 354.229 457.016 352.997 457 351.733L453.703 313.617L452.476 265L416.946 270.545Z" fill="#273148"/>
<path fill-rule="evenodd" clip-rule="evenodd" d="M429.507 186L431 194.921C431 194.921 431.056 197.964 427.776 198.807C424.497 199.65 423.483 197.456 423.483 197.456L422 187.411L429.507 186Z" fill="#FFC2B0"/>
<path fill-rule="evenodd" clip-rule="evenodd" d="M411.691 186.165C415.157 192.93 422.805 195.879 428.775 192.75C434.744 189.622 436.774 181.601 433.309 174.835C429.843 168.07 422.195 165.121 416.224 168.25C410.256 171.378 408.226 179.399 411.691 186.165Z" fill="#FFC2B0"/>
<path fill-rule="evenodd" clip-rule="evenodd" d="M428.055 195.848C428.283 195.756 442.035 187.033 447.12 196.161C455.409 211.049 454.921 258.969 452.303 265.175C449.881 270.92 443.832 275.156 439.594 277.542C435.824 279.665 431.601 280.965 427.259 281C422.96 281.033 414.719 277.268 415.019 271.735C416.395 246.276 414.111 224.817 412 203.996C412 203.996 414.637 201.2 428.055 195.848Z" fill="#B7C3E4"/>
<path fill-rule="evenodd" clip-rule="evenodd" d="M436 289L444.087 352.425C444.218 354.141 445.018 355.727 446.308 356.601C446.52 356.743 446.752 356.878 447 357C445.321 355.711 440.42 302.475 439.513 296.555C438.604 290.627 436 289 436 289Z" fill="#161A24"/>
<path fill-rule="evenodd" clip-rule="evenodd" d="M384.616 197L377 173.566L381.022 172L390 190.363L384.616 197Z" fill="#FFC2B0"/>
<path fill-rule="evenodd" clip-rule="evenodd" d="M460 179L454.432 154L450 154.049L451.665 174.782L460 179Z" fill="#FFC2B0"/>
<path fill-rule="evenodd" clip-rule="evenodd" d="M412.754 203.901C412.754 203.901 399.449 206.537 390.99 191.149C390.244 189.794 388.265 189.594 387.479 190.782C386.123 192.836 384.325 195.98 385.257 199.38C389.376 214.419 411.743 217.743 415.76 226.465C419.776 235.187 412.754 203.901 412.754 203.901Z" fill="#B7C3E4"/>
<path fill-rule="evenodd" clip-rule="evenodd" d="M437 192.366C437 192.366 447.676 193.183 449.213 183.998C450.004 179.267 450.242 176.442 450.286 174.815C450.316 173.713 451.278 172.878 452.38 173.015C454.936 173.329 458.895 174.089 459.43 175.791C460.232 178.334 461.742 190.807 451.196 209.945C444.288 222.485 437 192.366 437 192.366Z" fill="#B7C3E4"/>
<path fill-rule="evenodd" clip-rule="evenodd" d="M454 153.747L453.898 150.775C453.861 149.725 453.556 148.703 453.014 147.807L450.019 142.856L449.236 141.867C448.517 140.952 447.226 140.73 446.243 141.351L445.555 141.787C444.676 142.344 444.17 143.337 444.237 144.379L445.787 148.609L443.828 148.228C443.447 148.154 443.08 148.406 443.011 148.79C442.953 149.117 443.13 149.44 443.435 149.564L446.636 150.862L449.541 155L454 153.747Z" fill="#FFC2B0"/>
<path fill-rule="evenodd" clip-rule="evenodd" d="M377.205 172.752L376.294 170.042C375.973 169.083 375.914 168.063 376.121 167.079L377.272 161.641L377.674 160.493C378.048 159.433 379.189 158.812 380.329 159.051L381.127 159.218C382.146 159.43 382.961 160.161 383.251 161.121L383.221 165.438L384.944 164.452C385.277 164.262 385.71 164.37 385.906 164.692C386.072 164.968 386.014 165.316 385.767 165.528L383.185 167.744L381.676 173L377.205 172.752Z" fill="#FFC2B0"/>
<path fill-rule="evenodd" clip-rule="evenodd" d="M419.093 222.576C420.308 228.045 416.897 270.492 428 281C423.731 281.033 415.547 277.289 415.844 271.788C416.761 254.813 416.03 239.646 414.827 225.241C410.472 219.678 398.495 216.135 391 209C391.547 209.166 417.889 217.163 419.093 222.576Z" fill="#97A4C6"/>
<path fill-rule="evenodd" clip-rule="evenodd" d="M434 192.94L431.993 191C431.993 191 428.693 194.174 426.041 194.725C426.041 194.725 422.851 195.576 421.292 195.648L420 199C420 199 430.509 198.29 434 192.94Z" fill="white"/>
<path fill-rule="evenodd" clip-rule="evenodd" d="M419.607 185.908C419.081 185.987 418.555 185.835 418.182 185.457C417.533 184.8 417.268 181.312 415.572 181.018C412.92 180.56 407.532 184.683 405.346 175.832C404.21 171.232 406.274 169.604 405.824 167.055C405.824 167.055 405.848 168.368 417.762 165.507C429.674 162.645 435.437 172.616 436.6 177.636C437.765 182.655 436.741 191.41 428.702 193.966C427.371 194.388 420.838 190.785 420.883 190.158C420.928 189.531 423.098 189.194 422.483 187.497C421.969 186.083 420.981 185.698 419.607 185.908Z" fill="#173D7A"/>
<mask id="mask1" mask-type="alpha" maskUnits="userSpaceOnUse" x="175" y="387" width="36" height="21">
<path fill-rule="evenodd" clip-rule="evenodd" d="M175.022 387.376H210.232V408H175.022V387.376Z" fill="white"/>
</mask>
<g mask="url(#mask1)">
<path fill-rule="evenodd" clip-rule="evenodd" d="M175.022 397.689L192.628 387.376L210.232 397.689L192.628 408.001L175.022 397.689Z" fill="#D4ECFF"/>
</g>
<mask id="mask2" mask-type="alpha" maskUnits="userSpaceOnUse" x="302" y="355" width="36" height="21">
<path fill-rule="evenodd" clip-rule="evenodd" d="M302.022 355.376H337.232V376H302.022V355.376Z" fill="white"/>
</mask>
<g mask="url(#mask2)">
<path fill-rule="evenodd" clip-rule="evenodd" d="M302.022 365.689L319.628 355.376L337.232 365.689L319.628 376.001L302.022 365.689Z" fill="#D4ECFF"/>
</g>
<mask id="mask3" mask-type="alpha" maskUnits="userSpaceOnUse" x="269" y="256" width="36" height="21">
<path fill-rule="evenodd" clip-rule="evenodd" d="M269.022 256.376H304.232V277H269.022V256.376Z" fill="white"/>
</mask>
<g mask="url(#mask3)">
<path fill-rule="evenodd" clip-rule="evenodd" d="M269.022 266.689L286.628 256.376L304.232 266.689L286.628 277.001L269.022 266.689Z" fill="#D4ECFF"/>
</g>
<path fill-rule="evenodd" clip-rule="evenodd" d="M192 399V387.351L171 375V386.648L192 399Z" fill="#E8A200"/>
<path fill-rule="evenodd" clip-rule="evenodd" d="M319 367V355.351L298 343V354.648L319 367Z" fill="#E8A200"/>
<path fill-rule="evenodd" clip-rule="evenodd" d="M286 268V256.351L265 244V255.648L286 268Z" fill="#E8A200"/>
<path fill-rule="evenodd" clip-rule="evenodd" d="M192 387.351L213 375V386.649L192 399V387.351Z" fill="#F9BF30"/>
<path fill-rule="evenodd" clip-rule="evenodd" d="M319 355.351L340 343V354.649L319 367V355.351Z" fill="#F9BF30"/>
<path fill-rule="evenodd" clip-rule="evenodd" d="M286 256.351L307 244V255.649L286 268V256.351Z" fill="#F9BF30"/>
<path fill-rule="evenodd" clip-rule="evenodd" d="M171 375.001L191.999 363L213 375.001L191.999 387L171 375.001Z" fill="#FDD762"/>
<path fill-rule="evenodd" clip-rule="evenodd" d="M298 343.001L318.999 331L340 343.001L318.999 355L298 343.001Z" fill="#FDD762"/>
<path fill-rule="evenodd" clip-rule="evenodd" d="M265 244.001L285.999 232L307 244.001L285.999 256L265 244.001Z" fill="#FDD762"/>
<path fill-rule="evenodd" clip-rule="evenodd" d="M226.836 324C226.836 329.604 231.396 334.164 237 334.164C242.604 334.164 247.164 329.604 247.164 324C247.164 318.396 242.604 313.836 237 313.836C231.396 313.836 226.836 318.396 226.836 324ZM224 324C224 316.831 229.831 311 237 311C244.169 311 250 316.831 250 324C250 331.169 244.169 337 237 337C229.831 337 224 331.169 224 324Z" fill="#0041F1"/>
<path fill-rule="evenodd" clip-rule="evenodd" d="M240 333.5C240 338.745 244.255 343 249.5 343C254.747 343 259 338.745 259 333.5C259 328.253 254.747 324 249.5 324C244.255 324 240 328.253 240 333.5Z" fill="#FFCC00"/>
<path fill-rule="evenodd" clip-rule="evenodd" d="M4 382.5L25.5 370L47 382.5L25.5 395L4 382.5Z" fill="#D4ECFF"/>
<mask id="mask4" mask-type="alpha" maskUnits="userSpaceOnUse" x="0" y="276" width="19" height="90">
<path fill-rule="evenodd" clip-rule="evenodd" d="M0 276.834H18.6549V365.979H0V276.834Z" fill="white"/>
</mask>
<g mask="url(#mask4)">
<path fill-rule="evenodd" clip-rule="evenodd" d="M18.6551 365.979V287.531L0 276.834V355.282L18.6551 365.979Z" fill="#E8A200"/>
</g>
<path fill-rule="evenodd" clip-rule="evenodd" d="M18 287.8L37 277V356.2L18 367V287.8Z" fill="#F9BF30"/>
<mask id="mask5" mask-type="alpha" maskUnits="userSpaceOnUse" x="0" y="266" width="38" height="22">
<path fill-rule="evenodd" clip-rule="evenodd" d="M0 266.301H37.3099V287.917H0V266.301Z" fill="white"/>
</mask>
<g mask="url(#mask5)">
<path fill-rule="evenodd" clip-rule="evenodd" d="M0 277.109L18.6551 266.301L37.3102 277.109L18.6551 287.917L0 277.109Z" fill="#FDD762"/>
</g>
<mask id="mask6" mask-type="alpha" maskUnits="userSpaceOnUse" x="0" y="359" width="19" height="18">
<path fill-rule="evenodd" clip-rule="evenodd" d="M0 359.106H18.6548V376.963H0V359.106Z" fill="white"/>
</mask>
<g mask="url(#mask6)">
<path fill-rule="evenodd" clip-rule="evenodd" d="M0 369.821L18.6551 359.106V366.248L0 376.963V369.821Z" fill="#95D359"/>
</g>
<path fill-rule="evenodd" clip-rule="evenodd" d="M37 376V318.736L18 308V365.262L37 376Z" fill="#C13D1A"/>
<path fill-rule="evenodd" clip-rule="evenodd" d="M37 318.736L56 308V365.262L37 376V318.736Z" fill="#DB5126"/>
<path fill-rule="evenodd" clip-rule="evenodd" d="M19 308.001L37.5 297L56 308.001L37.5 319L19 308.001Z" fill="#EF602E"/>
<path fill-rule="evenodd" clip-rule="evenodd" d="M18 308L37 318.736L56 308V365.262L37 376L18 365.262V308Z" fill="#0041F1"/>
<path fill-rule="evenodd" clip-rule="evenodd" d="M19 308.001L37.5 297L56 308.001L37.5 319L19 308.001Z" fill="#0B74FF"/>
<mask id="mask7" mask-type="alpha" maskUnits="userSpaceOnUse" x="0" y="345" width="19" height="43">
<path fill-rule="evenodd" clip-rule="evenodd" d="M0 345.354H18.6549V387.606H0V345.354Z" fill="white"/>
</mask>
<g mask="url(#mask7)">
<path fill-rule="evenodd" clip-rule="evenodd" d="M18.6551 387.606V355.918L0 345.354V377.043L18.6551 387.606Z" fill="#E8A200"/>
</g>
<path fill-rule="evenodd" clip-rule="evenodd" d="M18 354.75L37 344V376.25L18 387V354.75Z" fill="#F9BF30"/>
<mask id="mask8" mask-type="alpha" maskUnits="userSpaceOnUse" x="0" y="334" width="38" height="23">
<path fill-rule="evenodd" clip-rule="evenodd" d="M0 334.393H37.3099V356.427H0V334.393Z" fill="white"/>
</mask>
<g mask="url(#mask8)">
<path fill-rule="evenodd" clip-rule="evenodd" d="M0 345.41L18.6551 334.393L37.3102 345.41L18.6551 356.427L0 345.41Z" fill="#FDD762"/>
</g>
<defs>
<linearGradient id="paint0_linear" x1="181.839" y1="30.064" x2="164.61" y2="-4.33536" gradientUnits="userSpaceOnUse">
<stop stop-color="#FFA600"/>
<stop offset="1" stop-color="#FFCC00"/>
</linearGradient>
</defs>
</svg>
