<svg width="352" height="352" viewBox="0 0 352 352" fill="none" xmlns="http://www.w3.org/2000/svg">
<path fill-rule="evenodd" clip-rule="evenodd" d="M216 107V86.6551L240 73V93.3459L216 107Z" fill="#C13D1A"/>
<path fill-rule="evenodd" clip-rule="evenodd" d="M217 86.6551L193 73V93.3459L217 107V86.6551Z" fill="#0041F1"/>
<path fill-rule="evenodd" clip-rule="evenodd" d="M216 107V86.6551L240 73V93.3459L216 107Z" fill="#0B74FF"/>
<path fill-rule="evenodd" clip-rule="evenodd" d="M240 73.4995L216.5 60L193 73.4995L216.5 87L240 73.4995Z" fill="#0B74FF"/>
<path fill-rule="evenodd" clip-rule="evenodd" d="M216.5 86.8934L240 73V75.1066L216.5 89L193 75.1066V73L216.5 86.8934Z" fill="white"/>
<path fill-rule="evenodd" clip-rule="evenodd" d="M217 107.408L216.001 108L215 107.408V88H217V107.408Z" fill="white"/>
<path fill-rule="evenodd" clip-rule="evenodd" d="M139 109V27.7239L163 14V95.2771L139 109Z" fill="#0B74FF"/>
<path fill-rule="evenodd" clip-rule="evenodd" d="M139 27.7239L115 14V95.2761L139 109V27.7239Z" fill="#0041F1"/>
<path fill-rule="evenodd" clip-rule="evenodd" d="M139.5 0L163 13.5L139.5 27L116 13.5L139.5 0Z" fill="#0B74FF"/>
<path fill-rule="evenodd" clip-rule="evenodd" d="M139.5 27.6515L163 14V16.3485L139.5 30L116 16.3485V14L139.5 27.6515Z" fill="white"/>
<path fill-rule="evenodd" clip-rule="evenodd" d="M140 108.404L139 109L138 108.404V28H140V108.404Z" fill="white"/>
<path fill-rule="evenodd" clip-rule="evenodd" d="M178 130V76.7808L202 63V116.219L178 130Z" fill="#FFA700"/>
<path fill-rule="evenodd" clip-rule="evenodd" d="M178 76.78L154 63V116.219L178 130V76.78Z" fill="#FFCC00"/>
<path fill-rule="evenodd" clip-rule="evenodd" d="M201 62.5005L177.499 49L154 62.5005L177.499 76L201 62.5005Z" fill="#FFCC00"/>
<path fill-rule="evenodd" clip-rule="evenodd" d="M177.5 76.7656L201 63V65.2334L177.5 79L154 65.2334V63L177.5 76.7656Z" fill="white"/>
<path fill-rule="evenodd" clip-rule="evenodd" d="M150.562 251.614C152.236 251.361 153.821 250.862 155.133 250.105C159.064 247.834 159.065 244.153 155.133 241.883C151.202 239.613 144.827 239.613 140.896 241.883C139.586 242.642 138.721 243.557 138.285 244.524L111.083 228.814L168.961 195.389C173.824 192.58 181.709 192.58 186.57 195.389L244.447 228.814L217.792 244.206C218.823 244.486 219.792 244.864 220.643 245.354C224.575 247.624 224.575 251.305 220.643 253.576C216.712 255.847 210.338 255.847 206.408 253.576C205.556 253.084 204.902 252.524 204.418 251.93L177.764 267.322L150.562 251.614Z" fill="#EFEFEF"/>
<path fill-rule="evenodd" clip-rule="evenodd" d="M12.7602 160.929L75.522 124.683L108.471 143.711C108.998 142.54 110.045 141.431 111.634 140.513C113.299 139.551 115.327 138.934 117.462 138.646C118.524 137.262 122.075 133.023 122.427 132.922C122.842 132.803 132.441 130.028 132.441 130.028V145.409C132.478 147.239 131.294 149.076 128.876 150.471C127.287 151.388 125.367 151.993 123.34 152.298L139.917 161.872L156.287 156.004V254.045L122.37 273.633C122.189 271.983 121.019 270.363 118.835 269.102C116.257 267.613 112.812 266.937 109.438 267.061V281.1L75.52 300.688L5.41829 260.205C2.40771 258.466 0.945541 256.176 1.01273 253.896L1.00671 253.9V156.163L12.7602 160.929Z" fill="#273148"/>
<path fill-rule="evenodd" clip-rule="evenodd" d="M75.521 124.683L75.7637 124.824V300.547L75.519 300.688L5.41725 260.205C2.40668 258.466 0.944511 256.176 1.0117 253.897L1.00568 253.9V156.163L12.7592 160.929L75.521 124.683Z" fill="#161A24"/>
<path fill-rule="evenodd" clip-rule="evenodd" d="M109.438 187.494V183.06L105.6 185.277L109.438 187.494Z" fill="#396CAA"/>
<path fill-rule="evenodd" clip-rule="evenodd" d="M122.368 163.682V273.628C122.185 271.979 121.015 270.361 118.835 269.102C114.074 266.352 106.353 266.352 101.591 269.102C100.569 269.693 99.7798 270.365 99.1971 271.078C96.6579 270.284 93.9953 269.831 91.2776 269.694V163.682H122.368Z" fill="#161A24"/>
<path fill-rule="evenodd" clip-rule="evenodd" d="M90.3933 292.098L90.3642 196.128L109.437 185.114V212.046V281.1L90.3933 292.098Z" fill="#273148"/>
<path fill-rule="evenodd" clip-rule="evenodd" d="M1.1169 157.033C1.50099 158.908 2.92605 160.726 5.41714 162.165L75.5189 202.649L105.084 185.574C105.117 185.109 105.254 184.172 105.254 184.172L109.438 183.06V185.113L75.5189 204.702L5.41714 164.218C2.01846 162.255 0.594406 159.591 1.1169 157.033Z" fill="white"/>
<path fill-rule="evenodd" clip-rule="evenodd" d="M132.434 132.293V130.206L130.777 130.742L132.434 132.293Z" fill="white"/>
<mask id="mask0" mask-type="alpha" maskUnits="userSpaceOnUse" x="1" y="109" width="156" height="94">
<path fill-rule="evenodd" clip-rule="evenodd" d="M156.287 109.363H1.00121V202.648H156.287V109.363Z" fill="white"/>
</mask>
<g mask="url(#mask0)">
<path fill-rule="evenodd" clip-rule="evenodd" d="M5.41829 149.847L75.522 109.363L108.471 128.39C108.998 127.218 110.045 126.11 111.634 125.192C116.395 122.442 124.115 122.442 128.876 125.192C133.638 127.942 133.638 132.4 128.876 135.151C127.287 136.068 125.367 136.672 123.34 136.978L156.287 156.005L122.369 175.592C122.189 173.943 121.019 172.321 118.835 171.06C114.074 168.311 106.353 168.311 101.591 171.06C96.8297 173.811 96.8297 178.27 101.591 181.018C103.776 182.28 106.581 182.955 109.439 183.06L75.52 202.648L5.41829 162.165C-0.471497 158.763 -0.471497 153.249 5.41829 149.847Z" fill="#273148"/>
</g>
<path fill-rule="evenodd" clip-rule="evenodd" d="M128.875 137.204C127.976 137.723 126.964 138.131 125.892 138.452L123.338 136.977C125.366 136.672 127.286 136.067 128.875 135.15C130.803 134.037 131.936 132.644 132.303 131.198C132.843 133.325 131.71 135.567 128.875 137.204Z" fill="white"/>
<path fill-rule="evenodd" clip-rule="evenodd" d="M98.1635 177.067C97.624 174.94 98.7572 172.698 101.591 171.061C106.353 168.311 114.073 168.311 118.834 171.061C121.019 172.322 122.188 173.943 122.369 175.592L156.287 156.004V158.058L122.369 177.646C122.188 175.996 121.019 174.374 118.834 173.114C114.073 170.364 106.353 170.364 101.591 173.115C99.6648 174.227 98.5316 175.621 98.1635 177.067Z" fill="white"/>
<mask id="mask1" mask-type="alpha" maskUnits="userSpaceOnUse" x="196" y="124" width="156" height="175">
<path fill-rule="evenodd" clip-rule="evenodd" d="M352 124.999H196.713V298.464H352V124.999Z" fill="white"/>
</mask>
<g mask="url(#mask1)">
<path fill-rule="evenodd" clip-rule="evenodd" d="M196.713 251.822V156.321L212.81 162.346L228.997 152.996C229.581 153.718 230.374 154.397 231.406 154.992C236.168 157.741 243.887 157.741 248.649 154.992C253.302 152.305 253.395 147.991 248.957 145.23L245.197 147.335V128.322H256.847L258.001 136.247L277.481 124.999L339.491 160.81L352 156.321V251.821C351.999 254.05 350.527 256.278 347.581 257.98L277.479 298.464L244.578 279.464C244.038 280.608 243 281.69 241.445 282.589C236.683 285.338 228.963 285.338 224.202 282.589C221.73 281.161 220.553 279.274 220.648 277.404V265.644L196.713 251.822Z" fill="#0041F1"/>
</g>
<mask id="mask2" mask-type="alpha" maskUnits="userSpaceOnUse" x="277" y="124" width="75" height="175">
<path fill-rule="evenodd" clip-rule="evenodd" d="M352 124.998H277.479V298.464H352V124.998Z" fill="white"/>
</mask>
<g mask="url(#mask2)">
<path fill-rule="evenodd" clip-rule="evenodd" d="M277.481 124.998L339.491 160.81L352 156.321V251.821C351.999 254.05 350.527 256.279 347.581 257.979L277.479 298.464V124.999L277.481 124.998Z" fill="#0B74FF"/>
</g>
<path fill-rule="evenodd" clip-rule="evenodd" d="M247.974 128.393L248.375 129.429L248.28 129.521C248.404 129.584 248.531 129.645 248.649 129.713C251.484 131.35 252.617 133.591 252.076 135.717C251.709 134.272 250.576 132.879 248.649 131.766C247.619 131.17 246.444 130.713 245.196 130.375V128.321L247.974 128.393Z" fill="white"/>
<path fill-rule="evenodd" clip-rule="evenodd" d="M224.203 177.129C225.76 176.231 227.633 175.632 229.615 175.32L196.714 156.321L228.998 137.677C229.582 138.397 230.376 139.074 231.408 139.67C236.169 142.42 243.888 142.42 248.65 139.67C253.412 136.921 253.412 132.463 248.651 129.712C247.62 129.117 246.446 128.659 245.198 128.321L277.482 109.677L347.583 150.161C353.472 153.562 353.472 159.076 347.583 162.479L277.48 202.963L244.578 183.963C244.04 185.107 243.002 186.189 241.446 187.087C236.685 189.837 228.965 189.837 224.203 187.088C219.442 184.338 219.442 179.879 224.203 177.129Z" fill="#0B74FF"/>
<path fill-rule="evenodd" clip-rule="evenodd" d="M224.203 187.088C228.965 189.837 236.685 189.837 241.446 187.087C243.002 186.189 244.04 185.107 244.578 183.963L277.48 202.962L347.583 162.479C350.075 161.039 351.501 159.222 351.883 157.346C352.406 159.903 350.981 162.569 347.583 164.531L277.48 205.016L244.578 186.017C244.04 187.16 243.002 188.242 241.446 189.141C236.685 191.891 228.965 191.891 224.203 189.142C221.369 187.504 220.236 185.262 220.775 183.136C221.142 184.581 222.277 185.975 224.203 187.088Z" fill="white"/>
<path fill-rule="evenodd" clip-rule="evenodd" d="M229.613 175.32C228.74 175.459 227.893 175.661 227.08 175.911L196.713 158.373V156.321L229.613 175.32Z" fill="white"/>
<path fill-rule="evenodd" clip-rule="evenodd" d="M112.749 220.69L130.914 210.199C128.058 210.095 125.252 209.42 123.067 208.159C121.076 207.007 119.928 205.558 119.604 204.059L119.498 204.129V203.21V203.148V187.789L134.863 193.764L131.328 196.147C134.568 196.092 137.838 196.772 140.31 198.2C142.495 199.462 143.664 201.082 143.846 202.732L177.763 183.143L197.694 194.654L199.763 187.741L210.665 186.822V203.853L207.332 203.007C206.599 203.276 205.894 203.582 205.254 203.953C200.492 206.703 200.491 211.161 205.253 213.91C210.014 216.66 217.735 216.66 222.497 213.91C224.052 213.013 225.09 211.93 225.63 210.786L243.84 221.302L258.529 214.465V308.964L188.426 349.448C182.537 352.85 172.987 352.85 167.097 349.448L96.9951 308.966V214.466L112.749 220.69Z" fill="#7E8AA8"/>
<path fill-rule="evenodd" clip-rule="evenodd" d="M205.255 188.632C206.001 188.201 206.835 187.859 207.707 187.567L208.003 186.985L210.666 186.822V188.876C208.683 189.188 206.81 189.787 205.255 190.685C203.327 191.798 202.194 193.191 201.827 194.638C201.286 192.51 202.42 190.269 205.255 188.632Z" fill="white"/>
<path fill-rule="evenodd" clip-rule="evenodd" d="M177.765 205.016H203.743C200.564 207.753 201.065 211.492 205.253 213.91C210.014 216.66 217.734 216.66 222.497 213.91C224.052 213.013 225.089 211.93 225.63 210.786L243.84 221.302L258.529 214.465V308.964L188.426 349.448C185.481 351.15 181.624 351.999 177.765 351.999V205.016Z" fill="#97A4C6"/>
<path fill-rule="evenodd" clip-rule="evenodd" d="M130.914 194.878C128.057 194.774 125.252 194.099 123.067 192.838C118.306 190.088 118.306 185.629 123.067 182.879C127.829 180.129 135.549 180.129 140.31 182.879C142.495 184.141 143.664 185.761 143.846 187.411L177.763 167.822L210.664 186.823C208.682 187.134 206.809 187.733 205.254 188.632C200.492 191.382 200.491 195.84 205.253 198.589C210.014 201.339 217.734 201.339 222.496 198.589C224.052 197.692 225.089 196.609 225.629 195.465L258.529 214.465L188.427 254.95C182.537 258.351 172.987 258.351 167.097 254.95L96.9961 214.466L130.914 194.878Z" fill="#97A4C6"/>
<path fill-rule="evenodd" clip-rule="evenodd" d="M119.64 188.885C120.008 190.33 121.14 191.725 123.068 192.837C125.252 194.098 128.058 194.773 130.914 194.878L127.93 196.602C126.152 196.272 124.479 195.706 123.068 194.89C120.234 193.253 119.1 191.012 119.64 188.885Z" fill="white"/>
<path fill-rule="evenodd" clip-rule="evenodd" d="M167.097 254.949C172.987 258.352 182.537 258.352 188.426 254.949L258.529 214.465V216.518L188.426 257.003C182.537 260.404 172.987 260.404 167.097 257.004L96.9951 216.519V214.466L167.097 254.949Z" fill="white"/>
<path fill-rule="evenodd" clip-rule="evenodd" d="M300.384 237.662C300.384 237.662 305.345 235.159 308.391 238.886C311.438 242.612 315.793 251.409 315.929 257.353C316.064 263.298 311.226 262.896 308.35 261.49C305.475 260.083 297.074 247.894 296.565 245.505C296.057 243.116 297.165 239.888 297.974 239.256C298.781 238.624 300.384 237.662 300.384 237.662Z" fill="#FFCC00"/>
<path fill-rule="evenodd" clip-rule="evenodd" d="M299.301 236.466L299.071 241.608C299.022 242.701 299.573 243.743 300.524 244.282C301.39 244.774 302.649 245.151 304.351 244.878C308.088 244.276 308.422 243.209 308.688 238.069C308.956 232.929 299.301 236.466 299.301 236.466Z" fill="#D4ECFF"/>
<path fill-rule="evenodd" clip-rule="evenodd" d="M317.475 227.115C317.475 227.115 322.437 224.612 325.483 228.339C328.53 232.065 332.885 240.861 333.021 246.806C333.156 252.75 328.318 252.349 325.442 250.942C322.567 249.535 314.166 237.347 313.656 234.957C313.149 232.569 314.257 229.341 315.066 228.709C315.873 228.077 317.475 227.115 317.475 227.115Z" fill="#FFCC00"/>
<path fill-rule="evenodd" clip-rule="evenodd" d="M316.393 225.919L316.163 231.061C316.114 232.153 316.665 233.195 317.615 233.735C318.482 234.226 319.74 234.604 321.442 234.33C325.18 233.729 325.514 232.662 325.78 227.522C326.047 222.381 316.393 225.919 316.393 225.919Z" fill="#D4ECFF"/>
<path fill-rule="evenodd" clip-rule="evenodd" d="M273.192 132.189C274.66 108.291 299.067 135.705 299.067 135.705L315.771 152.082L329.743 167.948C332.681 171.176 334.048 175.535 333.479 179.862L327.395 226.208C327.094 228.496 325.136 230.184 322.829 230.166C322.177 230.161 321.43 230.101 320.574 229.969C315.147 229.123 315.546 223.96 315.546 223.96L316.659 180.613L286.139 162.228C286.139 162.228 271.723 156.087 273.192 132.189Z" fill="#273148"/>
<path fill-rule="evenodd" clip-rule="evenodd" d="M255.031 141.295C256.499 117.396 280.905 144.81 280.905 144.81L297.609 161.187L312.651 177.716C315.589 180.943 316.955 185.302 316.388 189.63L310.302 235.976C310.001 238.264 308.044 239.952 305.737 239.934C305.084 239.928 304.338 239.87 303.482 239.736C298.054 238.891 298.455 233.728 298.455 233.728L299.567 190.382L267.978 171.334C267.978 171.334 253.563 165.193 255.031 141.295Z" fill="#273148"/>
<path fill-rule="evenodd" clip-rule="evenodd" d="M269.471 64.5802C250.968 72.253 251.338 83.194 251.338 83.194C251.338 83.194 254.963 123.304 253.726 150.091C253.209 161.289 313.206 162.142 304.258 132.267C293.708 97.043 297.662 68.5264 292.724 64.2251C287.786 59.9237 274.257 62.595 269.471 64.5802Z" fill="#97A4C6"/>
<path fill-rule="evenodd" clip-rule="evenodd" d="M263.518 74.2807C264.486 78.0394 269.408 80.0195 274.511 78.7045C279.616 77.3894 282.969 73.2766 282.002 69.5179C281.034 65.7603 276.112 63.7801 271.007 65.0952C265.903 66.4103 262.549 70.523 263.518 74.2807Z" fill="#FFC2B0"/>
<path fill-rule="evenodd" clip-rule="evenodd" d="M270.926 78.7854L274.331 82.4829C274.772 82.9624 274.984 83.6114 274.908 84.2594L272.568 104.504C272.502 105.071 272.66 105.642 273.006 106.096L280.332 115.681C280.656 116.105 281.325 115.989 281.486 115.479L285.474 102.925C285.625 102.45 285.612 101.937 285.433 101.472L278.418 83.0848C278.264 82.6825 278.23 82.2441 278.318 81.8228L279.346 76.9487L270.926 78.7854Z" fill="white"/>
<path fill-rule="evenodd" clip-rule="evenodd" d="M274.168 65.5721C275.432 65.5721 276.645 65.7908 277.726 66.2261C279.535 66.9544 280.749 68.2022 281.145 69.739C281.541 71.2768 281.082 72.956 279.848 74.4677C278.552 76.0576 276.579 77.2574 274.292 77.8462C269.667 79.0369 265.218 77.3386 264.374 74.0594C263.531 70.7813 266.604 67.144 271.227 65.9523C272.216 65.6985 273.207 65.5721 274.168 65.5721ZM271.389 79.9909C272.474 79.9909 273.6 79.8524 274.732 79.5605C277.382 78.8784 279.687 77.467 281.219 75.5862C282.815 73.6281 283.398 71.3952 282.859 69.2976C282.318 67.2011 280.731 65.5279 278.386 64.584C276.135 63.6812 273.438 63.5558 270.786 64.2389C265.218 65.6744 261.573 70.2787 262.661 74.5018C263.529 77.8653 267.141 79.9909 271.389 79.9909Z" fill="white"/>
<path fill-rule="evenodd" clip-rule="evenodd" d="M276.889 63.7456C276.889 63.7456 276.73 64.4879 277.05 70.3531C277.151 72.1958 270.697 73.9192 269.028 72.25C267.359 70.5808 268.027 68.8454 267.627 62.571C267.226 56.2955 276.889 63.7456 276.889 63.7456Z" fill="#FFC2B0"/>
<path fill-rule="evenodd" clip-rule="evenodd" d="M267.627 62.5705C267.627 62.5705 269.216 68.3886 277.051 70.6205L276.932 65.3321L267.627 62.5705Z" fill="#EA9C92"/>
<path fill-rule="evenodd" clip-rule="evenodd" d="M262.662 47.7883C260.692 55.406 265.27 63.1781 272.885 65.1473C280.502 67.1174 288.271 62.5381 290.241 54.9205C292.209 47.3028 287.631 39.5307 280.016 37.5616C272.401 35.5915 264.631 40.1707 262.662 47.7883Z" fill="#FFC2B0"/>
<path fill-rule="evenodd" clip-rule="evenodd" d="M273.18 51.8766C273.18 51.8766 281.022 55.2371 286.451 55.2752C291.881 55.3143 290.685 50.7662 290.685 50.7662L274.567 48.436L273.18 51.8766Z" fill="#EA9C92"/>
<path fill-rule="evenodd" clip-rule="evenodd" d="M288.07 52.7623C288.07 52.7623 281.239 49.8613 275.247 51.071C273.838 51.3559 272.532 52.1093 271.625 53.2237C271.329 53.5879 270.955 53.9209 270.529 54.0172C269.466 54.2579 267.727 49.8472 265.66 49.7469C263.596 49.6466 262.218 51.1102 263.91 53.8216C265.605 56.533 265.032 59.5684 264.252 60.0038C263.474 60.4391 253.827 53.7052 261.118 39.2594C268.409 24.8125 288.309 32.9949 291.19 35.923C291.19 35.923 294.225 38.5682 296.693 36.2139C296.693 36.2139 299.458 56.9403 288.07 52.7623Z" fill="url(#paint0_linear)"/>
<path fill-rule="evenodd" clip-rule="evenodd" d="M261.718 112.498V123.335C261.718 124.577 262.241 125.762 263.16 126.598L285.418 146.896L282.888 150.765L252.222 130.653C250.85 129.657 249.965 128.126 249.788 126.44L247.691 106.327L261.718 112.498Z" fill="#FFC2B0"/>
<path fill-rule="evenodd" clip-rule="evenodd" d="M252.905 77.7745C252.905 77.7745 246.152 87.932 243.636 114.671C243.636 114.671 255.171 118.402 261.718 116.284C268.264 114.165 252.905 77.7745 252.905 77.7745Z" fill="#97A4C6"/>
<path fill-rule="evenodd" clip-rule="evenodd" d="M262.951 90.6181C262.951 90.6181 265.596 104.77 265.745 111.422C265.786 113.25 264.67 114.9 262.951 115.522V90.6181Z" fill="#7E8AA8"/>
<path fill-rule="evenodd" clip-rule="evenodd" d="M268.725 160.99L273.644 160.34L305.401 142C306.42 141.412 308.198 141.486 309.373 142.164L331.876 155.155L334.852 154.762V157.724L334.849 157.725C334.868 158.116 334.645 158.491 334.166 158.768L298.175 179.552C297.157 180.14 295.378 180.067 294.203 179.388L269.697 165.24C269.036 164.858 268.705 164.366 268.725 163.904V160.99Z" fill="#5793CE"/>
<path fill-rule="evenodd" clip-rule="evenodd" d="M292.586 149.401L294.843 148.098H319.647L331.876 155.155L334.852 154.762V157.725L334.849 157.726C334.868 158.116 334.645 158.491 334.166 158.768L298.175 179.552C297.638 179.862 296.886 179.987 296.125 179.936L292.586 149.401Z" fill="#396CAA"/>
<path fill-rule="evenodd" clip-rule="evenodd" d="M333.532 154.937L334.852 154.762V157.724L334.849 157.725C334.869 158.115 334.646 158.491 334.167 158.767L333.532 159.135V154.937Z" fill="#5793CE"/>
<path fill-rule="evenodd" clip-rule="evenodd" d="M297.814 179.72C296.849 180.087 295.47 180.006 294.44 179.511V174.472H297.814V179.72Z" fill="#5793CE"/>
<path fill-rule="evenodd" clip-rule="evenodd" d="M298.177 176.592L334.167 155.807C335.184 155.219 335.057 154.193 333.881 153.514L309.374 139.367C308.199 138.687 306.421 138.614 305.402 139.202L269.413 159.985C268.395 160.574 268.522 161.601 269.698 162.279L294.204 176.427C295.38 177.106 297.158 177.18 298.177 176.592Z" fill="white"/>
<path fill-rule="evenodd" clip-rule="evenodd" d="M298.784 173.441L328.71 156.16C329.556 155.671 329.45 154.817 328.472 154.253L315.341 146.866C314.362 146.301 312.884 146.24 312.037 146.728L282.112 164.011C281.265 164.5 281.372 165.353 282.349 165.918L295.481 173.305C296.459 173.87 297.937 173.931 298.784 173.441Z" fill="#D4ECFF"/>
<path fill-rule="evenodd" clip-rule="evenodd" d="M307.983 138.684L308.356 141.169C308.673 143.284 308.618 145.439 308.193 147.536L307.751 149.726C307.5 150.96 306.523 151.918 305.285 152.144C304.317 152.32 303.403 151.639 303.293 150.662L302.698 145.352C302.698 145.352 301.342 147.132 300.686 147.132C300.03 147.132 301.419 141.814 302.903 138.804C304.385 135.795 307.983 138.684 307.983 138.684Z" fill="#FFC2B0"/>
<path fill-rule="evenodd" clip-rule="evenodd" d="M295.784 99.2063L299.646 106.852C300.559 108.66 301.096 110.634 301.225 112.655L302.903 138.804L307.983 138.684L310.289 109.318C310.36 108.41 310.316 107.498 310.158 106.603L307.523 91.711L295.784 99.2063Z" fill="#FFC2B0"/>
<path fill-rule="evenodd" clip-rule="evenodd" d="M299.396 178.588L302.413 174.648L334.148 156.27C335.165 155.68 335.988 154.102 335.986 152.744L335.959 126.756L337.783 124.374L336.069 123.38L336.067 123.383C335.739 123.171 335.304 123.176 334.823 123.454L298.858 144.283C297.841 144.871 297.018 146.449 297.02 147.807L297.05 176.109C297.051 176.874 297.313 177.404 297.723 177.619L299.396 178.588Z" fill="#173D7A"/>
<path fill-rule="evenodd" clip-rule="evenodd" d="M321.34 163.686L323.595 162.38L335.972 140.878L335.958 126.756L337.783 124.373L336.069 123.38L336.067 123.382C335.738 123.171 335.303 123.177 334.822 123.454L298.857 144.282C298.321 144.594 297.837 145.182 297.501 145.867L321.34 163.686Z" fill="#396CAA"/>
<path fill-rule="evenodd" clip-rule="evenodd" d="M336.974 125.43L337.783 124.373L336.069 123.38L336.067 123.382C335.739 123.171 335.303 123.176 334.822 123.454L334.189 123.821L336.974 125.43Z" fill="#5793CE"/>
<path fill-rule="evenodd" clip-rule="evenodd" d="M298.532 144.513C297.733 145.166 297.114 146.402 297.03 147.543L300.544 149.572L302.229 146.646L298.532 144.513Z" fill="#274F89"/>
<path fill-rule="evenodd" clip-rule="evenodd" d="M300.57 145.274L336.535 124.446C337.553 123.857 338.379 124.48 338.38 125.838L338.41 154.14C338.412 155.498 337.589 157.077 336.571 157.666L300.607 178.494C299.59 179.083 298.763 178.46 298.761 177.102L298.732 148.8C298.73 147.441 299.553 145.864 300.57 145.274Z" fill="#5793CE"/>
<path fill-rule="evenodd" clip-rule="evenodd" d="M282.887 150.765L283.464 151.959C284.127 153.335 285.17 154.492 286.469 155.293L290.043 157.495C291.153 158.181 292.561 158.237 293.689 157.58C293.73 157.556 293.77 157.531 293.811 157.506C294.946 156.795 295.049 155.164 294.114 154.204L290.382 150.365C290.382 150.365 292.478 151.972 293.066 151.325C293.497 150.851 291.032 148.535 289.14 148.459C287.248 148.384 285.416 146.897 285.416 146.897L282.887 150.765Z" fill="#FFC2B0"/>
<path fill-rule="evenodd" clip-rule="evenodd" d="M292.353 64.1692C292.353 64.1692 306.038 79.0635 311.559 92.7279C311.559 92.7279 306.879 101.161 295.425 104.47C283.97 107.78 292.353 64.1692 292.353 64.1692Z" fill="#97A4C6"/>
<path fill-rule="evenodd" clip-rule="evenodd" d="M298.001 103.587L295.784 82.1536L301.01 102.235C300.078 102.72 299.07 103.172 298.001 103.587Z" fill="#7E8AA8"/>
<path fill-rule="evenodd" clip-rule="evenodd" d="M282.102 61.1638L285.779 60.1536C285.779 60.1536 284.023 62.9152 281.46 63.6194C278.898 64.3236 278.499 62.1539 278.499 62.1539L282.102 61.1638Z" fill="white"/>
<path fill-rule="evenodd" clip-rule="evenodd" d="M262.461 55.2759C262.461 56.4074 263.378 57.3243 264.509 57.3243C265.64 57.3243 266.557 56.4074 266.557 55.2759C266.557 54.1444 265.64 53.2275 264.509 53.2275C263.378 53.2275 262.461 54.1444 262.461 55.2759Z" fill="white"/>
<path fill-rule="evenodd" clip-rule="evenodd" d="M74.4353 204.075V300.056L75.5194 300.687L76.6807 300.017V203.563L74.4353 204.075Z" fill="white"/>
<path fill-rule="evenodd" clip-rule="evenodd" d="M178.887 351.969C178.139 352.001 177.388 352.001 176.641 351.969V258.707H178.887V351.969Z" fill="white"/>
<path fill-rule="evenodd" clip-rule="evenodd" d="M278.602 297.815L277.479 298.464L276.356 297.815V204.035H278.602V297.815Z" fill="white"/>
<path fill-rule="evenodd" clip-rule="evenodd" d="M178.734 135.422L177.709 136.015L176.685 135.422V83.7343H178.734V135.422Z" fill="white"/>
<path fill-rule="evenodd" clip-rule="evenodd" d="M55.9742 169.726C66.789 175.971 84.324 175.971 95.1388 169.725C105.954 163.479 105.954 153.354 95.1398 147.107C84.325 140.863 66.79 140.863 55.9752 147.108C45.1604 153.354 45.1604 163.479 55.9742 169.726Z" fill="#161A24"/>
<path fill-rule="evenodd" clip-rule="evenodd" d="M40.9014 144.775V138.402H42.7387C44.3894 135.561 47.1352 132.886 51.0523 130.624C64.5869 122.808 86.5304 122.808 100.064 130.624C103.982 132.886 106.729 135.561 108.379 138.402H110.213V144.723H110.21C110.234 149.862 106.854 155.006 100.064 158.927C86.5294 166.744 64.5859 166.744 51.0523 158.928C44.2841 155.021 40.9014 149.897 40.9014 144.775Z" fill="#FFA700"/>
<path fill-rule="evenodd" clip-rule="evenodd" d="M100.063 152.554C113.597 144.738 113.598 132.066 100.063 124.25C86.5298 116.434 64.5863 116.435 51.0517 124.25C37.5181 132.066 37.5171 144.739 51.0517 152.555C64.5852 160.37 86.5288 160.37 100.063 152.554Z" fill="#FFCC00"/>
<path fill-rule="evenodd" clip-rule="evenodd" d="M51.0517 152.554C64.5853 160.37 86.5288 160.37 100.063 152.554C106.55 148.809 109.892 143.947 110.161 139.038C110.453 144.372 107.11 149.758 100.063 153.828C86.5288 161.645 64.5853 161.645 51.0517 153.828C44.0037 149.758 40.6611 144.373 40.954 139.039C41.2227 143.947 44.5653 148.809 51.0517 152.554Z" fill="#FFCB69"/>
<path fill-rule="evenodd" clip-rule="evenodd" d="M92.2622 145.029C92.8449 144.692 93.1768 144.233 93.1748 143.752L93.1407 130.712C93.1377 129.717 91.7397 128.913 90.0168 128.914C88.2929 128.914 86.9019 129.722 86.9029 130.718L86.933 141.531L55.5586 137.689C53.8728 137.481 52.2171 138.104 51.8601 139.076C51.5011 140.049 52.5791 141.005 54.2629 141.212L89.4091 145.516C90.3307 145.63 91.2904 145.497 92.0225 145.154C92.1057 145.114 92.186 145.073 92.2622 145.029Z" fill="#273148"/>
<defs>
<linearGradient id="paint0_linear" x1="285.507" y1="4.65811" x2="311.132" y2="52.4381" gradientUnits="userSpaceOnUse">
<stop stop-color="#FAD961"/>
<stop offset="1" stop-color="#F76B1C"/>
</linearGradient>
</defs>
</svg>
