<svg width="427" height="352" viewBox="0 0 427 352" fill="none" xmlns="http://www.w3.org/2000/svg">
<path fill-rule="evenodd" clip-rule="evenodd" d="M249.542 143.625C249.55 134.158 242.882 130.3 234.679 135.026L95.2328 215.369C92.9774 216.669 91.147 219.833 91.1445 222.436C91.142 225.039 92.9699 226.096 95.2252 224.796L234.67 144.454C238.37 142.322 241.377 144.061 241.373 148.331L241.359 163.926C244.066 163.758 246.781 163.756 249.523 163.802L249.542 143.625Z" fill="#0041F1"/>
<path fill-rule="evenodd" clip-rule="evenodd" d="M95.1725 252.838L234.617 202.025C242.821 197.298 249.503 185.75 249.512 176.283L249.523 163.802C246.78 163.756 244.065 163.758 241.359 163.926L241.343 180.989C241.339 185.258 238.327 190.466 234.626 192.597L95.1813 243.411C92.926 244.711 91.0943 247.875 91.0918 250.477C91.0893 253.08 92.9172 254.137 95.1725 252.838Z" fill="#0033BD"/>
<path fill-rule="evenodd" clip-rule="evenodd" d="M92.1484 253.026L261.778 351.18L405.396 265.531L416.79 248.526L415.608 254.551L412.545 238.776L145.954 248.945L98.9848 245.919L92.1484 253.026Z" fill="#0041F1"/>
<path fill-rule="evenodd" clip-rule="evenodd" d="M97.775 223.405L97.7285 244.285L261.675 339.136L266.104 319.235L97.775 223.405Z" fill="#B7C3E4"/>
<path fill-rule="evenodd" clip-rule="evenodd" d="M414.676 232.063L245.315 134.081L92.6202 222.878L92.3047 225.06L261.915 323.186L414.676 232.063Z" fill="#0B74FF"/>
<path fill-rule="evenodd" clip-rule="evenodd" d="M360.684 282.381L400.504 258.759C403.86 256.402 406.491 251.638 406.493 247.655L406.524 244.527C406.525 241.997 405.465 240.365 403.836 239.89L325.45 283.499L261.615 318.024L261.673 339.136L360.684 282.381Z" fill="white"/>
<path fill-rule="evenodd" clip-rule="evenodd" d="M267.341 319.951L99.0545 222.59L95.4867 220.526L92.2294 218.64C91.5632 219.863 91.1458 221.21 91.1445 222.437C91.1433 223.715 91.587 224.615 92.3049 225.053V225.06L92.3325 225.074L92.3451 225.082L261.916 323.187L267.341 319.951Z" fill="#0041F1"/>
<path fill-rule="evenodd" clip-rule="evenodd" d="M259.664 349.956L261.779 351.181L262.168 350.506L260.851 349.47L259.664 349.956Z" fill="white"/>
<path fill-rule="evenodd" clip-rule="evenodd" d="M259.719 321.911L261.887 323.166L261.344 321.983L259.719 321.911Z" fill="white"/>
<path fill-rule="evenodd" clip-rule="evenodd" d="M264.841 313.495L404.287 233.154C412.49 228.426 419.158 232.283 419.149 241.752L419.12 244.879C419.111 254.347 412.43 265.896 404.227 270.622L264.781 350.965C262.525 352.264 260.699 351.207 260.701 348.605C260.704 346.001 262.534 342.837 264.789 341.539L404.235 261.195C407.935 259.062 410.949 253.857 410.952 249.586L410.981 246.458C410.985 242.187 407.978 240.449 404.278 242.58L264.832 322.923C262.577 324.221 260.75 323.164 260.753 320.562C260.755 317.96 262.586 314.795 264.841 313.495Z" fill="#0B74FF"/>
<path fill-rule="evenodd" clip-rule="evenodd" d="M260.701 348.605C260.703 346.002 262.534 342.837 264.789 341.538L404.235 261.196C407.935 259.062 410.948 253.856 410.952 249.586L410.981 246.458C410.983 243.661 409.691 241.961 407.763 241.711C408.384 242.527 408.748 243.691 408.747 245.166L408.717 248.293C408.713 252.564 405.701 257.771 402 259.902L262.555 340.246C260.3 341.545 258.469 344.709 258.467 347.312C258.466 349.284 259.515 350.362 261.005 350.206C260.811 349.77 260.699 349.234 260.701 348.605Z" fill="white"/>
<path fill-rule="evenodd" clip-rule="evenodd" d="M260.753 320.562C260.756 317.96 262.586 314.795 264.842 313.496L404.288 233.154C407.82 231.118 411.064 230.683 413.618 231.594C410.892 229.268 406.723 229.17 402.053 231.86L262.608 312.203C260.352 313.503 258.522 316.666 258.52 319.27C258.517 321.242 259.568 322.319 261.058 322.165C260.864 321.727 260.752 321.193 260.753 320.562Z" fill="white"/>
<path fill-rule="evenodd" clip-rule="evenodd" d="M420.368 88.117L269.915 1.25346C268.168 0.245229 266.393 0.0893437 264.818 0.628658L264.826 0.612315L264.554 0.715401C264.531 0.724201 264.508 0.731744 264.487 0.740544L259.05 2.82112L263.93 5.21094C263.907 5.30146 263.879 5.38443 263.86 5.4762L239.353 117.028C238.126 122.61 240.582 129.128 244.839 131.585L391.673 216.359L391.149 222.582L397.092 220.279C399.088 219.345 400.687 217.233 401.347 214.225L425.853 102.675C427.08 97.0917 424.624 90.5747 420.368 88.117Z" fill="#173D7A"/>
<path fill-rule="evenodd" clip-rule="evenodd" d="M420.367 88.117L269.914 1.25346C268.167 0.245229 266.392 0.0893437 264.817 0.628658L264.826 0.612315L264.553 0.715401C264.53 0.724201 264.507 0.731744 264.486 0.740544L259.049 2.82112L263.929 5.21094C263.907 5.30146 263.878 5.38443 263.859 5.4762L247.707 78.9952L321.322 136.349L425.119 94.1123C424.121 91.5264 422.465 89.3276 420.367 88.117Z" fill="#396CAA"/>
<path fill-rule="evenodd" clip-rule="evenodd" d="M414.694 105.265L426.147 100.388C426.357 95.9529 424.522 91.3706 421.508 88.9204L403.379 96.5463L414.694 105.265Z" fill="#274F89"/>
<path fill-rule="evenodd" clip-rule="evenodd" d="M385.922 221.99L235.469 135.127C231.214 132.669 228.757 126.152 229.984 120.569L254.489 9.0178C255.716 3.43483 260.16 0.901689 264.417 3.3594L414.869 90.2229C419.125 92.6807 421.581 99.1977 420.355 104.781L395.849 216.332C394.623 221.914 390.179 224.448 385.922 221.99Z" fill="#D4ECFF"/>
<path fill-rule="evenodd" clip-rule="evenodd" d="M416.314 89.694L265.861 2.83167C263.799 1.64115 261.701 1.64115 259.938 2.57395C261.352 2.26469 262.894 2.47967 264.417 3.35967L414.87 90.222C419.126 92.6797 421.581 99.198 420.355 104.781L395.85 216.331C395.217 219.21 393.721 221.256 391.846 222.247C394.386 221.693 396.506 219.39 397.293 215.803L421.8 104.253C423.027 98.67 420.57 92.1517 416.314 89.694Z" fill="white"/>
<path fill-rule="evenodd" clip-rule="evenodd" d="M382.659 213.693L241.162 132.039C237.268 129.791 235.021 123.827 236.142 118.718L258.567 16.6393C259.689 11.5315 263.756 9.21332 267.652 11.4611L409.149 93.115C413.043 95.3628 415.291 101.328 414.168 106.436L391.745 208.514C390.621 213.622 386.555 215.942 382.659 213.693Z" fill="white"/>
<path fill-rule="evenodd" clip-rule="evenodd" d="M382.659 213.693L241.162 132.039C237.268 129.791 235.021 123.827 236.142 118.718L258.567 16.6393C259.689 11.5315 263.756 9.21332 267.652 11.4611L409.149 93.115C413.043 95.3628 415.291 101.328 414.168 106.436L391.745 208.514C390.621 213.622 386.555 215.942 382.659 213.693Z" fill="#273148"/>
<path fill-rule="evenodd" clip-rule="evenodd" d="M383.893 213.19L242.394 131.536C238.501 129.289 236.253 123.325 237.375 118.217L259.801 16.137C260.369 13.5523 261.694 11.6905 263.366 10.764C261.123 11.341 259.269 13.4442 258.567 16.6399L236.143 118.717C235.02 123.826 237.266 129.792 241.162 132.039L382.66 213.692C384.583 214.803 386.546 214.791 388.178 213.888C386.835 214.235 385.352 214.034 383.893 213.19Z" fill="#5793CE"/>
<path fill-rule="evenodd" clip-rule="evenodd" d="M387.999 225.773L367.433 223.059L234.676 146.411C230.42 143.954 222.985 144.262 218.071 147.098L124 201.391L111.564 199.749V206.805L111.577 206.806C111.495 208.437 112.424 210.006 114.432 211.165L264.884 298.03C269.141 300.486 276.575 300.178 281.489 297.341L383.937 238.214C386.701 236.617 388.078 234.559 387.999 232.628V225.773Z" fill="#173D7A"/>
<path fill-rule="evenodd" clip-rule="evenodd" d="M288.25 177.342L278.817 171.896H175.122L124 201.391L111.564 199.748V206.806H111.577C111.495 208.436 112.424 210.005 114.432 211.164L264.884 298.029C267.133 299.328 270.27 299.846 273.453 299.635L288.25 177.342Z" fill="#396CAA"/>
<path fill-rule="evenodd" clip-rule="evenodd" d="M117.083 200.478L111.564 199.749V206.805L111.577 206.806C111.495 208.437 112.424 210.006 114.432 211.165L117.083 212.696V200.478Z" fill="#5793CE"/>
<path fill-rule="evenodd" clip-rule="evenodd" d="M266.4 298.733C270.435 300.263 276.202 299.929 280.509 297.858V282.118H266.4V298.733Z" fill="#274F89"/>
<path fill-rule="evenodd" clip-rule="evenodd" d="M264.885 290.981L114.432 204.118C110.176 201.66 110.71 197.368 115.624 194.531L218.071 135.403C222.985 132.565 230.42 132.257 234.677 134.714L385.128 221.578C389.384 224.036 388.85 228.328 383.936 231.165L281.489 290.293C276.575 293.131 269.141 293.439 264.885 290.981Z" fill="#D4ECFF"/>
<path fill-rule="evenodd" clip-rule="evenodd" d="M383.937 228.588L281.49 287.715C276.576 290.553 269.142 290.861 264.886 288.404L114.433 201.539C113.038 200.735 112.167 199.73 111.787 198.647C111.121 200.659 111.97 202.695 114.433 204.118L264.886 290.981C269.142 293.439 276.576 293.131 281.49 290.294L383.937 231.165C387.241 229.258 388.554 226.695 387.775 224.472C387.29 225.939 386.008 227.392 383.937 228.588Z" fill="white"/>
<path fill-rule="evenodd" clip-rule="evenodd" d="M178.423 175.361L171.615 171.43C171.069 171.114 171.137 170.563 171.769 170.2L179.803 165.56C180.436 165.195 181.389 165.156 181.935 165.472L188.743 169.402C189.291 169.717 189.222 170.268 188.591 170.633L180.555 175.273C179.924 175.637 178.97 175.676 178.423 175.361Z" fill="#5793CE"/>
<path fill-rule="evenodd" clip-rule="evenodd" d="M188.934 181.43L182.127 177.499C181.58 177.184 181.649 176.633 182.28 176.269L190.316 171.63C190.947 171.265 191.9 171.226 192.447 171.542L199.254 175.472C199.802 175.787 199.733 176.338 199.102 176.702L191.066 181.342C190.435 181.706 189.481 181.746 188.934 181.43Z" fill="#5793CE"/>
<path fill-rule="evenodd" clip-rule="evenodd" d="M199.448 187.499L192.64 183.569C192.094 183.253 192.163 182.703 192.794 182.338L200.829 177.699C201.461 177.335 202.413 177.296 202.96 177.611L209.768 181.541C210.316 181.857 210.247 182.407 209.616 182.772L201.58 187.411C200.949 187.775 199.995 187.816 199.448 187.499Z" fill="#5793CE"/>
<path fill-rule="evenodd" clip-rule="evenodd" d="M213.987 182.487L207.18 178.556C206.633 178.241 206.702 177.69 207.333 177.327L214.077 173.431C214.709 173.068 215.664 173.027 216.211 173.343L223.018 177.274C223.564 177.59 223.495 178.14 222.865 178.505L216.119 182.399C215.488 182.763 214.534 182.803 213.987 182.487Z" fill="#5793CE"/>
<path fill-rule="evenodd" clip-rule="evenodd" d="M224.499 188.556L217.691 184.626C217.144 184.31 217.214 183.76 217.845 183.395L224.589 179.501C225.22 179.136 226.176 179.097 226.723 179.413L233.53 183.344C234.076 183.658 234.006 184.21 233.377 184.573L226.631 188.469C226 188.832 225.046 188.873 224.499 188.556Z" fill="#5793CE"/>
<path fill-rule="evenodd" clip-rule="evenodd" d="M235.012 194.626L228.205 190.696C227.658 190.38 227.727 189.83 228.358 189.465L235.103 185.57C235.734 185.206 236.689 185.167 237.236 185.482L244.044 189.413C244.589 189.728 244.52 190.28 243.89 190.643L237.144 194.538C236.513 194.902 235.559 194.941 235.012 194.626Z" fill="#5793CE"/>
<path fill-rule="evenodd" clip-rule="evenodd" d="M245.524 200.695L238.717 196.765C238.17 196.45 238.239 195.899 238.87 195.535L245.615 191.64C246.246 191.275 247.201 191.236 247.748 191.552L254.555 195.482C255.101 195.797 255.032 196.348 254.402 196.713L247.656 200.607C247.025 200.972 246.071 201.011 245.524 200.695Z" fill="#5793CE"/>
<path fill-rule="evenodd" clip-rule="evenodd" d="M256.038 206.765L249.23 202.835C248.683 202.519 248.753 201.969 249.384 201.604L256.128 197.71C256.759 197.345 257.715 197.306 258.262 197.622L265.069 201.551C265.615 201.867 265.546 202.418 264.916 202.782L258.17 206.677C257.539 207.041 256.585 207.08 256.038 206.765Z" fill="#5793CE"/>
<path fill-rule="evenodd" clip-rule="evenodd" d="M266.549 212.834L259.742 208.905C259.195 208.589 259.264 208.038 259.895 207.674L266.64 203.779C267.271 203.415 268.226 203.376 268.773 203.691L275.581 207.621C276.126 207.937 276.057 208.487 275.427 208.852L268.682 212.746C268.05 213.111 267.096 213.15 266.549 212.834Z" fill="#5793CE"/>
<path fill-rule="evenodd" clip-rule="evenodd" d="M277.063 218.904L270.256 214.973C269.709 214.657 269.778 214.107 270.409 213.743L277.154 209.849C277.785 209.484 278.74 209.445 279.287 209.761L286.094 213.691C286.64 214.006 286.571 214.557 285.941 214.921L279.195 218.816C278.564 219.181 277.61 219.22 277.063 218.904Z" fill="#5793CE"/>
<path fill-rule="evenodd" clip-rule="evenodd" d="M287.575 224.974L280.767 221.043C280.221 220.727 280.29 220.176 280.921 219.812L287.665 215.917C288.296 215.554 289.252 215.514 289.799 215.829L296.606 219.76C297.152 220.076 297.083 220.627 296.453 220.991L289.707 224.886C289.076 225.249 288.122 225.289 287.575 224.974Z" fill="#5793CE"/>
<path fill-rule="evenodd" clip-rule="evenodd" d="M298.089 231.043L291.281 227.112C290.734 226.797 290.803 226.246 291.434 225.882L298.179 221.987C298.81 221.624 299.766 221.583 300.312 221.899L307.12 225.83C307.665 226.146 307.596 226.696 306.966 227.061L300.221 230.954C299.59 231.319 298.635 231.359 298.089 231.043Z" fill="#5793CE"/>
<path fill-rule="evenodd" clip-rule="evenodd" d="M308.6 237.112L301.793 233.182C301.246 232.866 301.315 232.316 301.946 231.951L308.691 228.057C309.322 227.692 310.277 227.653 310.824 227.969L317.632 231.898C318.177 232.214 318.108 232.766 317.478 233.129L310.732 237.024C310.101 237.388 309.147 237.427 308.6 237.112Z" fill="#5793CE"/>
<path fill-rule="evenodd" clip-rule="evenodd" d="M229.477 179.613L222.67 175.684C222.123 175.368 222.192 174.817 222.823 174.453L229.568 170.558C230.199 170.194 231.154 170.155 231.701 170.47L238.509 174.4C239.054 174.716 238.985 175.266 238.355 175.631L231.609 179.525C230.978 179.89 230.024 179.929 229.477 179.613Z" fill="#5793CE"/>
<path fill-rule="evenodd" clip-rule="evenodd" d="M218.807 173.453L212 169.523C211.453 169.208 211.522 168.657 212.153 168.292L218.898 164.398C219.529 164.033 220.484 163.994 221.031 164.31L227.839 168.241C228.384 168.555 228.315 169.107 227.685 169.47L220.939 173.365C220.308 173.73 219.354 173.769 218.807 173.453Z" fill="#5793CE"/>
<path fill-rule="evenodd" clip-rule="evenodd" d="M208.12 167.284L193.459 158.819C192.912 158.504 192.98 157.952 193.613 157.587L200.357 153.693C200.988 153.328 201.942 153.289 202.489 153.605L217.151 162.07C217.697 162.386 217.628 162.937 216.998 163.301L210.252 167.196C209.621 167.559 208.667 167.599 208.12 167.284Z" fill="#5793CE"/>
<path fill-rule="evenodd" clip-rule="evenodd" d="M215.59 159.779L203.691 152.91C203.145 152.594 203.213 152.044 203.844 151.679L210.589 147.785C211.22 147.42 212.175 147.381 212.722 147.697L224.621 154.567C225.167 154.881 225.097 155.433 224.468 155.796L217.722 159.692C217.091 160.056 216.136 160.096 215.59 159.779Z" fill="#5793CE"/>
<path fill-rule="evenodd" clip-rule="evenodd" d="M239.989 185.683L233.181 181.753C232.635 181.438 232.704 180.887 233.335 180.523L240.079 176.628C240.711 176.263 241.666 176.224 242.213 176.54L249.02 180.47C249.566 180.785 249.497 181.336 248.867 181.7L242.121 185.595C241.49 185.96 240.536 185.999 239.989 185.683Z" fill="#5793CE"/>
<path fill-rule="evenodd" clip-rule="evenodd" d="M250.501 191.753L243.693 187.822C243.146 187.506 243.215 186.955 243.847 186.592L250.591 182.698C251.222 182.333 252.178 182.293 252.725 182.61L259.532 186.539C260.078 186.855 260.008 187.406 259.379 187.77L252.633 191.665C252.002 192.029 251.047 192.068 250.501 191.753Z" fill="#5793CE"/>
<path fill-rule="evenodd" clip-rule="evenodd" d="M261.014 197.822L254.207 193.891C253.66 193.576 253.729 193.025 254.36 192.66L261.105 188.766C261.736 188.403 262.691 188.362 263.238 188.678L270.046 192.609C270.591 192.924 270.522 193.475 269.892 193.84L263.146 197.734C262.515 198.098 261.561 198.138 261.014 197.822Z" fill="#5793CE"/>
<path fill-rule="evenodd" clip-rule="evenodd" d="M271.526 203.891L264.719 199.961C264.172 199.645 264.241 199.095 264.872 198.73L271.617 194.836C272.248 194.471 273.203 194.432 273.75 194.748L280.557 198.679C281.103 198.993 281.034 199.545 280.404 199.908L273.658 203.803C273.027 204.167 272.073 204.208 271.526 203.891Z" fill="#5793CE"/>
<path fill-rule="evenodd" clip-rule="evenodd" d="M282.04 209.96L275.232 206.031C274.685 205.715 274.755 205.164 275.386 204.8L282.13 200.905C282.761 200.541 283.717 200.502 284.264 200.817L291.071 204.747C291.617 205.063 291.547 205.614 290.918 205.978L284.172 209.872C283.541 210.237 282.587 210.276 282.04 209.96Z" fill="#5793CE"/>
<path fill-rule="evenodd" clip-rule="evenodd" d="M292.551 216.03L285.744 212.1C285.197 211.785 285.266 211.234 285.897 210.869L292.642 206.975C293.273 206.61 294.228 206.571 294.775 206.887L301.583 210.817C302.128 211.132 302.059 211.683 301.429 212.047L294.684 215.942C294.052 216.307 293.098 216.346 292.551 216.03Z" fill="#5793CE"/>
<path fill-rule="evenodd" clip-rule="evenodd" d="M303.065 222.1L296.258 218.17C295.711 217.854 295.78 217.304 296.411 216.939L303.156 213.045C303.787 212.68 304.742 212.641 305.289 212.957L312.096 216.886C312.642 217.202 312.573 217.753 311.943 218.117L305.197 222.012C304.566 222.376 303.612 222.415 303.065 222.1Z" fill="#5793CE"/>
<path fill-rule="evenodd" clip-rule="evenodd" d="M313.577 228.169L306.769 224.24C306.223 223.923 306.292 223.373 306.923 223.009L313.667 219.114C314.298 218.75 315.254 218.711 315.801 219.026L322.608 222.956C323.154 223.272 323.085 223.822 322.455 224.187L315.709 228.081C315.078 228.446 314.124 228.485 313.577 228.169Z" fill="#5793CE"/>
<path fill-rule="evenodd" clip-rule="evenodd" d="M324.09 234.239L317.283 230.308C316.736 229.992 316.805 229.442 317.436 229.078L324.181 225.184C324.812 224.819 325.767 224.78 326.314 225.096L333.122 229.026C333.667 229.341 333.598 229.892 332.968 230.256L326.223 234.151C325.591 234.516 324.637 234.555 324.09 234.239Z" fill="#5793CE"/>
<path fill-rule="evenodd" clip-rule="evenodd" d="M342.779 245.029L327.927 236.454C327.379 236.139 327.448 235.587 328.079 235.222L334.825 231.329C335.456 230.964 336.41 230.924 336.955 231.239L351.81 239.816C352.355 240.131 352.286 240.682 351.656 241.046L344.911 244.941C344.28 245.306 343.325 245.345 342.779 245.029Z" fill="#5793CE"/>
<path fill-rule="evenodd" clip-rule="evenodd" d="M363.245 233.213L350.709 225.974C350.163 225.658 350.23 225.108 350.861 224.743L357.607 220.849C358.239 220.484 359.192 220.445 359.74 220.761L372.276 227.999C372.822 228.315 372.753 228.865 372.123 229.23L365.377 233.125C364.746 233.489 363.793 233.528 363.245 233.213Z" fill="#5793CE"/>
<path fill-rule="evenodd" clip-rule="evenodd" d="M258.399 184.496L251.592 180.565C251.045 180.249 251.113 179.699 251.745 179.334L258.49 175.439C259.121 175.076 260.075 175.036 260.622 175.351L267.43 179.282C267.976 179.598 267.907 180.149 267.277 180.513L260.532 184.408C259.899 184.771 258.946 184.811 258.399 184.496Z" fill="#5793CE"/>
<path fill-rule="evenodd" clip-rule="evenodd" d="M247.626 178.275L240.819 174.344C240.272 174.029 240.34 173.478 240.971 173.115L247.717 169.22C248.348 168.856 249.302 168.817 249.849 169.132L256.656 173.062C257.203 173.377 257.134 173.928 256.504 174.293L249.758 178.187C249.126 178.552 248.173 178.591 247.626 178.275Z" fill="#5793CE"/>
<path fill-rule="evenodd" clip-rule="evenodd" d="M236.851 172.055L230.043 168.125C229.496 167.809 229.564 167.259 230.195 166.894L236.941 162.999C237.572 162.635 238.527 162.596 239.073 162.911L245.881 166.841C246.428 167.157 246.359 167.707 245.729 168.072L238.983 171.967C238.351 172.331 237.398 172.37 236.851 172.055Z" fill="#5793CE"/>
<path fill-rule="evenodd" clip-rule="evenodd" d="M226.077 165.834L219.27 161.904C218.723 161.589 218.791 161.038 219.422 160.673L226.167 156.779C226.799 156.414 227.753 156.375 228.3 156.691L235.107 160.621C235.654 160.936 235.585 161.487 234.955 161.851L228.209 165.746C227.577 166.111 226.624 166.149 226.077 165.834Z" fill="#5793CE"/>
<path fill-rule="evenodd" clip-rule="evenodd" d="M268.911 190.564L262.104 186.635C261.557 186.319 261.625 185.768 262.256 185.404L269.002 181.509C269.633 181.145 270.587 181.106 271.135 181.421L277.941 185.352C278.488 185.667 278.419 186.218 277.789 186.582L271.043 190.476C270.412 190.841 269.458 190.881 268.911 190.564Z" fill="#5793CE"/>
<path fill-rule="evenodd" clip-rule="evenodd" d="M279.425 196.634L272.618 192.704C272.071 192.389 272.139 191.838 272.77 191.473L279.516 187.579C280.147 187.214 281.101 187.175 281.649 187.491L288.455 191.421C289.002 191.736 288.933 192.287 288.303 192.651L281.557 196.546C280.926 196.91 279.972 196.949 279.425 196.634Z" fill="#5793CE"/>
<path fill-rule="evenodd" clip-rule="evenodd" d="M289.937 202.704L283.129 198.774C282.582 198.458 282.65 197.908 283.283 197.543L290.027 193.648C290.658 193.284 291.612 193.245 292.16 193.56L298.967 197.49C299.514 197.806 299.444 198.356 298.815 198.721L292.069 202.616C291.438 202.98 290.483 203.019 289.937 202.704Z" fill="#5793CE"/>
<path fill-rule="evenodd" clip-rule="evenodd" d="M300.45 208.773L293.643 204.843C293.096 204.528 293.164 203.977 293.796 203.613L300.541 199.718C301.172 199.353 302.126 199.315 302.674 199.63L309.48 203.56C310.027 203.875 309.958 204.426 309.328 204.791L302.582 208.685C301.951 209.05 300.997 209.089 300.45 208.773Z" fill="#5793CE"/>
<path fill-rule="evenodd" clip-rule="evenodd" d="M310.962 214.843L304.155 210.913C303.608 210.596 303.676 210.046 304.307 209.682L311.053 205.788C311.684 205.423 312.638 205.384 313.186 205.7L319.992 209.63C320.539 209.945 320.47 210.496 319.84 210.86L313.094 214.755C312.463 215.119 311.509 215.158 310.962 214.843Z" fill="#5793CE"/>
<path fill-rule="evenodd" clip-rule="evenodd" d="M321.476 220.912L314.668 216.981C314.121 216.666 314.189 216.115 314.822 215.752L321.566 211.857C322.197 211.493 323.151 211.454 323.7 211.769L330.507 215.699C331.053 216.015 330.983 216.565 330.354 216.93L323.608 220.824C322.977 221.189 322.023 221.228 321.476 220.912Z" fill="#5793CE"/>
<path fill-rule="evenodd" clip-rule="evenodd" d="M331.987 226.982L325.18 223.051C324.633 222.735 324.701 222.185 325.333 221.82L332.078 217.926C332.709 217.562 333.663 217.522 334.211 217.838L341.017 221.769C341.564 222.084 341.495 222.635 340.865 222.999L334.119 226.894C333.488 227.257 332.534 227.298 331.987 226.982Z" fill="#5793CE"/>
<path fill-rule="evenodd" clip-rule="evenodd" d="M342.501 233.051L335.694 229.121C335.147 228.805 335.215 228.255 335.847 227.89L342.592 223.995C343.223 223.631 344.177 223.592 344.725 223.907L351.532 227.839C352.078 228.153 352.009 228.705 351.379 229.068L344.633 232.963C344.002 233.327 343.048 233.366 342.501 233.051Z" fill="#5793CE"/>
<path fill-rule="evenodd" clip-rule="evenodd" d="M353.012 239.12L346.205 235.19C345.658 234.875 345.727 234.324 346.358 233.96L353.103 230.065C353.734 229.7 354.688 229.661 355.236 229.977L362.044 233.907C362.589 234.222 362.52 234.773 361.89 235.138L355.144 239.032C354.513 239.397 353.559 239.436 353.012 239.12Z" fill="#5793CE"/>
<path fill-rule="evenodd" clip-rule="evenodd" d="M252.864 169.483L246.057 165.553C245.51 165.237 245.578 164.687 246.209 164.322L252.955 160.427C253.586 160.063 254.54 160.024 255.088 160.339L261.895 164.269C262.441 164.585 262.372 165.135 261.742 165.5L254.997 169.395C254.365 169.759 253.411 169.798 252.864 169.483Z" fill="#5793CE"/>
<path fill-rule="evenodd" clip-rule="evenodd" d="M242.403 163.444L235.596 159.514C235.049 159.198 235.118 158.648 235.749 158.283L242.493 154.389C243.125 154.024 244.08 153.985 244.627 154.301L251.434 158.23C251.98 158.546 251.911 159.097 251.281 159.461L244.535 163.356C243.904 163.72 242.95 163.759 242.403 163.444Z" fill="#5793CE"/>
<path fill-rule="evenodd" clip-rule="evenodd" d="M231.942 157.405L225.135 153.474C224.588 153.158 224.657 152.607 225.288 152.244L232.033 148.349C232.664 147.984 233.618 147.945 234.166 148.261L240.973 152.191C241.519 152.507 241.45 153.057 240.82 153.422L234.074 157.317C233.443 157.681 232.489 157.72 231.942 157.405Z" fill="#5793CE"/>
<path fill-rule="evenodd" clip-rule="evenodd" d="M221.482 151.366L214.675 147.435C214.127 147.119 214.196 146.568 214.827 146.204L221.571 142.309C222.202 141.945 223.158 141.906 223.705 142.221L230.512 146.151C231.058 146.467 230.99 147.019 230.359 147.383L223.613 151.276C222.982 151.641 222.029 151.681 221.482 151.366Z" fill="#5793CE"/>
<path fill-rule="evenodd" clip-rule="evenodd" d="M232.239 145.155L225.431 141.225C224.885 140.91 224.954 140.358 225.585 139.994L227.814 138.707C228.445 138.342 229.4 138.302 229.947 138.618L236.755 142.548C237.3 142.863 237.232 143.415 236.601 143.78L234.371 145.067C233.74 145.432 232.786 145.47 232.239 145.155Z" fill="#5793CE"/>
<path fill-rule="evenodd" clip-rule="evenodd" d="M245.889 153.037L239.082 149.106C238.535 148.79 238.604 148.239 239.235 147.875L241.464 146.587C242.095 146.223 243.051 146.184 243.598 146.499L250.405 150.429C250.951 150.745 250.883 151.295 250.252 151.66L248.021 152.949C247.39 153.312 246.436 153.352 245.889 153.037Z" fill="#5793CE"/>
<path fill-rule="evenodd" clip-rule="evenodd" d="M256.305 159.05L249.498 155.12C248.951 154.804 249.02 154.254 249.651 153.889L251.88 152.602C252.511 152.237 253.467 152.198 254.014 152.514L260.821 156.444C261.367 156.759 261.299 157.31 260.668 157.674L258.437 158.962C257.806 159.326 256.852 159.365 256.305 159.05Z" fill="#5793CE"/>
<path fill-rule="evenodd" clip-rule="evenodd" d="M266.723 165.064L259.916 161.134C259.369 160.819 259.438 160.268 260.069 159.904L262.298 158.615C262.929 158.252 263.885 158.212 264.432 158.527L271.239 162.458C271.785 162.774 271.717 163.324 271.086 163.689L268.855 164.976C268.224 165.341 267.27 165.38 266.723 165.064Z" fill="#5793CE"/>
<path fill-rule="evenodd" clip-rule="evenodd" d="M277.139 171.079L270.332 167.149C269.785 166.833 269.854 166.283 270.485 165.918L272.714 164.63C273.345 164.265 274.301 164.226 274.848 164.542L281.655 168.473C282.201 168.787 282.133 169.338 281.502 169.702L279.271 170.991C278.64 171.355 277.686 171.394 277.139 171.079Z" fill="#5793CE"/>
<path fill-rule="evenodd" clip-rule="evenodd" d="M335.296 204.654L328.488 200.725C327.941 200.409 328.01 199.858 328.641 199.494L330.87 198.205C331.501 197.841 332.457 197.802 333.004 198.117L339.811 202.048C340.357 202.364 340.289 202.915 339.658 203.278L337.428 204.566C336.797 204.931 335.842 204.97 335.296 204.654Z" fill="#5793CE"/>
<path fill-rule="evenodd" clip-rule="evenodd" d="M345.712 210.669L338.905 206.738C338.358 206.422 338.426 205.872 339.058 205.508L341.287 204.22C341.918 203.855 342.873 203.816 343.42 204.132L350.228 208.061C350.773 208.377 350.705 208.928 350.074 209.292L347.844 210.581C347.213 210.944 346.259 210.984 345.712 210.669Z" fill="#5793CE"/>
<path fill-rule="evenodd" clip-rule="evenodd" d="M356.128 216.682L349.321 212.752C348.774 212.437 348.842 211.886 349.473 211.521L351.703 210.234C352.334 209.87 353.288 209.831 353.836 210.146L360.644 214.076C361.189 214.391 361.121 214.942 360.49 215.307L358.26 216.595C357.629 216.959 356.675 216.999 356.128 216.682Z" fill="#5793CE"/>
<path fill-rule="evenodd" clip-rule="evenodd" d="M366.545 222.696L359.737 218.767C359.189 218.451 359.258 217.9 359.889 217.536L362.12 216.247C362.751 215.884 363.705 215.844 364.252 216.159L371.059 220.09C371.606 220.406 371.538 220.957 370.907 221.321L368.677 222.608C368.044 222.973 367.092 223.012 366.545 222.696Z" fill="#5793CE"/>
<path fill-rule="evenodd" clip-rule="evenodd" d="M263.376 175.552L256.569 171.622C256.022 171.307 256.09 170.756 256.722 170.392L263.467 166.497C264.098 166.132 265.052 166.094 265.6 166.409L272.406 170.339C272.953 170.654 272.884 171.205 272.254 171.57L265.508 175.464C264.877 175.829 263.923 175.868 263.376 175.552Z" fill="#5793CE"/>
<path fill-rule="evenodd" clip-rule="evenodd" d="M273.89 181.622L267.082 177.692C266.535 177.377 266.603 176.826 267.236 176.461L273.98 172.567C274.611 172.202 275.565 172.163 276.114 172.479L282.92 176.409C283.467 176.724 283.397 177.275 282.768 177.639L276.022 181.534C275.391 181.898 274.437 181.937 273.89 181.622Z" fill="#5793CE"/>
<path fill-rule="evenodd" clip-rule="evenodd" d="M284.401 187.692L277.594 183.76C277.047 183.445 277.115 182.896 277.747 182.531L284.492 178.636C285.123 178.272 286.077 178.233 286.625 178.548L293.431 182.478C293.978 182.794 293.909 183.344 293.279 183.709L286.534 187.604C285.902 187.968 284.948 188.007 284.401 187.692Z" fill="#5793CE"/>
<path fill-rule="evenodd" clip-rule="evenodd" d="M294.915 193.761L288.107 189.83C287.56 189.515 287.63 188.964 288.261 188.601L295.005 184.705C295.636 184.341 296.59 184.301 297.139 184.618L303.946 188.548C304.492 188.863 304.422 189.414 303.793 189.779L297.047 193.673C296.416 194.038 295.462 194.077 294.915 193.761Z" fill="#5793CE"/>
<path fill-rule="evenodd" clip-rule="evenodd" d="M305.427 199.831L298.619 195.9C298.073 195.584 298.14 195.034 298.773 194.669L305.517 190.774C306.148 190.411 307.103 190.371 307.651 190.686L314.457 194.617C315.004 194.933 314.935 195.484 314.305 195.848L307.559 199.743C306.928 200.106 305.974 200.146 305.427 199.831Z" fill="#5793CE"/>
<path fill-rule="evenodd" clip-rule="evenodd" d="M315.939 205.899L309.131 201.969C308.584 201.654 308.652 201.103 309.284 200.739L316.029 196.844C316.66 196.479 317.614 196.44 318.162 196.756L324.97 200.687C325.515 201.001 325.446 201.553 324.816 201.917L318.071 205.811C317.44 206.176 316.485 206.215 315.939 205.899Z" fill="#5793CE"/>
<path fill-rule="evenodd" clip-rule="evenodd" d="M326.452 211.969L319.644 208.039C319.098 207.724 319.167 207.173 319.798 206.808L326.542 202.914C327.173 202.549 328.128 202.51 328.676 202.826L335.483 206.756C336.029 207.071 335.96 207.622 335.33 207.986L328.584 211.881C327.953 212.246 326.999 212.284 326.452 211.969Z" fill="#5793CE"/>
<path fill-rule="evenodd" clip-rule="evenodd" d="M336.965 218.039L330.158 214.109C329.611 213.793 329.68 213.243 330.311 212.878L337.056 208.983C337.687 208.619 338.641 208.58 339.189 208.895L345.997 212.825C346.542 213.141 346.473 213.691 345.843 214.056L339.098 217.951C338.466 218.315 337.512 218.354 336.965 218.039Z" fill="#5793CE"/>
<path fill-rule="evenodd" clip-rule="evenodd" d="M347.477 224.108L340.67 220.178C340.123 219.863 340.192 219.312 340.823 218.948L347.568 215.053C348.199 214.688 349.153 214.649 349.701 214.965L356.509 218.895C357.054 219.21 356.985 219.761 356.355 220.126L349.609 224.02C348.978 224.385 348.024 224.424 347.477 224.108Z" fill="#5793CE"/>
<path fill-rule="evenodd" clip-rule="evenodd" d="M203.273 176.302L183.224 164.727C182.678 164.411 182.747 163.86 183.378 163.495L190.122 159.601C190.753 159.238 191.709 159.198 192.255 159.513L212.303 171.089C212.85 171.405 212.781 171.955 212.151 172.32L205.405 176.213C204.773 176.578 203.82 176.618 203.273 176.302Z" fill="#5793CE"/>
<path fill-rule="evenodd" clip-rule="evenodd" d="M332.422 250.867L312.375 239.292C311.828 238.977 311.897 238.426 312.528 238.06L319.273 234.167C319.904 233.802 320.858 233.763 321.405 234.079L341.454 245.653C341.999 245.969 341.93 246.519 341.3 246.884L334.555 250.779C333.924 251.143 332.971 251.182 332.422 250.867Z" fill="#5793CE"/>
<path fill-rule="evenodd" clip-rule="evenodd" d="M290.382 240L283.575 236.071C283.028 235.755 283.096 235.204 283.727 234.84L291.762 230.2C292.393 229.836 293.348 229.796 293.894 230.112L300.702 234.043C301.249 234.358 301.181 234.909 300.549 235.274L292.514 239.912C291.882 240.277 290.929 240.316 290.382 240Z" fill="#5793CE"/>
<path fill-rule="evenodd" clip-rule="evenodd" d="M214.039 195.924L203.152 189.639C202.605 189.323 202.674 188.773 203.306 188.408L211.341 183.768C211.971 183.405 212.925 183.364 213.473 183.68L224.359 189.966C224.907 190.281 224.838 190.832 224.207 191.196L216.171 195.836C215.54 196.201 214.586 196.24 214.039 195.924Z" fill="#5793CE"/>
<path fill-rule="evenodd" clip-rule="evenodd" d="M280.254 234.153L269.367 227.867C268.82 227.552 268.889 227.001 269.52 226.637L277.556 221.996C278.186 221.633 279.14 221.593 279.688 221.908L290.575 228.194C291.122 228.51 291.053 229.06 290.422 229.425L282.386 234.065C281.755 234.43 280.801 234.469 280.254 234.153Z" fill="#5793CE"/>
<path fill-rule="evenodd" clip-rule="evenodd" d="M229.207 204.681L218.321 198.396C217.773 198.08 217.842 197.53 218.473 197.165L226.509 192.525C227.139 192.162 228.094 192.121 228.641 192.437L239.528 198.723C240.075 199.038 240.006 199.589 239.375 199.953L231.339 204.593C230.708 204.958 229.755 204.997 229.207 204.681Z" fill="#5793CE"/>
<path fill-rule="evenodd" clip-rule="evenodd" d="M228.714 192.479L276.047 219.807C276.634 220.147 276.634 220.696 276.047 221.035L267.854 225.766C267.267 226.106 266.314 226.106 265.727 225.766L218.395 198.438L228.714 192.479Z" fill="#5793CE"/>
<path fill-rule="evenodd" clip-rule="evenodd" d="M319.764 251.005L327.345 255.383C327.794 255.642 327.738 256.094 327.221 256.392L323.933 258.29C323.416 258.588 322.634 258.621 322.186 258.363L314.604 253.985C314.155 253.726 314.211 253.274 314.729 252.975L318.015 251.078C318.533 250.779 319.316 250.746 319.764 251.005Z" fill="#5793CE"/>
<path fill-rule="evenodd" clip-rule="evenodd" d="M309.164 244.885L316.746 249.263C317.195 249.522 317.138 249.974 316.621 250.272L313.334 252.171C312.816 252.469 312.034 252.503 311.586 252.244L304.005 247.865C303.556 247.606 303.611 247.155 304.129 246.855L307.415 244.958C307.933 244.659 308.716 244.627 309.164 244.885Z" fill="#5793CE"/>
<path fill-rule="evenodd" clip-rule="evenodd" d="M298.65 238.816L306.232 243.193C306.681 243.452 306.624 243.905 306.108 244.203L302.82 246.101C302.302 246.399 301.52 246.433 301.073 246.174L293.491 241.795C293.042 241.536 293.097 241.085 293.615 240.786L296.902 238.889C297.42 238.589 298.203 238.558 298.65 238.816Z" fill="#5793CE"/>
<path fill-rule="evenodd" clip-rule="evenodd" d="M314.969 241.534L322.551 245.911C323 246.17 322.943 246.623 322.427 246.921L319.138 248.819C318.621 249.117 317.839 249.15 317.392 248.892L309.809 244.513C309.36 244.254 309.417 243.803 309.933 243.504L313.221 241.607C313.739 241.308 314.522 241.275 314.969 241.534Z" fill="#5793CE"/>
<path fill-rule="evenodd" clip-rule="evenodd" d="M356.495 123.102L299.869 90.4089L300.597 86.728L357.224 119.421L356.495 123.102Z" fill="#D4ECFF"/>
<path fill-rule="evenodd" clip-rule="evenodd" d="M336.214 129.314L296.686 106.493L297.415 102.811L336.942 125.633L336.214 129.314Z" fill="#D4ECFF"/>
<path fill-rule="evenodd" clip-rule="evenodd" d="M332.473 118.195L298.277 98.4511L299.005 94.7702L333.201 114.512L332.473 118.195Z" fill="white"/>
<path fill-rule="evenodd" clip-rule="evenodd" d="M354.903 131.144L337.805 121.272L338.534 117.591L355.632 127.463L354.903 131.144Z" fill="#FFCC00"/>
<path fill-rule="evenodd" clip-rule="evenodd" d="M293.839 58.2918L276.74 48.4194L277.469 44.7385L294.567 54.6109L293.839 58.2918Z" fill="#D4ECFF"/>
<path fill-rule="evenodd" clip-rule="evenodd" d="M291.984 66.8469L274.885 56.9746L275.615 53.2936L292.712 63.166L291.984 66.8469Z" fill="white"/>
<path fill-rule="evenodd" clip-rule="evenodd" d="M375.903 185.51L358.805 175.639L359.534 171.958L376.632 181.829L375.903 185.51Z" fill="#D4ECFF"/>
<path fill-rule="evenodd" clip-rule="evenodd" d="M288.272 83.957L271.174 74.0846L271.903 70.4037L289 80.2761L288.272 83.957Z" fill="#D4ECFF"/>
<path fill-rule="evenodd" clip-rule="evenodd" d="M325.216 86.6076C324.67 87.7956 323.295 88.2192 322.142 87.5542C320.989 86.8879 320.495 85.3856 321.041 84.1976C321.585 83.0084 322.961 82.5847 324.114 83.2497C325.267 83.916 325.761 85.4183 325.216 86.6076Z" fill="#FFCC00"/>
<path fill-rule="evenodd" clip-rule="evenodd" d="M332.581 90.8596C332.035 92.0476 330.66 92.4712 329.507 91.8062C328.354 91.1412 327.86 89.6376 328.406 88.4484C328.95 87.2604 330.327 86.8367 331.479 87.5017C332.632 88.168 333.126 89.6703 332.581 90.8596Z" fill="white"/>
<path fill-rule="evenodd" clip-rule="evenodd" d="M339.946 95.1111C339.401 96.3004 338.025 96.724 336.872 96.0577C335.718 95.3927 335.226 93.8892 335.771 92.7012C336.316 91.5119 337.692 91.0882 338.845 91.7545C339.998 92.4196 340.491 93.9231 339.946 95.1111Z" fill="#D4ECFF"/>
<path fill-rule="evenodd" clip-rule="evenodd" d="M347.308 99.3631C346.764 100.552 345.389 100.976 344.235 100.31C343.082 99.6447 342.589 98.1412 343.135 96.9532C343.678 95.7639 345.054 95.3403 346.208 96.0066C347.361 96.6716 347.854 98.1751 347.308 99.3631Z" fill="#FFCC00"/>
<path fill-rule="evenodd" clip-rule="evenodd" d="M189.746 298.506C189.746 298.506 185.423 296.324 182.766 299.572C180.111 302.819 176.315 310.482 176.198 315.66C176.08 320.841 180.296 320.49 182.803 319.266C185.308 318.039 192.63 307.42 193.072 305.339C193.516 303.258 192.549 300.444 191.845 299.893C191.141 299.343 189.746 298.506 189.746 298.506Z" fill="#FFCC00"/>
<path fill-rule="evenodd" clip-rule="evenodd" d="M190.688 297.463L190.888 301.942C190.931 302.895 190.453 303.803 189.622 304.273C188.868 304.702 187.77 305.03 186.287 304.791C183.03 304.268 182.739 303.338 182.507 298.859C182.274 294.381 190.688 297.463 190.688 297.463Z" fill="#D4ECFF"/>
<path fill-rule="evenodd" clip-rule="evenodd" d="M173.92 289.892C173.92 289.892 169.596 287.712 166.94 290.958C164.285 294.205 160.488 301.869 160.372 307.048C160.255 312.228 164.47 311.877 166.977 310.653C169.483 309.427 176.804 298.806 177.246 296.726C177.69 294.644 176.723 291.831 176.02 291.28C175.315 290.729 173.92 289.892 173.92 289.892Z" fill="#FFCC00"/>
<path fill-rule="evenodd" clip-rule="evenodd" d="M174.862 288.85L175.062 293.329C175.105 294.282 174.627 295.19 173.796 295.66C173.042 296.088 171.944 296.418 170.461 296.178C167.203 295.655 166.913 294.724 166.681 290.245C166.448 285.767 174.862 288.85 174.862 288.85Z" fill="#D4ECFF"/>
<path fill-rule="evenodd" clip-rule="evenodd" d="M213.442 206.609C212.162 185.787 190.893 209.673 190.893 209.673L176.334 223.941L163.225 238.342C160.666 241.154 159.474 244.952 159.969 248.722L165.273 289.101C165.535 291.095 167.241 292.566 169.252 292.55C169.82 292.546 170.47 292.494 171.216 292.379C175.947 291.642 175.597 287.144 175.597 287.144L174.629 249.378L202.158 232.781C202.158 232.781 214.722 227.43 213.442 206.609Z" fill="#173D7A"/>
<path fill-rule="evenodd" clip-rule="evenodd" d="M229.27 214.542C227.99 193.72 206.721 217.606 206.721 217.606L192.162 231.874L179.054 246.275C176.494 249.087 175.302 252.885 175.798 256.655L181.101 297.035C181.363 299.03 183.069 300.499 185.08 300.484C185.649 300.479 186.299 300.428 187.044 300.312C191.775 299.575 191.425 295.077 191.425 295.077L190.484 258.398L217.986 240.715C217.986 240.715 230.55 235.363 229.27 214.542Z" fill="#173D7A"/>
<path fill-rule="evenodd" clip-rule="evenodd" d="M216.686 147.702C232.812 154.388 232.489 163.92 232.489 163.92C232.489 163.92 229.331 198.866 230.408 222.206C230.858 231.961 178.572 232.707 186.369 206.678C195.564 175.987 192.117 151.141 196.421 147.393C200.726 143.646 212.516 145.974 216.686 147.702Z" fill="#0B74FF"/>
<path fill-rule="evenodd" clip-rule="evenodd" d="M221.874 156.155C221.03 159.429 216.741 161.155 212.293 160.008C207.844 158.862 204.923 155.28 205.766 152.005C206.608 148.732 210.899 147.005 215.347 148.152C219.796 149.297 222.717 152.881 221.874 156.155Z" fill="#FFC2B0"/>
<path fill-rule="evenodd" clip-rule="evenodd" d="M215.418 160.079L212.451 163.301C212.065 163.719 211.882 164.284 211.946 164.848L213.986 182.487C214.043 182.981 213.907 183.479 213.605 183.875L207.22 192.225C206.937 192.596 206.355 192.494 206.215 192.05L202.739 181.111C202.608 180.697 202.619 180.251 202.774 179.846L208.889 163.825C209.022 163.474 209.053 163.092 208.975 162.725L208.08 158.48L215.418 160.079Z" fill="white"/>
<path fill-rule="evenodd" clip-rule="evenodd" d="M212.587 148.567C209.592 148.567 207.089 149.96 206.512 152.197C206.168 153.537 206.569 155.001 207.641 156.318C208.772 157.704 210.492 158.748 212.486 159.261C214.48 159.777 216.489 159.694 218.147 159.024C219.725 158.389 220.782 157.303 221.128 155.962C221.864 153.105 219.183 149.936 215.154 148.899C214.282 148.672 213.415 148.567 212.587 148.567ZM215.044 161.134C214.079 161.134 213.084 161.007 212.1 160.755C209.789 160.16 207.784 158.931 206.447 157.291C205.056 155.585 204.548 153.639 205.019 151.813C205.966 148.133 210.682 146.155 215.54 147.405C220.392 148.656 223.568 152.667 222.62 156.347C222.148 158.174 220.765 159.633 218.723 160.454C217.597 160.907 216.345 161.134 215.044 161.134Z" fill="white"/>
<path fill-rule="evenodd" clip-rule="evenodd" d="M210.221 146.975C210.221 146.975 210.359 147.622 210.081 152.733C209.992 154.338 215.618 155.839 217.072 154.385C218.525 152.931 217.945 151.419 218.293 145.952C218.642 140.484 210.221 146.975 210.221 146.975Z" fill="#FFC2B0"/>
<path fill-rule="evenodd" clip-rule="evenodd" d="M218.293 145.952C218.293 145.952 216.908 151.021 210.08 152.965L210.184 148.358L218.293 145.952Z" fill="#EA9C92"/>
<path fill-rule="evenodd" clip-rule="evenodd" d="M222.621 133.072C224.337 139.709 220.346 146.481 213.71 148.196C207.074 149.913 200.301 145.924 198.585 139.286C196.871 132.65 200.858 125.878 207.496 124.162C214.134 122.446 220.905 126.434 222.621 133.072Z" fill="#FFC2B0"/>
<path fill-rule="evenodd" clip-rule="evenodd" d="M213.453 136.634C213.453 136.634 206.619 139.562 201.887 139.595C197.154 139.629 198.197 135.666 198.197 135.666L212.245 133.636L213.453 136.634Z" fill="#EA9C92"/>
<path fill-rule="evenodd" clip-rule="evenodd" d="M200.476 137.406C200.476 137.406 206.428 134.879 211.652 135.932C212.879 136.18 214.017 136.836 214.807 137.808C215.066 138.125 215.392 138.415 215.763 138.5C216.688 138.708 218.205 134.866 220.006 134.778C221.806 134.692 223.006 135.965 221.53 138.329C220.055 140.691 220.554 143.336 221.233 143.715C221.913 144.094 230.318 138.228 223.966 125.641C217.611 113.054 200.267 120.183 197.757 122.735C197.757 122.735 195.112 125.038 192.961 122.988C192.961 122.988 190.551 141.046 200.476 137.406Z" fill="url(#paint0_linear)"/>
<path fill-rule="evenodd" clip-rule="evenodd" d="M223.444 189.452V198.894C223.444 199.977 222.988 201.008 222.188 201.737L202.789 219.424L204.994 222.793L231.718 205.269C232.914 204.403 233.686 203.068 233.84 201.6L235.668 184.076L223.444 189.452Z" fill="#FFC2B0"/>
<path fill-rule="evenodd" clip-rule="evenodd" d="M231.125 159.198C231.125 159.198 237.01 168.049 239.202 191.345C239.202 191.345 229.15 194.596 223.445 192.75C217.739 190.906 231.125 159.198 231.125 159.198Z" fill="#0B74FF"/>
<path fill-rule="evenodd" clip-rule="evenodd" d="M222.368 170.389C222.368 170.389 220.065 182.72 219.933 188.514C219.897 190.108 220.87 191.545 222.368 192.087V170.389Z" fill="#0041F1"/>
<path fill-rule="evenodd" clip-rule="evenodd" d="M217.335 231.701L213.048 231.136L185.371 215.157C184.483 214.644 182.935 214.709 181.909 215.301L162.299 226.619L159.705 226.277V228.856L159.708 228.858C159.691 229.197 159.885 229.525 160.303 229.767L191.669 247.875C192.555 248.386 194.106 248.323 195.13 247.731L216.488 235.405C217.063 235.073 217.353 234.643 217.335 234.242V231.701Z" fill="#5793CE"/>
<path fill-rule="evenodd" clip-rule="evenodd" d="M196.539 221.605L194.574 220.47H172.955L162.299 226.618L159.705 226.276V228.857L159.708 228.859C159.691 229.197 159.885 229.525 160.303 229.766L191.669 247.874C192.138 248.146 192.792 248.254 193.456 248.21L196.539 221.605Z" fill="#396CAA"/>
<path fill-rule="evenodd" clip-rule="evenodd" d="M160.856 226.428L159.706 226.276V228.857L159.708 228.859C159.692 229.197 159.886 229.525 160.304 229.766L160.856 230.086V226.428Z" fill="#5793CE"/>
<path fill-rule="evenodd" clip-rule="evenodd" d="M191.986 248.022C192.827 248.342 194.03 248.271 194.928 247.839V243.447H191.986V248.022Z" fill="#5793CE"/>
<path fill-rule="evenodd" clip-rule="evenodd" d="M191.67 245.295L160.304 227.188C159.416 226.675 159.528 225.781 160.553 225.189L181.909 212.861C182.935 212.27 184.484 212.206 185.371 212.718L216.737 230.827C217.625 231.339 217.514 232.234 216.488 232.826L195.131 245.152C194.106 245.743 192.556 245.808 191.67 245.295Z" fill="white"/>
<path fill-rule="evenodd" clip-rule="evenodd" d="M191.138 242.552L165.059 227.493C164.321 227.069 164.413 226.324 165.265 225.832L176.71 219.396C177.563 218.903 178.851 218.851 179.588 219.277L205.67 234.335C206.408 234.761 206.313 235.505 205.462 235.996L194.017 242.431C193.165 242.924 191.876 242.978 191.138 242.552Z" fill="#D4ECFF"/>
<path fill-rule="evenodd" clip-rule="evenodd" d="M183.123 212.267L182.798 214.432C182.522 216.275 182.569 218.154 182.939 219.981L183.325 221.887C183.544 222.964 184.395 223.798 185.475 223.994C186.317 224.149 187.114 223.555 187.209 222.704L187.727 218.077C187.727 218.077 188.91 219.628 189.482 219.628C190.054 219.628 188.844 214.995 187.55 212.373C186.258 209.75 183.123 212.267 183.123 212.267Z" fill="#FFC2B0"/>
<path fill-rule="evenodd" clip-rule="evenodd" d="M193.756 177.871L190.39 184.533C189.594 186.108 189.126 187.828 189.014 189.588L187.552 212.372L183.124 212.267L181.114 186.681C181.053 185.891 181.091 185.096 181.228 184.315L183.524 171.342L193.756 177.871Z" fill="#FFC2B0"/>
<path fill-rule="evenodd" clip-rule="evenodd" d="M190.607 247.035L187.977 243.603L160.32 227.59C159.434 227.075 158.717 225.7 158.719 224.518L158.741 201.875L157.152 199.799L158.646 198.933L158.647 198.936C158.935 198.752 159.313 198.756 159.732 198.998L191.075 217.145C191.963 217.658 192.679 219.033 192.678 220.216L192.652 244.875C192.652 245.542 192.423 246.004 192.066 246.19L190.607 247.035Z" fill="#173D7A"/>
<path fill-rule="evenodd" clip-rule="evenodd" d="M171.481 234.051L169.518 232.913L158.73 214.178L158.741 201.875L157.152 199.799L158.646 198.933L158.647 198.935C158.935 198.752 159.313 198.756 159.732 198.998L191.075 217.145C191.544 217.417 191.964 217.93 192.257 218.525L171.481 234.051Z" fill="#396CAA"/>
<path fill-rule="evenodd" clip-rule="evenodd" d="M157.857 200.72L157.15 199.799L158.645 198.933L158.646 198.936C158.933 198.752 159.313 198.756 159.731 198.999L160.284 199.318L157.857 200.72Z" fill="#5793CE"/>
<path fill-rule="evenodd" clip-rule="evenodd" d="M191.359 217.346C192.056 217.916 192.595 218.993 192.669 219.986L189.606 221.754L188.139 219.205L191.359 217.346Z" fill="#274F89"/>
<path fill-rule="evenodd" clip-rule="evenodd" d="M189.582 218.009L158.239 199.862C157.352 199.349 156.632 199.892 156.631 201.074L156.605 225.736C156.603 226.917 157.321 228.293 158.207 228.807L189.551 246.952C190.438 247.466 191.157 246.923 191.159 245.74L191.184 221.08C191.186 219.899 190.469 218.522 189.582 218.009Z" fill="#5793CE"/>
<path fill-rule="evenodd" clip-rule="evenodd" d="M204.994 222.793L204.492 223.834C203.912 225.032 203.003 226.041 201.871 226.738L198.758 228.658C197.79 229.255 196.563 229.304 195.58 228.731C195.544 228.711 195.508 228.688 195.473 228.667C194.484 228.047 194.395 226.626 195.209 225.789L198.463 222.445C198.463 222.445 196.635 223.846 196.122 223.281C195.747 222.867 197.896 220.851 199.544 220.784C201.193 220.719 202.789 219.423 202.789 219.423L204.994 222.793Z" fill="#FFC2B0"/>
<path fill-rule="evenodd" clip-rule="evenodd" d="M180.006 172.226C180.006 172.226 184.084 179.575 194.067 182.458C204.05 185.342 196.743 147.344 196.743 147.344C196.743 147.344 184.817 160.322 180.006 172.226Z" fill="#0B74FF"/>
<path fill-rule="evenodd" clip-rule="evenodd" d="M191.822 181.688L193.754 163.015L189.199 180.51C190.011 180.933 190.89 181.327 191.822 181.688Z" fill="#0041F1"/>
<path fill-rule="evenodd" clip-rule="evenodd" d="M205.678 144.726L202.473 143.846C202.473 143.846 204.003 146.252 206.237 146.866C208.47 147.479 208.817 145.588 208.817 145.588L205.678 144.726Z" fill="white"/>
<path fill-rule="evenodd" clip-rule="evenodd" d="M222.795 139.595C222.795 140.581 221.995 141.38 221.01 141.38C220.024 141.38 219.225 140.581 219.225 139.595C219.225 138.61 220.024 137.811 221.01 137.811C221.995 137.811 222.795 138.61 222.795 139.595Z" fill="white"/>
<path fill-rule="evenodd" clip-rule="evenodd" d="M48.208 259.658C38.0025 265.55 21.4573 265.55 11.2518 259.657C1.04629 253.766 1.04629 244.213 11.2518 238.321C21.456 232.428 38.0025 232.43 48.208 238.321C58.4135 244.213 58.4135 253.766 48.208 259.658Z" fill="#B7C3E4"/>
<path fill-rule="evenodd" clip-rule="evenodd" d="M59.4598 236.085V227.738H57.8833C56.469 225.303 54.1119 223.009 50.7516 221.068C39.1406 214.365 20.3174 214.365 8.70641 221.068C5.34607 223.009 2.99018 225.303 1.57464 227.738H0.00195312V236.041H0.00321027C-0.016904 240.449 2.88332 244.859 8.70767 248.223C20.3186 254.926 39.1418 254.926 50.7528 248.223C56.557 244.872 59.4598 240.478 59.4598 236.085Z" fill="#0041F1"/>
<mask id="mask0" mask-type="alpha" maskUnits="userSpaceOnUse" x="0" y="210" width="60" height="35">
<path fill-rule="evenodd" clip-rule="evenodd" d="M0 210.574H59.4594V244.903H0V210.574Z" fill="white"/>
</mask>
<g mask="url(#mask0)">
<path fill-rule="evenodd" clip-rule="evenodd" d="M50.7523 239.875C39.1426 246.578 20.3194 246.578 8.70839 239.875C-2.90259 233.172 -2.90259 222.304 8.70713 215.601C20.3181 208.898 39.1413 208.898 50.7523 215.601C62.362 222.304 62.362 233.172 50.7523 239.875Z" fill="#0B74FF"/>
</g>
<path fill-rule="evenodd" clip-rule="evenodd" d="M50.7533 239.875C39.1436 246.58 20.3191 246.58 8.70816 239.875C3.14405 236.663 0.276505 232.493 0.0464474 228.283C-0.204981 232.858 2.66256 237.478 8.70816 240.968C20.3191 247.671 39.1436 247.671 50.7533 240.968C56.7989 237.478 59.6664 232.858 59.415 228.284C59.185 232.493 56.3174 236.663 50.7533 239.875Z" fill="white"/>
<path fill-rule="evenodd" clip-rule="evenodd" d="M15.4004 233.421C14.9001 233.133 14.6147 232.739 14.6172 232.326L14.6461 221.142C14.6486 220.291 15.8492 219.599 17.3263 219.6C18.8047 219.602 19.9978 220.294 19.9978 221.148L19.9726 230.422L46.8855 227.126C48.3325 226.95 49.7531 227.481 50.0586 228.316C50.3666 229.152 49.4426 229.972 47.9969 230.148L17.8481 233.84C17.0573 233.937 16.2339 233.822 15.6066 233.528C15.5337 233.496 15.4658 233.459 15.4004 233.421Z" fill="white"/>
<path fill-rule="evenodd" clip-rule="evenodd" d="M223.751 61.4678L179.375 35.8548C178.498 35.3482 177.616 35.3293 176.855 35.6712C176.856 35.6675 176.865 35.6436 176.865 35.6436L171.575 38.129C171.575 38.129 173.561 38.8229 174.726 39.234L168.322 71.54C167.802 74.1687 168.979 77.2211 170.95 78.36L213.365 102.84L212.614 106.631L217.957 104.128L217.932 104.119C218.839 103.671 219.56 102.688 219.84 101.274L226.379 68.2878C226.9 65.6591 225.724 62.6055 223.751 61.4678Z" fill="#0041F1"/>
<path fill-rule="evenodd" clip-rule="evenodd" d="M209.942 106.498L165.565 80.8848C163.594 79.7471 162.417 76.6935 162.938 74.066L169.477 41.0786C169.999 38.4512 172.019 37.2431 173.99 38.3808L218.368 63.9938C220.34 65.1315 221.515 68.1851 220.995 70.8138L214.457 103.8C213.935 106.427 211.913 107.636 209.942 106.498Z" fill="#0B74FF"/>
<path fill-rule="evenodd" clip-rule="evenodd" d="M219.377 63.5972L174.999 37.9841C173.966 37.3883 172.925 37.4499 172.088 38.0093C172.691 37.9075 173.341 38.0068 173.99 38.3814L218.367 63.9932C220.34 65.1321 221.515 68.1845 220.995 70.8132L214.456 103.801C214.208 105.05 213.614 105.965 212.855 106.473C214.087 106.268 215.115 105.166 215.464 103.403L222.004 70.4172C222.524 67.7885 221.348 64.7349 219.377 63.5972Z" fill="white"/>
<path fill-rule="evenodd" clip-rule="evenodd" d="M184.449 69.5183C184.071 71.4279 182.424 72.201 180.77 71.2469C179.117 70.2915 178.083 67.9708 178.46 66.0624C178.84 64.1528 180.487 63.3797 182.14 64.3338C183.795 65.288 184.828 67.61 184.449 69.5183Z" fill="white"/>
<path fill-rule="evenodd" clip-rule="evenodd" d="M193.519 74.7537C193.141 76.662 191.495 77.4364 189.839 76.4823C188.187 75.5268 187.153 73.2061 187.531 71.2965C187.91 69.3882 189.558 68.6151 191.211 69.5692C192.864 70.5234 193.899 72.8441 193.519 74.7537Z" fill="white"/>
<path fill-rule="evenodd" clip-rule="evenodd" d="M202.59 79.9886C202.212 81.8982 200.565 82.6713 198.91 81.7171C197.257 80.763 196.224 78.4423 196.601 76.5327C196.979 74.6231 198.628 73.8499 200.281 74.8041C201.935 75.7595 202.969 78.0802 202.59 79.9886Z" fill="white"/>
<defs>
<linearGradient id="paint0_linear" x1="218.972" y1="164.59" x2="259.658" y2="113.348" gradientUnits="userSpaceOnUse">
<stop stop-color="#FFA600"/>
<stop offset="1" stop-color="#FFCC00"/>
</linearGradient>
</defs>
</svg>
